<svg width="27" height="26" viewBox="0 0 27 26" fill="none" xmlns="http://www.w3.org/2000/svg">
<path d="M13.5 2.16669C7.51996 2.16669 2.66663 7.02002 2.66663 13C2.66663 18.98 7.51996 23.8334 13.5 23.8334C19.48 23.8334 24.3333 18.98 24.3333 13C24.3333 7.02002 19.48 2.16669 13.5 2.16669ZM13.5 6.50002C15.5908 6.50002 17.2916 8.20085 17.2916 10.2917C17.2916 12.3825 15.5908 14.0834 13.5 14.0834C11.4091 14.0834 9.70829 12.3825 9.70829 10.2917C9.70829 8.20085 11.4091 6.50002 13.5 6.50002ZM13.5 21.6667C11.3008 21.6667 8.70079 20.7784 6.84829 18.5467C8.74586 17.0579 11.088 16.2487 13.5 16.2487C15.9119 16.2487 18.2541 17.0579 20.1516 18.5467C18.2991 20.7784 15.6991 21.6667 13.5 21.6667Z" fill="#545454"/>
</svg>
