<svg width="23" height="24" viewBox="0 0 23 24" fill="none" xmlns="http://www.w3.org/2000/svg">
<path d="M18.8182 0L13.5909 5.4V18.6L18.8182 13.2V0ZM5.75 3.6C3.71136 3.6 1.51591 4.08 0 5.4V22.992C0 23.292 0.261364 23.592 0.522727 23.592C0.627273 23.592 0.679545 23.508 0.784091 23.508C2.19545 22.728 4.23409 22.2 5.75 22.2C7.78864 22.2 9.98409 22.68 11.5 24C12.9114 22.98 15.4727 22.2 17.25 22.2C18.975 22.2 20.7523 22.572 22.2159 23.472C22.3205 23.532 22.3727 23.508 22.4773 23.508C22.7386 23.508 23 23.208 23 22.908V5.4C22.3727 4.86 21.6932 4.5 20.9091 4.2V20.4C19.7591 19.98 18.5045 19.8 17.25 19.8C15.4727 19.8 12.9114 20.58 11.5 21.6V5.4C9.98409 4.08 7.78864 3.6 5.75 3.6Z" fill="#555555"/>
</svg>
