<svg width="68" height="101" viewBox="0 0 68 101" fill="none" xmlns="http://www.w3.org/2000/svg">
<g filter="url(#filter0_d_65_71)">
<path d="M50.2565 29.6502C50.2439 29.6333 50.2372 29.6243 50.2565 29.6502Z" fill="#555555"/>
<path d="M20.0067 35.2387C20.2043 35.1834 20.3921 35.079 20.5704 34.973C21.4944 34.4239 22.444 33.9108 23.327 33.3016C24.3425 32.6013 25.4736 32.4985 26.6371 32.4834C26.8789 32.4801 27.1219 32.5721 27.3644 32.6201C26.6798 32.7855 26.0276 32.8691 25.3868 33.0052C24.1878 33.2601 23.3845 34.118 22.5782 34.9461C22.4431 35.085 22.4572 35.3692 22.3796 35.6765C22.8934 35.8261 23.3108 36.0247 23.7416 36.0596C25.921 36.2363 28.1122 36.4488 30.0885 35.3419C31.2623 35.8754 31.9121 35.8595 32.2481 35.284C31.921 34.8916 31.5784 34.4904 31.2467 34.0807C30.7444 33.4606 30.3059 32.777 29.7408 32.2216C27.869 30.3813 25.9584 30.1304 23.717 31.4859C22.5964 32.1637 21.5832 33.0182 20.513 33.781C20.2269 33.9849 19.8729 34.1052 19.6196 34.3391C19.4507 34.4953 19.2922 34.8048 19.3288 35.0103C19.3892 35.3524 19.7382 35.3142 20.0067 35.2387Z" fill="#555555"/>
<path d="M19.2282 64.1292C18.5066 63.5865 18.1149 62.793 18.0533 61.9889C17.9719 60.9332 18.0309 59.8111 18.3092 58.7944C18.8652 56.7613 20.1179 55.1241 21.7113 53.7565C22.8198 52.8049 23.9906 51.9202 25.0428 50.911C25.8948 50.0942 26.721 49.208 27.3619 48.2245C28.2715 46.8288 29.0049 45.318 29.8055 43.8519C30.3022 42.9426 30.3448 41.9289 30.496 40.8935C30.345 40.8935 30.1683 40.8605 30.151 40.8987C29.9515 41.3441 29.7758 41.8003 29.5699 42.3138C29.5154 42.3732 29.4083 42.487 29.3037 42.603C28.9857 42.9552 28.6906 43.3314 28.3462 43.6553C27.8333 44.138 27.2561 44.5547 26.759 45.0519C25.7833 46.0279 24.8706 47.0677 23.8826 48.0305C22.5916 49.2885 22.236 51.0018 21.4809 52.5954C21.0883 52.9675 20.6249 53.3869 20.1838 53.8288C18.0808 55.934 16.8634 58.4211 16.9902 61.4543C17.0124 61.9866 17.1668 62.5189 17.303 63.0401C17.5927 64.1501 18.476 64.8158 19.2664 65.536C19.3902 65.6491 19.7689 65.6543 19.8916 65.5489C20.0166 65.4415 20.0686 65.0753 19.9788 64.9289C19.7909 64.6224 19.5184 64.3475 19.2282 64.1292Z" fill="#555555"/>
<path d="M17.8364 49.4644C17.9317 48.4679 17.7419 47.5142 17.306 46.6092C16.7988 45.5555 16.341 44.4762 15.7874 43.4478C15.1877 42.3329 15.1692 41.1083 14.9703 39.9138C14.941 39.7378 14.8667 39.5691 14.8133 39.3971L14.6081 39.3934C14.5305 39.5845 14.3791 39.779 14.3878 39.9661C14.4329 40.9253 14.3472 41.9378 14.6317 42.8281C15.0682 44.1932 15.6956 45.5136 16.3771 46.7801C17.1982 48.3063 16.96 49.6141 15.621 50.6749C15.0338 51.1403 14.4583 51.733 14.1398 52.3945C13.7974 53.1048 13.7632 53.9633 13.5945 54.7574C13.6436 54.7692 13.6927 54.7808 13.7415 54.7927C14.2847 53.1913 15.4513 52.1227 16.7698 51.1708C17.3445 50.7561 17.7663 50.1974 17.8364 49.4644Z" fill="#555555"/>
<path d="M62.8592 27.419C61.1289 25.5379 60.3305 23.2469 60.2607 20.6339C60.2209 19.1439 59.7115 17.6614 58.6988 16.4501C58.1575 15.8029 57.5563 15.1976 57.0818 14.5056C56.7042 13.9554 56.3774 13.3408 56.3725 12.6257C56.3673 11.8326 56.2978 11.0324 55.6622 10.4724C55.2487 10.1078 54.7482 9.82989 54.2589 9.56413C53.651 9.23413 53.1804 8.81985 52.8731 8.17379C52.4932 7.3752 52.0615 6.591 51.5601 5.86348C51.2783 5.45454 50.8262 5.15362 50.4239 4.83845C49.8491 4.38856 49.2626 3.94994 48.6541 3.54708C48.3508 3.34617 48.0008 3.16411 47.6485 3.09852C46.8818 2.95578 46.09 2.94153 45.3272 2.78425C44.551 2.62399 43.7637 2.43021 43.0433 2.11148C42.4015 1.82733 41.8793 1.27965 41.2431 0.975466C39.5875 0.184143 37.8759 -0.347957 36.0716 0.530912C35.4184 0.849192 34.8316 0.709713 34.2393 0.404936C33.9781 0.27065 33.7177 0.135028 33.4571 0H32.7062C32.2587 0.24127 31.8083 0.477792 31.3639 0.724848C30.7539 1.06435 30.1667 1.27609 29.4731 0.858096C29.1455 0.660599 28.7093 0.600058 28.3145 0.564595C27.5728 0.497971 26.9448 0.834058 26.3747 1.26481C26.0356 1.52137 25.7113 1.51825 25.3222 1.39346C24.8832 1.25279 24.416 1.09358 23.9675 1.11064C23.1508 1.14136 22.2933 1.16658 21.5356 1.4307C20.4544 1.8073 19.8534 2.77698 19.4946 3.8066C19.0084 5.2014 18.1731 6.13057 16.7016 6.48787C16.1018 6.63358 15.513 6.86283 15.0755 7.36318C14.0416 8.54549 13.2478 9.84784 12.9631 11.4241C11.7208 11.8099 10.7682 12.571 10.103 13.6565C9.706 14.305 9.42742 15.0248 9.04973 15.6865C8.54197 16.5762 8.56459 17.5792 8.38735 18.5362C8.06041 20.3008 7.36038 21.8466 5.87715 22.9315C4.98545 23.5837 4.46742 24.4702 4.12589 25.4691C3.79969 26.4225 4.12366 27.3475 4.9094 27.9791C5.01655 28.0656 5.11551 28.1622 5.25986 28.2913C5.31135 29.5026 5.35912 30.7316 5.41686 31.9602C5.49038 33.5214 5.47014 35.0743 5.13649 36.6126C4.80761 38.1277 4.54362 39.6791 4.79169 41.2077C5.08515 43.0181 5.58502 44.7901 6.49577 46.4269C6.93239 47.211 7.34982 48.0565 7.52244 48.9243C7.77185 50.1764 7.83748 51.4722 7.88957 52.7532C7.91829 53.4614 7.78197 54.1806 7.67974 54.889C7.5531 55.7674 7.33687 56.6355 7.25145 57.5169C7.19683 58.0786 7.16157 58.7194 7.37407 59.2153C8.06755 60.8328 9.0274 62.2848 10.448 63.3925C10.8374 63.6963 11.2092 64.0473 11.2205 64.6149C11.2379 65.4985 11.1794 66.3619 11.0285 67.2002L11.0287 67.1999C11.0287 67.1999 11.0284 67.2009 11.0284 67.2012C10.9549 67.6085 10.8598 68.0099 10.7403 68.4047C10.666 69.1867 10.7609 70.2687 11.4703 71.409C11.5765 71.5798 11.6754 71.7184 11.7538 71.868C12.8926 74.0409 14.4728 75.7722 16.7235 76.8432C17.2304 77.0847 17.7256 77.3522 18.2178 77.6231C19.3051 78.2226 20.1577 79.0013 20.2302 80.3476C20.2958 81.5639 20.6159 82.6778 21.2653 83.7415C21.9877 84.9246 22.9609 85.7118 24.2354 86.1878C24.448 86.267 24.6512 86.3949 24.8312 86.5356C25.5441 87.091 26.2662 87.6375 26.9466 88.231C27.6429 88.8382 28.3584 89.4431 28.9518 90.1447C30.0042 91.3896 31.2367 92.2968 32.8462 92.6629C34.4789 93.0346 36.1309 93.0638 37.7854 92.9194C38.2571 92.8786 38.7503 92.7443 39.1715 92.5307C39.9888 92.1162 40.7621 91.6155 41.5646 91.144C41.673 91.1834 41.8 91.2297 41.9954 91.3009C42.1436 91.1092 42.3103 90.9316 42.4326 90.7277C42.8079 90.1016 43.1712 89.4681 43.5305 88.8325C44.0579 87.9005 44.642 86.9933 45.0843 86.0223C45.6321 84.8201 46.0501 83.5599 46.5411 82.3316C47.1957 80.6941 48.1429 79.2362 49.2879 77.8975C49.5495 77.5917 49.7596 77.2394 49.9727 76.8961C50.5039 76.0394 50.7725 75.11 50.679 74.2988C51.3503 73.7006 51.9667 73.2629 52.4359 72.7026C52.8032 72.2637 53.0809 71.7473 53.4284 71.1461C53.4934 70.9308 53.5913 70.7575 53.729 70.6382C55.2277 69.3397 56.0027 63.3907 56.0031 63.387C55.9999 63.2588 55.9954 63.1333 55.9954 63.0128C56.3853 62.4328 56.7887 61.8931 57.127 61.3156C57.7016 60.3341 58.1995 59.3319 58.2647 58.1471C58.3285 56.9879 58.4041 55.8409 58.0224 54.7215C57.731 53.8679 57.6703 52.9945 57.6598 52.0971C57.6476 51.0648 58.1403 50.3506 58.9012 49.7627C59.1711 49.5542 59.4854 49.4039 59.7762 49.2214C60.9898 48.4601 61.683 47.3769 61.7645 45.9399C61.81 45.1321 61.5173 44.3994 61.091 43.7369C60.478 42.7847 60.4103 41.7604 60.545 40.6827C60.7502 39.0404 61.4749 37.5962 62.2087 36.1445C62.7951 34.9841 63.6695 33.9493 63.8271 32.5934C64.0385 30.7726 64.3235 29.0113 62.8592 27.419ZM56.8307 16.4842C57.2233 17.0431 57.5797 17.5507 57.97 18.1058C57.6653 19.8267 57.8867 21.5347 58.562 23.1922C58.5137 23.3441 58.4671 23.4904 58.4183 23.6437C56.8843 22.5618 56.0192 18.7175 56.8307 16.4842ZM57.3987 25.1854C57.6999 25.5476 57.9355 26.0039 58.0709 26.4558C58.4172 27.6116 59.0553 28.7018 58.9894 29.9556C58.9521 30.6666 58.8111 31.3717 58.741 32.0821C58.7189 32.3055 58.7753 32.5366 58.7957 32.7642C58.8827 32.8128 58.9702 32.8615 59.0576 32.9102C59.2436 32.6648 59.4295 32.4192 59.607 32.1849C59.2079 34.3139 57.6194 35.6524 56.1363 37.2329C56.242 36.8321 56.2966 36.5476 56.3916 36.2771C56.8514 34.9688 56.9965 33.6095 57.0727 32.2376C57.138 31.0609 56.7768 29.9939 56.2192 28.9825C55.882 28.3704 55.5165 27.7741 55.1415 27.1334C55.2116 26.9954 55.2689 26.8093 55.383 26.6688C56.2369 25.6161 56.0555 24.4481 55.7366 23.2886C55.5186 22.4948 55.1747 21.7359 54.943 20.9451C54.6608 19.9827 54.7378 19.0036 54.9476 18.0342C54.9681 17.9385 55.0451 17.855 55.0957 17.7657C55.0833 17.67 55.071 17.5741 55.0588 17.4784C55.071 17.4778 55.0833 17.4769 55.096 17.4763V17.764C55.0897 18.5039 54.9503 19.2719 55.1033 19.9769C55.5112 21.8555 56.1317 23.6625 57.3987 25.1854ZM55.1698 17.1155C55.1701 17.1115 55.185 17.1088 55.193 17.1054C55.1893 17.1204 55.1854 17.1352 55.1795 17.1598C55.1741 17.1376 55.1687 17.1264 55.1698 17.1155ZM55.7298 14.4473C54.1483 16.7079 53.3205 19.1441 54.2721 21.9251C53.8543 21.9429 53.6104 21.7581 53.4353 21.4291C53.2026 20.9918 52.9453 20.5673 52.7036 20.1346C52.1204 19.0913 52.2265 18.0105 52.5457 16.9243C52.587 16.7844 52.6855 16.646 52.7929 16.5437C53.1877 16.1679 53.5959 15.8063 54.0019 15.4422C54.4869 15.0068 54.9747 14.5744 55.4627 14.1397C55.4802 14.1601 55.5802 14.2751 55.7298 14.4473ZM51.0248 63.8305C51.5511 64.2715 51.5374 64.8223 51.3092 65.34C50.9565 66.1406 50.5256 66.9078 49.5264 67.0614C48.6745 65.4331 49.2034 64.4806 51.0248 63.8305ZM49.9756 48.0716C50.0645 47.956 50.1532 47.841 50.2421 47.7254L50.3211 47.7733C50.2583 47.9047 50.1951 48.0361 50.1318 48.1676C50.0799 48.1355 50.0276 48.1036 49.9756 48.0716ZM50.5207 44.6868C50.3802 45.1649 50.23 45.6408 50.1001 46.1217C49.8523 47.0386 49.252 47.6911 48.4508 48.1226C47.5866 48.5878 46.7771 48.2617 46.0605 47.7141C45.7939 47.5104 45.5586 47.242 45.3729 46.9609C44.4792 45.6098 43.6073 44.2442 42.7284 42.8833C42.6442 42.753 42.5147 42.6257 42.4945 42.4844C42.3446 41.4401 41.6708 40.6517 41.2064 39.7586C40.7627 38.9051 40.4025 38.0084 40.0069 37.1302C39.6493 36.3366 39.2933 35.5423 38.9371 34.7482C38.8764 34.6129 38.8182 34.4767 38.7585 34.3407C38.7853 34.2946 38.8121 34.2483 38.8387 34.202C39.3518 34.3404 39.8594 34.5044 40.3789 34.6115C41.5364 34.8498 42.693 35.1843 43.863 35.2497C45.2735 35.3287 46.6567 35.0021 47.9155 34.2927C47.9663 34.264 48.0328 34.2613 48.0831 34.2486C48.5097 34.6768 48.6234 35.5385 48.2442 36.1127C47.9856 36.5046 47.5901 36.8058 47.263 37.1542C46.8298 37.6155 46.3638 38.054 45.9879 38.5586C45.7334 38.9002 45.6279 39.3397 45.9242 39.8709C46.1149 39.669 46.2903 39.5399 46.3902 39.367C46.7067 38.8183 47.1518 38.4481 47.6673 38.0635C48.8696 37.1667 50.1485 36.3018 50.7564 34.9733C51.4283 34.7975 52.0064 34.6466 52.6438 34.4798C53.3849 34.9267 53.8627 35.611 53.9218 36.5568C54.0135 38.0343 53.7943 39.4435 52.996 40.7207C52.9667 40.6942 52.9373 40.6676 52.9078 40.6409C52.6603 40.8491 52.3861 41.0329 52.17 41.2693C51.2819 42.2427 50.8821 43.4569 50.5207 44.6868ZM44.0776 48.4427C44.0612 48.344 44.102 48.2359 44.1405 47.9532C44.3469 48.1544 44.5301 48.2485 44.5642 48.3805C44.7108 48.9519 44.8342 49.5312 44.562 50.1107C44.3383 50.5868 44.1724 51.0938 43.912 51.5479C43.7547 51.8212 43.4657 52.0189 43.2357 52.2508L42.9848 52.1482C42.9944 51.9861 42.9383 51.7659 43.0234 51.6712C43.8541 50.7448 44.2876 49.7031 44.0776 48.4427ZM45.3409 54.0109C45.8293 53.8931 46.3789 53.7603 46.9411 53.6245C47.5167 54.6581 47.245 55.5553 46.8388 56.4316C46.604 56.9383 46.3083 57.4172 46.0986 57.8013C45.3363 58.3296 44.6548 58.8016 43.9862 59.2647C43.9332 57.4721 44.034 55.6373 45.3409 54.0109ZM41.6601 51.5247C41.4683 51.4123 41.2693 51.2952 41.1572 51.2293C41.5558 49.9694 41.9372 48.7633 42.3295 47.5235C43.5459 48.6221 43.1758 50.8075 41.6601 51.5247ZM42.5298 67.3914L42.4993 67.3876L42.5196 67.3496L42.5298 67.3914ZM42.1177 58.3643C42.3232 59.2188 42.4253 60.0527 42.0387 60.8095C41.1062 62.6346 39.8134 64.1413 37.9585 65.0743C37.0361 64.6566 36.8318 64.211 37.1837 63.3137C37.4102 62.7359 37.6799 62.1736 37.9577 61.6177C38.4054 60.723 39.1054 60.1005 40.0085 59.6506C40.7281 59.2924 41.3882 58.8154 42.1177 58.3643ZM43.6499 69.6808C43.6916 69.7295 43.7567 69.8052 43.8681 69.9343C44.495 69.0499 45.1001 68.1961 45.7264 67.3128C46.0474 67.9878 45.9711 68.6107 45.555 69.1873C45.2636 69.5909 44.9816 70.0304 44.598 70.3298C44.2518 70.6 43.7719 70.8523 43.3533 70.8484C42.3028 70.8391 41.3476 71.1121 40.4234 71.5448C40.181 71.6582 39.992 71.8846 39.7795 72.0616C39.7795 72.0616 39.7795 72.0621 39.7794 72.0624C39.7789 72.0624 39.7788 72.0624 39.7783 72.0627C39.7761 72.0646 39.7736 72.067 39.7709 72.0689C39.7611 72.0692 39.7512 72.0696 39.7414 72.0699L39.7785 72.0625C39.7789 72.0619 39.7794 72.0618 39.7797 72.0615C39.9349 70.8855 40.7304 70.1144 41.8699 69.9856C42.4565 69.9194 43.0362 69.7881 43.6499 69.6808ZM44.9074 64.8545C44.8379 64.9743 44.7547 65.0856 44.5397 65.2178C44.3885 64.4813 44.1947 63.7506 44.0999 63.0072C44.0276 62.4398 43.9255 61.8004 44.1112 61.2928C44.4514 60.3628 44.6846 59.2736 45.9814 58.9166C45.7948 59.3016 45.6477 59.6395 45.4712 59.9612C45.2867 60.298 45.074 60.6197 44.9282 60.859C44.9937 61.2367 45.0382 61.4913 45.0938 61.8112C45.2684 61.7145 45.4224 61.6235 45.5815 61.5423C46.1774 61.2379 46.8068 60.9841 47.3628 60.6188C47.7921 60.337 48.1304 59.917 48.5088 59.5583C48.5081 59.5594 48.5071 59.5605 48.5057 59.5614C48.2624 59.992 48.0667 60.4584 47.7666 60.8438C47.2604 61.4928 46.6363 62.0535 46.1585 62.7202C45.6803 63.3879 45.3215 64.1408 44.9074 64.8545ZM48.0069 49.2457L48.039 49.2311L48.0322 49.2662L48.0069 49.2457ZM49.4328 29.9034C47.3823 29.3207 45.3986 29.2291 43.4234 29.9572C43.4709 29.6787 43.8027 29.3572 44.1896 29.1119C45.1419 28.5087 46.1957 28.3265 47.285 28.4313C48.0686 28.5066 48.8374 28.7252 49.6156 28.8663C50.251 28.9818 50.885 29.047 51.4781 28.6828C51.6808 28.5584 51.9036 28.427 52.0596 28.8116C51.7536 29.2974 51.2576 29.4965 50.7205 29.4725C50.1003 29.4446 49.4851 29.2999 48.8676 29.204C49.0364 29.4127 49.2062 29.6226 49.4328 29.9034ZM48.6797 30.5485C49.4176 30.6764 50.2019 30.5766 50.9615 30.5286C51.3622 30.5034 51.6043 30.6564 51.4784 31.0434C51.332 31.4918 51.1048 31.9182 50.8772 32.3352C50.639 32.7714 50.3565 33.1839 50.0971 33.6089C49.9285 33.8855 49.7662 34.1659 49.6011 34.4447C49.5455 34.4327 49.4898 34.4209 49.4342 34.4088C49.5577 33.4801 49.6811 32.5514 49.8087 31.5909C49.6782 31.517 49.5648 31.4529 49.3697 31.3427C49.2742 31.4602 49.1888 31.5649 49.0609 31.7221C47.9252 31.2059 46.7201 31.1888 45.4909 31.329C44.8715 31.3998 44.2434 31.3893 43.6224 31.4471C43.3642 31.4713 43.1165 31.5967 42.8582 31.6405C42.7066 31.6661 42.5432 31.6219 42.3848 31.6092C42.3711 31.5333 42.3573 31.4572 42.3433 31.3812C42.6513 31.2259 42.9445 31.0244 43.2695 30.9227C45.0403 30.3687 46.8327 30.2286 48.6797 30.5485ZM52.4181 52.9839C52.4688 52.9792 52.5198 52.9747 52.5709 52.9703C52.6334 53.1804 52.7196 53.3864 52.7544 53.6008C52.9358 54.716 53.4252 55.6999 54.04 56.6295C54.6958 57.6207 54.6162 58.691 53.7949 59.5586C53.5815 59.784 53.3608 60.0103 53.112 60.1937C52.6873 60.5062 52.2375 60.7854 51.7982 61.0788C52.8221 58.4253 52.113 55.6563 52.4181 52.9839ZM52.8624 48.2939C52.7358 48.7976 52.5136 49.1701 52.0535 49.4873C52.516 48.1857 53.3303 46.9884 52.7511 45.4816C52.888 45.5256 52.949 45.5454 53.0097 45.5647C53.0839 45.5886 53.1578 45.612 53.2416 45.6389C53.7035 45.5126 53.7339 45.2071 53.6178 44.8069C53.3368 43.8382 53.1766 42.8604 53.5334 41.8737C53.6059 41.6739 53.7178 41.4886 53.8619 41.301C53.7407 42.6044 53.7162 43.8767 54.5716 44.9358C54.2175 45.4851 53.855 45.9603 53.5885 46.4836C53.2935 47.0621 53.0194 47.668 52.8624 48.2939ZM54.8135 12.5537C54.8799 12.7021 54.9457 12.8487 55.0616 13.1075C54.6117 13.5909 54.1517 14.1088 53.6665 14.6014C52.828 15.4524 51.9743 16.2882 51.1246 17.1276C51.0935 17.1583 51.0429 17.1693 50.9972 17.1854C50.9949 17.1911 50.9927 17.1968 50.9905 17.2026C50.9881 17.2085 50.9857 17.2143 50.9839 17.2195C50.9896 17.2397 50.9878 17.2336 50.9839 17.2195C50.9817 17.2119 50.9792 17.2029 50.9763 17.1929C50.9829 17.1901 50.9903 17.1879 50.9973 17.1854C51.1659 16.7785 51.2798 16.3344 51.5243 15.9794C52.1593 15.0581 52.8463 14.1833 53.8321 13.5733C54.2126 13.3378 54.4759 12.9139 54.8135 12.5537ZM51.6973 7.67449C50.8196 7.47135 49.4461 5.99984 49.1217 5.01948C50.3269 5.59461 51.1829 6.46829 51.6973 7.67449ZM47.9612 5.20436C48.3426 5.66984 48.5521 6.27569 48.8343 6.82144C49.5784 8.26164 50.5126 9.04955 52.318 9.00785C52.762 9.39112 53.1834 9.75496 53.6418 10.1508C53.4697 10.3123 53.2539 10.4535 53.1228 10.6512C52.8697 11.0327 52.4971 11.4372 52.4759 11.8476C52.4387 12.5797 52.0338 12.972 51.4985 13.2617C51.0445 13.5075 50.5177 13.6205 49.9342 13.8232C50.0382 13.2773 50.1195 12.8515 50.2006 12.4257L50.0372 12.315C49.9184 12.4224 49.7695 12.5107 49.686 12.6407C49.3324 13.1909 49.0093 13.761 48.6541 14.3101C47.9072 15.4649 46.6784 15.9278 45.4738 16.3316C44.5234 16.6501 43.5 16.7838 42.4978 16.907C41.6026 17.0171 40.6921 17.0008 39.7012 16.9347C40.0041 16.6994 40.2728 16.3652 40.6163 16.2468C41.7649 15.8505 42.9229 15.446 44.1102 15.2046C45.5325 14.9154 46.7308 14.2348 47.5636 13.1375C49.2129 10.9634 49.0334 9.48787 47.8393 7.09209C47.5825 6.57646 47.3171 6.0638 47.0302 5.56449C46.7708 5.11281 46.4766 4.68072 46.1817 4.21421C46.9188 4.29137 47.5244 4.67108 47.9612 5.20436ZM37.3915 1.13839C37.7155 0.974131 38.2146 0.984814 38.5763 1.09833C39.3526 1.34212 40.1416 1.56158 40.7662 2.18597C41.2184 2.63794 41.8297 2.93204 42.369 3.29572C41.2766 4.31926 39.3831 4.6871 38.0586 4.04861C37.0388 3.55717 36.0669 2.96676 35.0893 2.42887C35.0465 2.15644 35.0206 1.98862 34.9863 1.76991C35.877 1.85597 36.6287 1.52537 37.3915 1.13839ZM35.3444 4.40132C38.3213 5.80383 41.2145 6.32376 43.8889 3.76506C44.0627 3.81224 44.2393 3.86017 44.4652 3.92145C44.8827 4.67241 45.3104 5.44148 45.7573 6.24542C45.4026 6.20876 45.0858 6.17671 44.7691 6.14333C43.0033 5.95637 41.3477 6.51532 39.6618 6.88227C37.8286 7.28142 35.9773 7.61988 34.0955 7.44449C33.3384 7.37386 32.6041 7.05677 31.8414 6.79844C33.266 6.3886 34.6347 5.92061 35.3444 4.40132ZM4.82384 26.3348C4.62591 25.132 5.15004 24.2095 6.06435 23.5386C7.71099 22.3305 8.69227 20.7186 8.94303 18.7422C9.15643 17.0603 9.77862 15.5698 10.5769 14.118C11.0168 13.3179 12.1138 12.445 12.8759 12.3012C12.8952 13.1658 12.7796 13.9747 12.1668 14.6525C11.8116 15.0452 11.4837 15.4646 11.1653 15.8882C10.7041 16.5021 10.6374 17.1656 10.9874 17.8946C11.0355 17.8072 11.094 17.7448 11.1046 17.6747C11.2816 16.5142 12.1101 15.7343 12.7628 14.8538C13.2491 14.1977 13.5689 13.4805 13.5988 12.6601C13.6673 10.796 14.3679 9.19733 15.6854 7.89572C16.033 7.55222 16.5381 7.30234 17.0155 7.16628C18.5929 6.71697 19.5791 5.7283 20.1339 4.2013C20.3512 3.60287 20.739 3.03961 21.1499 2.54327C21.7966 1.76174 22.7227 1.79869 23.6215 1.92927C24.2991 2.02794 24.9686 2.18686 25.6372 2.33836C26.224 2.47146 26.7276 2.32827 27.1447 1.91369C27.5487 1.51216 27.9743 1.47359 28.5142 1.63977C29.3736 1.90434 30.2339 2.23909 31.1703 2.08922C31.2407 2.07795 31.3295 2.10421 31.3932 2.14145C32.2133 2.62192 33.0305 3.10728 33.8827 3.61178C33.8129 3.73612 33.7659 3.84845 33.694 3.94163C33.5991 4.06479 33.4789 4.16791 33.3799 4.2881C32.4964 5.36298 31.3596 5.71673 29.9952 5.55232C29.1911 5.45528 28.3732 5.47679 27.5626 5.42427C27.2068 5.40127 26.8506 5.34369 26.5008 5.27143C25.7191 5.11059 25.0437 5.35749 24.7263 5.94939C24.5455 6.01423 24.3586 6.0813 24.1717 6.14837C24.6727 5.38584 25.368 4.90048 26.2238 4.66277C26.6739 4.53768 27.1502 4.50815 27.6008 4.38455C28.0685 4.2565 28.5196 4.06716 28.9781 3.90468C28.9668 3.82337 28.9553 3.74206 28.9442 3.66089C28.384 3.63374 27.8188 3.545 27.2652 3.591C25.4193 3.74487 24.0141 4.6506 22.9469 6.15253C21.9703 7.52729 20.6997 8.50142 19.0172 8.92876C18.1704 9.14362 17.3485 9.51962 16.7564 10.1958C16.4161 10.5844 16.1727 11.0652 15.9337 11.5295C15.8531 11.6863 15.9211 11.9194 15.9211 12.1178C15.9765 12.1286 16.0317 12.1395 16.0869 12.1504C16.3678 11.7127 16.5835 11.2081 16.9475 10.856C17.339 10.4773 17.8469 10.1939 18.3465 9.95809C18.833 9.72869 19.3727 9.61206 19.9211 9.43578C19.8205 9.9799 19.6724 10.4586 19.6581 10.9411C19.6395 11.5762 19.6772 12.222 19.7785 12.8492C19.9544 13.9377 19.7452 14.9629 19.3595 15.9609C18.685 17.7048 17.7238 19.267 16.2013 20.4026C15.4913 20.9322 14.6614 21.2525 13.7594 21.3315C13.7566 21.3355 13.7541 21.3396 13.7515 21.3436C13.7469 21.35 13.7426 21.3564 13.7381 21.3628C13.7393 21.353 13.7407 21.3432 13.742 21.3334C13.7478 21.3329 13.7535 21.3319 13.7594 21.3315C13.8555 21.1856 13.9398 21.0292 14.053 20.8977C14.9903 19.8098 15.9556 18.7451 16.8664 17.6358C17.4778 16.891 17.7362 15.9925 17.7238 15.0285C17.7176 14.5526 17.6808 14.0772 17.6588 13.6196C17.1897 13.4635 17.1418 13.6976 17.1066 13.9944C17.0292 14.6388 16.9912 15.2972 16.8207 15.918C16.6644 16.4872 16.2604 16.9117 15.7708 17.2946C14.5932 18.2153 13.3226 18.8906 11.8497 19.1982C11.4936 19.2725 11.1385 19.4633 10.8395 19.6786C9.91851 20.3417 8.89243 20.9473 8.5634 22.1277C8.38661 22.7619 8.38185 23.444 8.3058 24.1053C8.23288 24.7377 8.20967 25.379 8.08541 26.0008C8.00207 26.4174 7.78063 26.8068 7.56024 27.1853C7.56024 27.2941 7.5275 27.4171 7.56753 27.5083C7.63554 27.664 7.73242 27.9009 7.8476 27.9199C8.00966 27.9465 8.27991 27.8575 8.36488 27.7276C9.02785 26.7127 9.54632 25.6583 9.47876 24.3773C9.43114 23.4759 9.50703 22.551 10.0794 21.784C10.2856 21.5076 10.6039 21.3144 10.9336 21.1386C10.2639 22.5976 10.1771 24.1064 10.2019 25.6396C10.2148 26.4465 10.21 27.257 10.1496 28.061C10.0767 29.0392 9.23798 30.1065 7.85445 29.9507C7.23463 29.8808 6.99489 29.5958 7.12392 28.8691C7.41455 28.8895 7.73316 28.8702 8.02142 28.9547C8.1177 28.9829 8.13571 29.2763 8.20818 29.5081C8.44137 29.5625 8.57129 29.3954 8.5942 29.1289C8.62932 28.7221 8.43214 28.4307 8.061 28.2832C7.14043 27.9177 6.33877 28.3636 6.15498 29.3273C6.1468 29.3704 6.12671 29.411 6.00736 29.4644C5.94396 29.0309 5.88057 28.5971 5.81881 28.1747C6.82286 27.8318 7.14966 27.3764 7.18404 26.3359C7.20487 25.7046 7.4269 25.1587 7.8479 24.6816C7.9674 24.5466 8.01383 24.3478 8.08615 24.1949C7.64313 23.8606 7.39223 23.9051 7.07719 24.2868C6.64637 24.8091 6.4288 25.405 6.33728 26.0743C6.28222 26.476 6.11034 26.8618 6.00661 27.2035C5.34647 27.3166 4.92681 26.9615 4.82384 26.3348ZM11.7126 24.6968C11.8735 25.5519 12.0427 26.4055 12.2186 27.2578C12.4048 28.1609 12.1463 28.9325 11.4979 29.5601C10.7602 30.2743 9.92848 30.8306 8.83142 30.8539C9.60972 30.3944 10.3094 29.8106 10.5426 28.9458C10.7736 28.0892 10.806 27.1731 10.8712 26.2793C10.9501 25.1952 10.8886 24.0958 11.0376 23.0236C11.28 21.2806 12.383 20.2189 14.2443 19.8282C14.0237 20.0653 13.8621 20.2411 13.6983 20.415C12.9775 21.1798 12.3498 22.0018 11.9055 22.9672C11.6416 23.5395 11.6013 24.1037 11.7126 24.6968ZM6.06703 33.5516C6.02775 32.5748 5.97194 31.5989 5.91643 30.485C6.70054 31.5032 7.73792 31.6617 8.8588 31.6354C7.91918 32.9195 7.01082 34.1607 6.1026 35.4017V35.4029H6.10186C6.09977 35.4055 6.09784 35.4083 6.09576 35.411L6.07135 35.3941L6.10186 35.4029C6.10201 35.4024 6.10245 35.4021 6.1026 35.4017C6.09233 34.7853 6.09189 34.168 6.06703 33.5516ZM13.5799 22.8125C13.6715 22.6202 13.9142 22.4557 14.1242 22.3725C14.5267 22.2131 14.956 22.1214 15.5092 21.9631C15.6477 22.4771 15.8525 22.945 15.8892 23.4253C16.0239 25.1806 15.8342 26.9127 15.3406 28.6049C15.2377 28.9573 15.0581 29.2876 14.9136 29.6281C14.8684 29.6358 14.8233 29.6435 14.7779 29.6513C14.3093 28.716 13.8908 27.7511 13.3597 26.8525C12.5219 25.4348 12.9557 24.1215 13.5799 22.8125ZM5.85482 42.5338C5.26373 40.0658 5.30153 37.6645 6.78209 35.4816C7.35636 34.635 8.0607 33.8761 8.70641 33.0776C8.94169 32.7869 9.2536 32.53 9.3978 32.2C9.64454 31.6357 10.0923 31.3572 10.5956 31.0946C10.9651 30.9015 11.3122 30.6656 11.6684 30.4472C11.6733 30.4383 11.6782 30.4294 11.6834 30.4206C11.6864 30.4101 11.6896 30.3994 11.6928 30.389C11.6934 30.403 11.6943 30.4169 11.6951 30.4306C11.6861 30.436 11.6772 30.4417 11.6684 30.4472C11.2035 31.2578 10.7958 32.1088 10.2524 32.8631C9.66195 33.6828 8.95761 34.4238 8.27515 35.1739C6.98358 36.5932 6.62658 38.2838 6.8059 40.1256C6.82182 40.2895 7.0632 40.5403 7.22154 40.5581C7.50265 40.5894 7.57274 40.3283 7.57616 40.0655C7.58241 39.5676 7.61009 39.07 7.62572 38.5722C7.6598 37.4845 8.17008 36.6067 8.85493 35.8087C9.67773 34.8501 10.5595 33.9362 11.32 32.9311C12.1902 31.7814 12.6686 30.4461 12.8103 29.0024C12.8179 28.9249 12.8235 28.8464 12.8412 28.7711C12.8691 28.6526 12.9061 28.5362 12.9711 28.3054C13.2293 28.8101 13.5075 29.1923 13.3927 29.7109C13.1313 30.8931 12.5674 31.922 11.8074 32.8544C11.2255 33.5681 10.6697 34.3041 10.0663 34.9991C9.04839 36.1713 8.61251 37.5188 8.7201 39.0574C8.81877 40.4722 8.29271 41.7495 7.81174 43.0345C7.77438 43.1345 7.7028 43.2219 7.66069 43.2922C7.39833 43.3572 7.16112 43.4158 6.85679 43.4912C6.36273 43.4064 5.98935 43.0956 5.85482 42.5338ZM7.52214 44.404C8.68498 43.2284 8.94347 41.6953 9.27801 40.2006C9.36179 39.8278 9.34944 39.4221 9.317 39.0369C9.19631 37.6002 9.6688 36.38 10.5879 35.2942C11.1014 34.6875 11.5501 34.0253 12.0732 33.4274C12.8607 32.5278 13.3415 31.4767 13.7377 30.3616C13.9387 31.593 13.7788 32.7613 13.3334 33.925C12.8353 35.226 12.1793 36.4354 11.5326 37.663C11.0092 38.6561 10.7252 39.7791 10.38 40.859C10.2007 41.4196 10.1328 42.0148 9.99053 42.5881C9.70198 43.751 8.77487 44.4362 7.52214 44.404ZM8.37426 47.0897C8.63349 46.7606 8.86103 46.3573 9.1914 46.0724C10.4507 44.9849 10.5373 44.9062 11.2736 43.432C11.7317 44.2596 12.1778 45.066 12.6025 45.8332C11.7346 46.3886 10.8633 46.9626 9.97535 47.5088C9.32117 47.9113 8.90106 47.8024 8.37426 47.0897ZM10.7623 54.3608C10.2551 55.6489 9.93041 56.9785 9.93116 58.367C9.93145 58.8394 10.0353 59.312 10.0932 59.7842C10.0978 59.7858 10.1024 59.7885 10.1071 59.7896L10.0868 59.8149L10.0946 59.7942C10.0941 59.7911 10.0935 59.7877 10.0932 59.7842C9.64067 59.6338 9.01282 58.8085 9.06029 58.2888C9.16342 57.1594 9.36135 56.0385 9.45852 54.9091C9.60034 53.2639 9.76017 51.6074 8.99958 50.042C8.96594 49.9725 8.94943 49.8946 8.9271 49.82C8.86073 49.598 8.7954 49.3757 8.75106 49.2266C9.4173 48.9757 10.0481 48.7036 10.7016 48.5059C11.0627 48.3965 11.3776 48.5653 11.5269 48.9468C11.9387 49.9998 12.0126 51.07 11.6318 52.1425C11.3662 52.8906 11.0535 53.6218 10.7623 54.3608ZM11.5482 69.1576C11.5392 69.1394 11.5282 69.1217 11.5233 69.1024C11.522 69.0971 11.5391 69.087 11.5482 69.0788V69.1576ZM19.8177 69.9467C19.5617 70.3721 19.2956 70.7913 18.9717 71.3142C18.8469 70.8925 18.6859 70.5371 18.6441 70.1685C18.5446 69.2875 18.5685 68.3877 18.4108 67.5193C18.3118 66.9758 18.0216 66.4471 17.7332 65.9615C16.9863 64.7038 16.1958 63.4715 15.4148 62.2339C15.315 62.0756 15.169 61.9462 15.0443 61.8032C14.981 61.8306 14.9178 61.8582 14.8545 61.886C14.8725 62.1317 14.8233 62.4089 14.9205 62.6183C15.3325 63.5041 15.7488 64.3923 16.237 65.2378C16.8943 66.3759 17.3935 67.5489 17.3978 68.8844C17.4024 70.333 17.3237 71.7873 17.6924 73.2098C17.7856 73.569 17.909 73.9205 18.014 74.2614C17.2299 75.3106 16.2696 74.751 15.602 73.9536C15.001 73.2355 14.8495 72.344 14.894 71.4439C14.9523 70.2644 15.0697 69.0871 15.1943 67.9121C15.2965 66.9487 15.2721 66.0146 14.7929 65.1409C14.7371 65.0391 14.6578 64.9505 14.5894 64.856C14.5373 64.8581 14.4852 64.8603 14.4331 64.8627C14.4051 65.0287 14.3032 65.2285 14.3612 65.3555C14.6947 66.086 14.5996 66.855 14.453 67.568C14.1306 69.1373 13.7021 70.6839 13.8553 72.3164C13.8157 72.3272 13.7758 72.338 13.7363 72.3483C13.6015 72.1153 13.4741 71.8775 13.3304 71.65C12.2754 69.982 11.9872 68.1388 12.3775 66.2594C12.5551 65.4043 12.7673 64.5788 12.7146 63.7058C12.6875 63.2553 12.657 62.8015 12.579 62.3577C12.3357 60.974 12.7302 59.7712 13.5698 58.682C14.1021 57.9913 14.6685 57.3222 15.1453 56.595C15.4017 56.2041 15.5654 55.7234 15.6568 55.2609C15.7949 54.5629 15.8497 53.8465 15.9038 53.1351C15.9218 52.8997 15.8287 52.6559 15.7958 52.4695C15.4319 52.241 15.1373 52.0561 14.726 51.7981C14.7597 52.1178 14.7803 52.3202 14.8028 52.5226C14.8535 52.983 14.9614 53.4457 14.9419 53.9026C14.9175 54.4734 14.7365 54.9499 14.1033 55.2272C13.2264 55.6115 12.3126 56.0152 11.9382 57.0287C11.8538 57.2572 11.7592 57.482 11.575 57.7188C11.525 57.4897 11.4634 57.262 11.4263 57.0303C11.2447 55.8909 11.5284 54.8423 12.0372 53.8284C12.3235 53.2576 12.5579 52.6611 12.8138 52.0755C13.4575 50.6039 13.4732 49.1119 12.9383 47.5709C13.3344 47.3346 13.2252 47.0377 12.9168 46.6347C13.9998 46.682 14.8514 46.9657 15.5427 47.871C15.4979 47.1783 15.2176 46.7716 14.7944 46.4115C14.2404 45.9401 13.6157 45.4985 13.2159 44.9122C12.6884 44.1384 12.3173 43.2503 11.9474 42.3825C11.8165 42.0752 11.8506 41.6808 11.8714 41.3298C11.9646 39.7634 12.3879 38.3065 13.2575 36.9723C14.1649 35.5806 14.4527 33.9434 14.9473 32.391C15.0203 32.1617 14.9843 31.8978 14.998 31.6609C16.9336 29.7194 18.2131 24.9794 17.2133 20.8925C17.2814 20.8167 17.3549 20.7177 17.4447 20.6369C19.259 19.0067 20.2805 16.9239 20.7388 14.5835C20.8955 13.7835 20.7306 12.9096 20.6443 12.0765C20.5555 11.2176 20.5658 10.3825 21.0315 9.63491C21.1766 9.40151 21.4682 9.18235 21.7334 9.11454C22.4091 8.94137 22.9783 8.74388 23.4386 8.11385C24.0608 7.26183 24.9448 6.72781 26.103 6.84814C26.8628 6.92723 27.6511 6.84622 28.3881 7.00929C29.861 7.33558 31.3257 7.72538 32.7599 8.19219C34.1021 8.62888 35.4533 8.60766 36.793 8.39874C38.7188 8.09841 40.6245 7.67078 42.5377 7.2921C42.7046 7.25916 42.8649 7.18913 43.0253 7.12888C43.4682 6.96314 43.8285 7.0176 44.2367 7.32341C44.6766 7.65267 45.2177 7.86056 45.7349 8.07082C46.3324 8.31312 46.5637 8.72207 46.6153 9.35863C46.8071 11.7271 45.1025 13.4015 43.1406 13.8761C41.9416 14.1661 40.7127 14.3993 39.6698 15.0972C39.0969 15.4804 38.5994 15.9661 38.297 16.6298C38.1515 16.9488 37.9019 17.2509 37.6293 17.4765C36.8059 18.1586 35.7913 18.6224 35.2311 19.6009C35.1694 19.7089 35.0965 19.8132 35.0536 19.9285C34.952 20.1999 34.9517 20.4707 35.242 20.621C35.5306 20.7707 35.7766 20.6317 35.9181 20.3796C36.9876 18.4745 38.846 18.0955 40.7797 17.8865C41.9132 17.7639 43.063 17.7655 44.1858 17.5878C44.976 17.4627 45.7343 17.1333 46.504 16.8864C46.6734 16.8321 46.8311 16.7414 47.0857 16.626C46.7623 17.345 46.1558 17.5155 45.6147 17.774C45.5623 17.929 45.5136 18.0739 45.4619 18.2282C44.4499 18.2282 43.4317 18.1647 42.4251 18.245C41.2811 18.3365 40.1469 18.5548 39.0091 18.7229C38.8398 18.7478 38.6549 18.7653 38.5112 18.846C38.2698 18.9814 38.0555 19.1648 37.83 19.328C37.8571 19.3802 37.8845 19.4325 37.9116 19.4848C38.2915 19.4069 38.6713 19.329 39.0512 19.2508C40.5406 18.9443 42.0205 18.7957 43.5521 19.053C44.4772 19.2084 45.4583 19.1818 46.3946 19.0711C47.0372 18.9952 47.6463 18.6339 48.2704 18.4002C48.3067 18.3353 48.3437 18.2703 48.3798 18.2053C48.512 18.3369 48.6438 18.4684 48.8504 18.6742C48.4847 19.0695 48.2438 19.3366 47.995 19.5963C47.8233 19.7757 47.6104 19.9236 47.4683 20.1227C47.1075 20.6287 47.3575 21.2982 47.9594 21.4608C48.153 21.5132 48.3634 21.5426 48.5621 21.5281C49.8253 21.4356 50.5613 22.1737 51.0103 23.1935C51.4637 24.2234 51.4269 25.2995 50.8109 26.2868C50.2439 27.1949 49.7267 27.3038 48.6059 26.6636C48.9495 26.3889 49.2612 26.1586 49.5508 25.9037C49.9647 25.5394 50.2882 25.1292 50.439 24.566C50.7582 23.3738 49.9705 22.1904 48.7228 22.0664C48.1 22.0045 47.5668 22.5445 47.7381 23.1398C47.8438 23.5057 48.1085 23.8261 48.3551 24.2611C48.5139 23.9946 48.5972 23.8547 48.6794 23.717C48.6099 23.524 48.548 23.3518 48.4502 23.0801C48.6797 23.0058 48.884 22.9393 49.1188 22.8632C49.4001 23.5369 49.4452 24.1308 49.1054 24.6852C48.6969 25.3514 48.0517 25.5972 47.2917 25.5675C47.2185 25.3759 47.1533 25.2054 47.1066 25.0836C47.1478 24.8168 47.1819 24.5978 47.2158 24.3788C47.1706 24.3427 47.1253 24.3065 47.0801 24.2706C46.9522 24.3567 46.7762 24.4138 46.7046 24.5334C46.1983 25.3781 45.3958 25.7856 44.5065 26.0908C43.7872 26.3374 43.0822 26.6238 42.3644 26.8759C41.9698 27.0144 41.554 27.0948 41.1641 27.2438C40.6175 27.4528 40.085 27.6991 39.5489 27.9349C39.4387 27.9833 39.3392 28.056 39.1953 28.1406C39.2168 27.3994 39.7496 27.089 40.2221 26.7557C40.8996 26.2781 41.7189 26.2613 42.4979 26.104C44.5855 25.6825 45.9916 24.6844 46.3546 22.8409C46.665 21.2656 46.3678 20.6686 45.1924 20.1361C44.9163 20.011 44.5867 19.9835 44.2782 19.9605C44.1417 19.9503 43.9962 20.0629 43.8547 20.1199C43.8498 20.1689 43.845 20.2177 43.8402 20.2667C43.9688 20.3469 44.0905 20.4821 44.227 20.4987C45.69 20.678 45.7531 21.6468 45.495 22.682C45.1477 24.0762 43.9474 25.0081 42.3018 25.1538C40.9815 25.2707 39.8154 25.7596 38.736 26.4692C37.9656 26.9755 37.5619 27.7864 37.1829 28.5974C37.1061 28.7624 37.0282 28.927 36.9825 29.0246C36.6407 28.7239 36.3353 28.3823 35.9618 28.1489C35.6541 27.9566 35.2703 27.8767 34.9116 27.7767C34.6542 27.7048 34.3414 27.7328 34.3264 28.0458C34.3177 28.2222 34.5351 28.4541 34.7082 28.5859C35.1602 28.9303 35.6663 29.2064 36.1045 29.5659C36.2824 29.7119 36.34 30.0038 36.5162 30.3581C35.3948 29.9635 34.4458 30.0498 33.429 30.5418C33.5756 30.2516 33.6677 30.0695 33.76 29.8873C33.743 29.8404 33.7257 29.7934 33.7086 29.7464C33.5512 29.7792 33.3549 29.7633 33.2424 29.8526C32.5147 30.431 31.866 32.6855 32.1499 33.5944C32.2852 34.0266 32.5925 34.0677 33.0589 33.8993C33.1416 33.3633 33.2309 32.7864 33.3177 32.2245C33.9354 31.6144 35.7152 31.378 36.4507 31.7353C37.0753 33.3814 37.7375 34.9313 38.2381 36.5316C38.4768 37.2953 38.4143 38.1543 38.4711 38.9713C38.4789 39.0826 38.4202 39.2372 38.3376 39.3104C37.5741 39.9868 36.9026 40.8333 35.7813 40.923C34.991 40.9863 34.1951 41.0028 33.4021 40.9958C32.6959 40.9896 32.216 41.4269 31.6946 41.7823C31.2968 42.0531 30.9195 42.3578 30.5563 42.6742C30.361 42.8444 30.1682 43.0481 30.0573 43.2768C29.8759 43.6511 29.8214 44.065 30.0872 44.4344C30.3497 44.7993 30.7582 44.8507 31.1454 44.7572C31.6115 44.6447 32.0742 44.4807 32.5007 44.265C32.6456 44.1914 32.7814 43.8648 32.7369 43.7047C32.6561 43.4136 32.3782 43.4253 32.1127 43.5339C31.7063 43.6999 31.2926 43.8485 30.7844 44.0415C30.8298 43.7876 30.8219 43.6719 30.8701 43.5876C31.2795 42.8693 32.4985 42.5571 33.172 43.0413C34.1204 43.7229 35.1774 43.8427 36.2937 43.7743C37.3092 43.7121 38.2765 43.5186 39.0918 42.8537C39.16 42.7981 39.2593 42.7801 39.3496 42.7424C39.4119 42.7711 39.4771 42.7858 39.5203 42.8248C39.5752 42.8745 39.6125 42.9442 39.6506 42.996C39.2326 44.1283 37.0648 44.5702 34.1409 44.1233C34.1827 44.5502 34.2915 44.9173 34.7316 45.0786C35.3605 45.3089 35.9972 45.5181 36.6257 45.75C37.2553 45.9824 37.8787 46.2315 38.4667 46.4587C39.2054 47.0958 39.8971 47.7324 39.5673 48.8386C39.3289 49.6379 38.8856 50.2547 38.122 50.6816C37.9802 50.1951 37.9461 49.7753 38.0988 49.3009C38.2324 48.8853 38.2327 48.4089 38.1984 47.9667C38.1844 47.7831 37.9503 47.5036 37.7765 47.4696C37.4471 47.4051 37.3727 47.7207 37.3122 47.9918C37.2013 48.4894 37.1449 49.0153 36.9357 49.4698C36.7869 49.7927 36.4534 50.061 36.1444 50.2671C36.0059 50.3595 35.662 50.3174 35.5207 50.2024C35.0493 49.8182 34.5555 49.6309 33.9341 49.6404C33.1416 49.6523 32.6345 49.0527 32.5233 48.1134C32.4977 47.8978 32.5126 47.6457 32.4028 47.4806C32.2846 47.3033 32.029 47.0935 31.8572 47.1126C31.7053 47.1294 31.471 47.4426 31.4733 47.6223C31.4815 48.2394 31.5776 48.8556 31.7185 49.4642C31.6591 49.5802 31.5594 49.6919 31.5466 49.8129C31.4364 50.8532 31.0286 51.1569 29.9883 50.9553C29.9582 50.9495 29.9262 50.9544 29.9194 50.9544C28.9796 51.7239 28.0563 52.4872 27.1228 53.2375C26.9687 53.3614 26.7782 53.4617 26.5878 53.5169C25.6563 53.787 24.7781 54.9398 24.9058 55.96C24.9308 56.1599 24.8958 56.3669 24.919 56.5672C24.971 57.01 24.8528 57.3713 24.5651 57.7291C23.449 59.1172 23.6138 60.6543 24.1055 62.2157C24.1427 62.3341 24.1927 62.4482 24.2343 62.5648C24.2385 62.5764 24.2261 62.5933 24.1959 62.687C23.5785 61.9591 22.9885 61.2433 22.6947 60.3893C22.3782 59.4702 22.2429 58.4889 22.0256 57.5353C21.9813 57.3409 21.9241 57.149 21.7848 56.9581C21.2813 57.5486 21.4058 58.2615 21.3153 58.9474C21.1592 58.9066 21.0125 58.8633 20.8632 58.8301C19.9705 58.6315 19.2069 58.9635 18.7593 59.7573C18.6297 59.9876 18.5212 60.2315 18.4243 60.4775C18.0298 61.4787 18.603 62.2641 19.6678 62.2736C20.0965 62.2771 20.5018 62.3622 20.8494 62.0258C21.0621 61.8206 21.2984 61.5784 21.0991 61.3095C20.9763 61.1439 20.6556 61.0417 20.4306 61.0525C20.0681 61.07 19.8778 60.9519 19.7519 60.6283C19.6369 60.3321 19.6157 60.0849 19.9278 59.9133C20.8722 60.0084 22.1378 61.2261 22.1472 62.427C22.1578 63.7887 22.0271 65.1283 21.6719 66.4522C21.3207 67.7667 20.4986 68.8157 19.8177 69.9467ZM39.3855 54.3933C38.7369 54.535 38.0927 54.766 37.4382 54.8013C35.8199 54.8884 34.1961 54.8866 32.5748 54.9194C32.3883 54.9233 32.2016 54.9199 31.8688 54.9199C32.4748 53.8771 33.4437 53.5481 34.39 53.2642C36.2037 52.7201 37.8985 52.9489 39.3855 54.3933ZM29.5393 89.5912C29.0159 88.9609 28.3885 88.4116 27.7776 87.8592C27.0917 87.2389 26.3701 86.6581 25.6671 86.0565C25.5872 85.9878 25.5281 85.8952 25.4653 85.8208C25.8496 85.7419 26.2176 85.6665 26.5855 85.591C27.0044 85.5051 27.137 85.2335 27.1932 84.8249C27.3733 83.5187 27.7309 82.2681 28.4572 81.2837C29.4217 80.9709 30.2717 80.6951 31.1216 80.4194C29.4839 81.6017 28.6446 83.2121 28.334 85.1369C28.297 85.3657 28.2337 85.6263 28.3075 85.8266C28.3776 86.0155 28.5904 86.2312 28.78 86.2787C29.0643 86.3498 29.2358 86.1272 29.2504 85.8334C29.2701 85.4399 29.3138 85.0602 29.7502 84.7002C29.7936 85.0417 29.8384 85.2999 29.8563 85.56C29.8775 85.8707 29.8755 86.183 29.8836 86.4948C29.8924 86.8356 30.0451 87.0841 30.3979 87.1066C30.7846 87.1318 30.9009 86.8458 30.92 86.5228C30.9755 85.587 31.2743 84.7326 31.7072 83.9034C32.3059 82.757 33.1564 81.8504 34.196 81.1014C34.4137 80.9445 34.6256 80.78 34.8398 80.6187C34.8463 80.6081 34.8527 80.5979 34.8591 80.5872L34.8713 80.574L34.866 80.5989C34.8572 80.6052 34.8487 80.6122 34.8398 80.6187C34.2808 81.5205 33.7301 82.4279 33.1559 83.3201C31.8629 85.3304 31.2178 87.4946 31.5898 89.8918C31.619 90.0791 31.8703 90.2319 32.0185 90.4009C32.1486 90.2313 32.3901 90.0617 32.3909 89.8914C32.3974 88.4349 33.193 87.3665 34.1043 86.3632C34.2825 86.1671 34.6106 86.1068 34.8697 85.984C34.9155 86.0097 34.9615 86.0355 35.0075 86.0613C34.9356 86.701 34.8817 87.3435 34.7857 87.9798C34.7115 88.4705 34.5469 88.9487 34.4883 89.4406C34.3838 90.3167 34.399 91.186 35.0112 91.9762C32.7712 91.9871 30.9493 91.2896 29.5393 89.5912ZM35.7879 73.433C35.6502 74.4982 35.5477 75.6108 34.8384 76.4625C33.8902 77.601 32.7559 78.5461 31.3161 79.0439C30.877 79.1958 30.4304 79.3261 29.9089 79.4916C30.1887 78.9955 30.4252 78.5766 30.6599 78.1609C32.0162 77.8004 33.229 77.193 33.9967 75.9483C34.5889 74.9885 35.1247 73.9941 35.6928 73.0025C35.7191 73.1136 35.8075 73.2806 35.7879 73.433ZM31.4218 75.9445V73.9213C32.0025 73.3554 32.6647 72.8026 33.2102 72.1523C33.747 71.5126 34.1656 70.7742 34.6481 70.0613C34.9426 71.4457 33.3754 74.9948 31.4218 75.9445ZM35.9252 62.7157C35.995 61.6054 36.0639 60.4952 36.1362 59.3852C36.1423 59.2927 36.2092 59.1908 36.1855 59.1123C36.1057 58.8462 36.0714 58.483 35.8834 58.3532C35.5914 58.1515 35.3506 58.4674 35.2335 58.7097C34.9913 59.2111 34.7375 59.7244 34.6127 60.2614C34.3484 61.3969 34.2252 62.5671 33.9214 63.69C33.7565 64.2991 33.4378 64.9278 33.0183 65.3961C31.6471 66.9265 30.9828 68.7007 31.0169 70.7216C31.0295 71.4792 30.8236 72.1002 30.3523 72.6497C29.9851 73.0773 29.6951 73.5207 29.7641 74.1112C29.0818 74.7346 28.7333 75.5333 28.4325 76.3588C28.3794 76.5048 28.3308 76.6554 28.3047 76.8079C28.2543 77.1047 28.2758 77.3937 28.632 77.4813C28.9806 77.5676 29.1171 77.3333 29.247 77.051C29.5315 76.4319 29.8457 75.8262 30.1603 75.2217C30.2301 75.0874 30.3514 74.9801 30.5607 74.8772C30.5392 75.2324 30.5725 75.6011 30.4856 75.9399C30.2049 77.0345 29.6393 77.96 28.8087 78.7491C28.0238 79.495 27.1804 80.1268 26.2514 80.6942C25.2905 81.2817 24.4526 82.0721 23.5767 82.7931C23.4214 82.9207 23.3441 83.1428 23.19 83.3854C22.9068 82.9217 22.6441 82.4917 22.4386 82.1552C22.8709 81.0436 23.8994 80.8442 24.7099 80.3655C26.2514 79.4558 27.0395 78.0469 27.3675 76.3706C27.562 75.3762 27.5812 74.3486 27.0075 73.4232C26.9192 73.2809 26.8319 73.1079 26.6971 73.0326C26.5572 72.9547 26.3072 72.9038 26.2021 72.9782C26.0917 73.0561 26.0103 73.3309 26.0637 73.4591C26.5099 74.5298 26.063 75.4473 25.5804 76.3451C25.2595 76.9424 24.35 77.2691 23.6877 77.164C22.6527 76.9993 21.7921 76.5241 21.1162 75.7497C20.9007 75.5027 20.7603 75.1364 20.7137 74.8065C20.4811 73.1629 21.2241 71.7407 21.7887 70.2732C22.2859 68.9815 22.8249 67.69 23.1444 66.3504C23.3855 65.3394 23.3089 64.2533 23.3731 63.2105C23.6919 63.4813 24.0564 63.7721 24.3991 64.0868C24.914 64.5598 25.1205 65.1207 24.8695 65.8149C24.5518 66.6933 24.2617 67.5815 23.9479 68.4614C23.7775 68.9393 23.7636 69.3082 24.0953 69.8062C24.8652 70.9614 25.2838 71.3986 26.4999 71.7445C26.6547 71.9434 26.8097 72.1426 26.9648 72.3412C27.0054 72.3253 27.046 72.3091 27.0867 72.2928C27.0477 71.9631 27.032 71.6288 26.9657 71.3046C26.6631 69.8255 26.8856 68.3523 27.0364 66.8848C27.0989 66.2759 27.3346 65.6827 27.5121 65.0887C27.7989 64.1304 28.0333 63.1737 28.0181 62.1553C28.0054 61.2904 28.1243 60.4243 28.1592 59.5574C28.1894 58.7996 28.7314 58.4265 29.285 58.1281C30.2845 57.5893 31.2948 57.0383 32.3614 56.665C33.2784 56.3439 34.2728 56.181 35.2459 56.0979C36.3952 55.9997 37.5589 56.0385 38.7155 56.0629C39.6578 56.0826 40.4816 56.5215 41.4403 56.9097C41.1315 57.178 40.8971 57.3887 40.6553 57.5902C39.7691 58.3288 38.8604 59.0427 37.9981 59.808C37.1912 60.524 36.6589 61.4451 36.2273 62.4242C36.1801 62.531 36.1246 62.6338 36.0731 62.7389C36.024 62.7306 35.9746 62.7233 35.9252 62.7157ZM36.152 65.1451C36.3767 65.4052 36.516 65.5665 36.688 65.7657C36.4874 65.9075 36.3066 66.0351 36.0356 66.2265C36.077 65.8428 36.1069 65.5639 36.152 65.1451ZM36.1897 68.1161C36.7705 67.5327 37.4029 67.1086 38.1784 66.7467C39.1889 66.2745 40.3383 66.2855 41.2898 65.6616C39.9542 67.2579 38.1106 68.3098 36.7608 70.0104C36.0711 69.5523 36.459 68.7411 36.1897 68.1161ZM37.3946 83.1658C37.3147 82.2754 37.5437 81.4364 37.7793 80.608C38.0184 79.7665 38.3219 78.9431 38.6307 78.0113C38.6307 78.628 38.6122 79.166 38.6405 79.7017C38.6506 79.8971 38.7243 80.198 38.8543 80.2537C39.049 80.337 39.3721 80.3282 39.5462 80.2151C40.0502 79.8867 40.3596 79.3746 40.4013 78.7795C40.4413 78.2092 40.3703 77.6308 40.342 77.0565C40.2858 75.9114 40.4456 74.8442 41.4433 74.094C41.5829 73.9892 41.7717 73.9493 42.0925 73.8143C42.1174 74.8649 42.2417 75.8155 42.1364 76.7404C42.0028 77.9141 41.7134 79.0816 40.88 80.0075C40.6754 80.2351 40.4435 80.4568 40.1827 80.6117C39.0801 81.2661 38.1244 82.0696 37.3946 83.1658ZM39.9323 90.9856C39.5667 90.6835 39.1841 90.3679 38.8018 90.0521C38.8146 90.0042 38.8277 89.9565 38.8408 89.9088C39.8346 89.9905 40.7546 89.8668 41.4311 89.0238C41.3348 90.1545 41.3348 90.1545 39.9323 90.9856ZM41.4784 85.2245C41.3132 85.6855 41.3227 86.2059 41.2233 86.6932C41.1562 87.0232 41.0879 87.3687 40.9333 87.6612C40.5621 88.3633 39.2685 88.3745 38.7706 87.7433C38.2594 87.0954 38.3213 86.366 38.3981 85.6433C38.5156 84.5361 38.8649 83.5225 39.7163 82.726C40.4197 82.0684 41.0874 81.372 41.7643 80.6866C41.916 80.5326 42.0604 80.3642 42.1731 80.181C43.1411 78.6088 43.4764 76.9081 43.2662 75.075C43.2139 74.6163 43.3555 74.1357 43.4081 73.6652C43.4788 73.6587 43.5496 73.6521 43.6204 73.6456C44.0706 74.3563 44.3453 75.1287 44.3246 75.9902C44.2818 77.7791 43.7561 79.4493 43.0798 81.0885C42.5162 82.4551 41.9772 83.8332 41.4784 85.2245ZM43.2648 86.3596C43.6338 85.3723 43.9588 84.5027 44.2835 83.6334C44.5648 84.4575 44.0965 85.6855 43.2648 86.3596ZM44.164 82.0884C43.9981 82.2217 43.7494 82.4211 43.5005 82.6202C43.4721 82.5953 43.4432 82.5696 43.4142 82.5445C43.7081 82.0752 43.7884 81.4652 44.3861 81.1963L44.376 81.1692L44.3932 81.1871C44.327 81.4529 44.2588 81.7188 44.164 82.0884ZM44.7041 80.7556C44.6431 80.7883 44.5635 80.7862 44.4923 80.8006L44.5025 80.8286L44.4861 80.8099C45.9043 78.6856 46.076 76.3798 45.4712 73.9674C45.3163 73.3491 45.1226 72.7406 44.9339 72.0831C47.1159 70.9298 47.7335 68.9751 47.5774 66.6362C47.6375 66.6375 47.6975 66.6387 47.7578 66.6397C47.8773 66.8604 48.0733 67.0723 48.1008 67.3037C48.1606 67.8102 48.2311 68.348 48.1222 68.8341C47.9429 69.6348 47.7104 70.4468 47.3467 71.1777C46.7381 72.4013 46.5424 73.6834 46.4905 75.0168C46.4611 75.762 46.492 76.4852 46.9734 77.1048C47.2028 77.3998 47.4546 77.6777 47.6968 77.9643C46.672 78.8043 45.9681 80.0793 44.7041 80.7556ZM48.3384 77.3538C47.9311 76.3703 48.4602 74.5156 49.1977 74.3838C49.013 75.4044 48.948 76.4414 48.3384 77.3538ZM51.0437 71.1446C51.0417 71.1455 51.0397 71.1462 51.0376 71.147C50.4778 71.8941 49.8366 72.549 48.988 72.988C48.3684 73.3086 48.0881 73.9155 47.8099 74.511C47.7459 74.6473 47.7024 74.7935 47.6494 74.9353C47.6026 74.9156 47.5554 74.896 47.5085 74.8763C47.9192 73.8889 48.33 72.9013 48.6626 72.102C49.5852 71.731 50.3117 71.439 51.0376 71.147C51.0394 71.1446 51.0411 71.1425 51.0429 71.1406C51.0417 71.1321 51.04 71.1237 51.0388 71.1154C51.0429 71.12 51.0472 71.1247 51.0513 71.1293C51.0488 71.1332 51.0457 71.1365 51.0429 71.1406C51.0433 71.1419 51.0435 71.1434 51.0437 71.1446ZM54.1334 68.2228C54.1087 68.2149 54.0836 68.2071 54.0586 68.1989C54.0794 68.1419 54.1003 68.0854 54.1212 68.0289C54.141 68.0345 54.1611 68.0404 54.1812 68.0464C54.1653 68.1054 54.1497 68.164 54.1334 68.2228ZM54.8675 62.6862C54.6497 63.079 54.384 63.4534 54.0939 63.7969C53.1539 64.9087 52.6056 66.213 52.2969 67.6026C52.1124 68.4346 51.672 68.9696 50.9446 69.3189C50.5411 69.5125 50.1214 69.6728 49.6282 69.8825C49.6583 69.2682 49.6821 68.7757 49.7058 68.2884C52.1792 67.1246 53.0002 65.6095 52.1301 63.3391C52.6876 62.894 53.28 62.4859 53.7912 61.9943C54.302 61.5029 54.7321 60.9276 55.2107 60.3743C55.4973 61.191 55.2716 61.9588 54.8675 62.6862ZM55.1787 58.28C55.2073 58.3444 55.1929 58.3123 55.1787 58.28C55.1686 58.3144 55.1589 58.3487 55.1787 58.28ZM58.2909 48.8979C58.0702 49.1085 57.8398 49.3182 57.6205 49.5388C56.4875 50.6793 56.498 52.1223 56.7151 53.5312C56.9108 54.8021 57.3368 56.0375 57.6557 57.2677C57.2383 58.0061 57.7309 58.9445 57.009 59.6117C56.7594 59.1406 56.5084 58.6676 56.2582 58.1939C56.1999 58.0835 56.1529 57.9668 56.0871 57.861C55.5493 56.9931 55.0524 56.0957 54.4553 55.2705C53.8927 54.4928 53.8607 53.5997 53.7754 52.732C53.6578 51.5409 53.7467 50.3531 54.6425 49.4084C54.8165 49.2248 55.0485 49.096 55.254 48.9419C55.2882 48.9862 55.3225 49.0306 55.3568 49.075C54.6677 51.7392 54.8351 54.2844 55.8043 54.8898C55.8668 53.8351 56.0173 52.8129 55.9653 51.8015C55.8932 50.396 56.3832 49.2101 57.1001 48.0692C57.1489 47.9918 57.2147 47.9248 57.3166 47.7984C57.6364 47.9127 57.9633 48.0293 58.291 48.1464L58.2909 48.8979ZM60.5602 46.9265C60.599 47.4252 60.247 47.7903 59.6735 47.9125C59.7002 47.7021 59.6658 47.4922 59.7531 47.368C60.1037 46.8719 60.0287 46.3489 59.8579 45.845C59.6592 45.2572 59.3923 44.6916 59.1412 44.1221C58.9269 43.6359 58.769 43.1529 59.0308 42.5013C59.1902 42.6764 59.2856 42.739 59.3205 42.8258C59.632 43.5999 59.9719 44.3657 60.2237 45.1593C60.4039 45.7279 60.5139 46.3314 60.5602 46.9265ZM59.8383 37.3812C59.7452 37.2437 59.6336 37.0781 59.5372 36.9352C58.99 36.8088 58.7805 36.961 58.8187 37.4673C58.8662 38.0886 58.9659 38.7064 59.0001 39.3283C59.0224 39.7361 58.9692 40.148 58.9498 40.5556C58.7123 40.6228 58.5477 40.6366 58.4195 40.7123C58.0953 40.9023 57.7554 41.0855 57.4822 41.3365C57.1828 41.6118 56.9105 41.81 56.4677 41.5859C56.3072 41.0169 56.5392 40.4854 56.7145 39.9698C56.8575 39.5491 57.1218 39.1691 57.3373 38.7735C57.4794 38.5135 57.6734 38.2735 57.7682 37.9985C58.004 37.3149 58.5375 36.921 59.0931 36.5387C59.4391 36.3007 59.7848 36.062 60.1371 35.8338C61.8794 34.7044 62.6706 33.0973 62.5715 31.0392C62.5672 30.9465 62.5711 30.8534 62.5711 30.695C62.7422 30.7757 62.8736 30.8377 62.9986 30.8968C63.612 33.1446 61.5115 36.4117 59.8383 37.3812Z" fill="#555555"/>
<path d="M50.2664 29.6627C50.2731 29.6638 50.2796 29.665 50.286 29.666C50.2826 29.6616 50.2791 29.6572 50.2754 29.653L50.2664 29.6627Z" fill="#555555"/>
<path d="M50.267 29.6635L50.2763 29.6532C50.2691 29.6513 50.2616 29.6495 50.2551 29.6479C50.259 29.6527 50.263 29.658 50.267 29.6635Z" fill="#555555"/>
<path d="M50.2553 29.6481C50.2371 29.6434 50.2279 29.6412 50.2553 29.6481Z" fill="#555555"/>
<path d="M21.0088 29.0065C21.5715 28.8223 22.1183 28.5602 22.6947 28.4523C24.2553 28.1603 25.8379 28.2181 27.3942 28.449C28.7536 28.6506 29.4792 29.0494 29.5635 30.5013C29.5855 30.8808 29.841 31.2858 30.0858 31.6051C30.6802 32.3806 31.3288 33.115 31.9618 33.8603C32.0724 33.9903 32.2144 34.0935 32.4593 34.315C32.6024 34.0489 32.7626 33.8623 32.7999 33.6537C32.8469 33.391 32.812 33.1083 32.7806 32.8378C32.627 31.509 33.0461 30.4752 34.284 29.8483C34.5612 29.708 34.7128 29.4848 34.5848 29.1786C34.4546 28.8676 34.1879 28.8654 33.8911 28.9245C33.5488 28.9927 33.1858 29.1006 32.8542 29.0484C32.2416 28.9516 31.6343 28.7836 31.0444 28.5864C29.802 28.1716 28.6565 27.456 27.3026 27.3901C26.7414 27.3625 26.179 27.3569 25.6187 27.3178C23.841 27.1944 22.2212 27.674 20.7169 28.5899C20.5862 28.6693 20.5053 28.8303 20.4014 28.9534C20.434 29.0119 20.4664 29.0706 20.499 29.1292C20.6691 29.089 20.8432 29.0607 21.0088 29.0065Z" fill="#555555"/>
</g>
<defs>
<filter id="filter0_d_65_71" x="0" y="0" width="68" height="101" filterUnits="userSpaceOnUse" color-interpolation-filters="sRGB">
<feFlood flood-opacity="0" result="BackgroundImageFix"/>
<feColorMatrix in="SourceAlpha" type="matrix" values="0 0 0 0 0 0 0 0 0 0 0 0 0 0 0 0 0 0 127 0" result="hardAlpha"/>
<feOffset dy="4"/>
<feGaussianBlur stdDeviation="2"/>
<feComposite in2="hardAlpha" operator="out"/>
<feColorMatrix type="matrix" values="0 0 0 0 0 0 0 0 0 0 0 0 0 0 0 0 0 0 0.25 0"/>
<feBlend mode="normal" in2="BackgroundImageFix" result="effect1_dropShadow_65_71"/>
<feBlend mode="normal" in="SourceGraphic" in2="effect1_dropShadow_65_71" result="shape"/>
</filter>
</defs>
</svg>
