<svg width="93" height="93" viewBox="0 0 93 93" fill="none" xmlns="http://www.w3.org/2000/svg">
<g filter="url(#filter0_d_23_1832)">
<path d="M87.4928 63.5113C88.3266 61.3313 89.1379 59.039 88.9802 56.6567C88.8675 54.9936 87.7858 53.5553 86.5463 52.499C86.5012 52.3192 86.4562 52.1394 86.3886 51.9821C86.0956 51.2405 85.5547 50.5662 84.9012 50.0044C84.3603 47.8019 83.3687 45.7118 81.9715 43.9364C80.9574 42.6329 79.7405 41.5316 78.4785 40.4529C76.4502 39.1943 74.2192 38.2054 72.0557 37.3065C72.0332 37.284 72.0332 37.2391 72.0783 37.2615C73.7459 37.711 75.4136 38.2504 76.9911 38.9246C76.315 35.6883 73.5656 32.6319 70.9965 31.0137C67.526 28.8337 63.4019 28.4292 59.368 28.3168C58.1511 28.2943 56.9341 28.2269 55.7623 28.137C55.7623 28.137 55.7397 28.1145 55.7623 28.1145C56.6637 27.9797 57.5877 27.8673 58.5116 27.7325C56.9341 26.6987 55.3115 25.7323 53.6664 24.8783C53.7566 23.5748 53.7791 22.2713 53.7791 20.9678C53.9594 20.6756 54.0946 20.361 54.1622 20.0238C54.2749 19.4845 54.3425 18.9451 54.365 18.4057C56.5736 18.1135 56.2806 14.8548 56.0778 13.1692C56.0102 12.6299 55.6946 12.2253 55.1538 12.3826C55.0862 12.4051 55.0186 12.4276 54.951 12.4725C54.7481 11.4163 54.9059 10.4274 55.289 9.32616C55.5594 8.58451 55.8749 7.77543 55.8299 6.98884C55.8073 6.38204 55.6947 5.66287 55.1989 5.21339C54.5453 4.60659 53.6439 4.44926 53.2608 3.57276C52.6974 2.33669 52.5622 0.92082 51.0523 0.53876C49.9705 0.26907 48.9113 0.875868 47.8522 0.358962C47.3789 0.134221 46.9733 -0.0680467 46.5 0.0218499C46.0267 -0.0680467 45.6211 0.134221 45.1478 0.358962C44.0887 0.875868 43.0295 0.26907 41.9478 0.53876C40.4378 0.92082 40.2801 2.33669 39.7392 3.57276C39.3561 4.44926 38.4321 4.60659 37.8011 5.21339C37.3279 5.66287 37.2152 6.38204 37.1701 6.98884C37.1251 7.79791 37.4631 8.60698 37.711 9.32616C38.0941 10.4049 38.2519 11.4163 38.049 12.4725C37.9814 12.4276 37.9138 12.4051 37.8462 12.3826C37.3053 12.2253 36.9898 12.6299 36.9222 13.1692C36.6969 14.8773 36.4264 18.1135 38.635 18.4057C38.68 18.9676 38.7251 19.5069 38.8378 20.0238C38.9054 20.361 39.0406 20.6756 39.2209 20.9678C39.2209 22.2713 39.266 23.5748 39.3336 24.8783C37.6659 25.7323 36.0659 26.6987 34.4884 27.7325C35.4123 27.8673 36.3363 27.9797 37.2377 28.1145C37.2603 28.1145 37.2377 28.137 37.2377 28.137C36.0659 28.2269 34.8489 28.2943 33.632 28.3168C29.5981 28.4292 25.4515 28.8337 22.0035 31.0137C19.4344 32.6319 16.685 35.6883 16.0089 38.9246C17.5864 38.2504 19.2541 37.711 20.9217 37.2615C20.9668 37.2615 20.9668 37.3065 20.9443 37.3065C18.7808 38.2054 16.5498 39.1943 14.5215 40.4529C13.2595 41.5316 12.0651 42.6329 11.0285 43.9364C9.63125 45.7118 8.63967 47.8019 8.0988 50.0044C7.44526 50.5662 6.9044 51.2405 6.61143 51.9821C6.54383 52.1619 6.49875 52.3417 6.45368 52.499C5.21421 53.5553 4.13248 55.0161 4.0198 56.6567C3.86205 59.0165 4.67334 61.3313 5.50717 63.5113C6.40861 65.8487 7.42273 68.1635 7.67062 70.6806C7.76076 71.5571 7.85091 72.6583 8.25655 73.4674C8.23402 73.6472 8.21148 73.8494 8.18895 74.0292C7.96359 75.535 7.31005 76.9509 7.58048 78.5016C7.82837 79.9624 8.14388 81.7379 8.79742 83.0639C9.02278 83.4909 9.4735 83.6032 9.92421 83.5583C9.85661 82.8166 9.96929 82.0301 10.082 81.3558C10.1045 81.2884 10.1946 81.2884 10.2172 81.3558C10.3975 82.1649 10.3073 83.3111 10.6003 84.1876C10.9609 84.5022 11.4341 84.5696 11.8848 84.5022C11.8623 83.7156 11.9299 82.9065 11.9975 82.1199C11.9975 82.03 12.1327 82.0076 12.1553 82.0975C12.2679 82.7492 12.313 83.3785 12.4032 84.0302C12.4482 84.2999 12.4708 84.5696 12.5158 84.7944C12.6285 84.8618 12.7637 84.9067 12.944 84.9517C13.3497 85.0416 13.868 85.0191 14.2286 84.7719C14.2511 83.9628 14.2962 83.1762 14.4089 82.3896C14.4089 82.3672 14.4539 82.3672 14.4539 82.3896C14.5891 83.1538 14.6568 83.9404 14.7018 84.727C15.2652 84.8393 15.8962 84.8168 16.3469 84.5022C16.3469 83.401 16.4371 82.2548 16.7075 81.1985C16.6624 81.1985 16.6174 81.1985 16.5723 81.176C16.4371 81.1536 16.4371 80.9738 16.5272 80.9063C16.978 80.6142 17.023 80.2546 16.9329 79.7377C16.8878 79.4006 16.8202 79.0859 16.7751 78.7488C16.7751 78.6814 16.8427 78.6814 16.8653 78.7263C17.0681 79.2208 17.5188 79.895 17.3836 80.4793C17.3385 80.7041 17.2258 80.9288 17.0456 81.0637C17.0456 82.1199 17.023 83.1762 16.978 84.2325C17.2033 84.3674 17.5188 84.3674 17.7667 84.1201C18.3076 83.5808 17.9921 82.7942 18.3301 82.1649C18.7583 81.4232 18.916 81.0637 18.8259 80.1872C18.6681 78.4567 17.6315 77.1082 16.4371 75.9171C16.0314 75.5125 15.6258 75.108 15.2652 74.681C14.2511 72.4561 14.0032 69.9614 13.8455 67.4443C14.4314 65.6689 15.1751 63.9608 15.3554 62.0955C15.468 60.6571 14.9723 59.2413 14.4765 57.9153C14.3863 57.6905 14.2962 57.4658 14.206 57.2411C14.2736 57.0837 14.3413 56.9489 14.4089 56.7916C14.3638 56.6343 14.3413 56.4545 14.3187 56.2971C14.1835 54.6341 14.3413 53.2631 13.53 51.7124C13.5074 51.6899 13.5525 51.6675 13.575 51.6899C14.4089 52.3866 14.8145 53.2631 14.9723 54.3194C15.0173 54.679 15.0173 55.0386 15.0399 55.4206C15.13 55.2184 15.2202 55.0161 15.3103 54.8138C17.4061 53.6452 19.3668 52.3192 21.2823 50.8359C21.4175 50.7236 21.5527 50.6112 21.688 50.5213C24.0993 47.7794 26.2627 44.9477 27.2994 41.3069C26.0374 40.8124 24.5951 41.2844 23.3331 41.4642C23.2655 41.4642 23.2204 41.3743 23.288 41.3518C24.1669 40.9248 25.181 40.79 26.1501 40.6327C26.5783 40.5652 27.0515 40.4978 27.4121 40.7001C27.367 40.1607 27.367 39.5989 27.4346 39.037C27.4572 38.9246 27.6374 38.9471 27.6374 39.0595C27.6149 40.2506 27.8853 41.4417 28.291 42.5654C28.6065 43.4419 29.3952 44.0263 30.0713 44.6106C31.7164 46.0265 33.3841 46.9704 35.6152 46.7007C38.8378 46.3411 43.2999 46.0265 44.7197 42.8351C44.7197 42.8126 44.7422 42.7677 44.7422 42.7452C44.7647 42.7228 44.7647 42.6778 44.7873 42.6553C44.9225 42.3407 45.0126 41.9811 45.0802 41.6215C45.1478 41.0372 45.1028 40.4304 45.238 39.8236C45.238 39.8011 45.2831 39.8011 45.2831 39.8236C45.3732 40.4978 45.576 41.2619 45.5084 41.9811C45.6436 43.824 44.0887 45.3298 42.4886 46.0714C41.3393 46.6108 40.0547 46.8355 38.7927 47.0153C37.5983 47.1951 36.4039 47.4648 35.187 47.5322C33.7221 47.5996 32.4827 47.1951 31.3559 46.5209C31.153 46.9928 30.815 47.3974 30.5446 47.8469C30.1389 48.5436 30.1164 49.1504 30.0939 49.9145C30.0939 49.937 30.0713 49.937 30.0713 49.9145C29.7333 49.2403 29.6431 48.5436 29.9136 47.8244C30.1164 47.2401 30.3417 46.5883 30.7249 46.0714C30.2291 45.7118 29.7558 45.3073 29.2826 44.8578C28.5163 44.1161 27.8853 43.4869 27.66 42.4081C27.6149 42.2059 27.5698 42.0036 27.5473 41.7788C27.367 44.0487 26.2402 46.0939 24.8655 47.8918C24.3923 48.5211 23.919 49.1279 23.4007 49.7347C24.0993 51.3079 24.7754 52.8586 25.8346 54.2071C27.0064 55.6679 28.4487 56.859 29.9812 57.9153C29.9812 57.3984 29.9586 56.8815 29.9586 56.3646C29.9361 54.0722 30.3417 51.6225 31.8291 49.8021C31.8517 49.7572 31.9193 49.8021 31.9193 49.8471C31.3333 51.3528 30.6347 52.6114 30.6122 54.2745C30.5896 55.6679 30.7925 57.0613 30.8375 58.4547C30.9051 58.4996 30.9502 58.5221 31.0178 58.567C31.3784 60.7245 31.5812 62.9045 31.6263 65.0845C31.6714 67.5792 30.7925 70.9503 32.5728 73.0629C34.1503 74.9282 36.6518 76.0295 38.9279 76.9059C38.0265 74.2091 37.8237 71.1076 37.8687 68.4781C37.8687 68.4332 37.9589 68.4107 37.9589 68.4557C38.3645 70.4109 38.5899 72.3886 39.0631 74.3439C39.3336 75.4002 39.6716 76.389 40.0773 77.3329C42.1055 78.0296 44.2915 78.5466 46.4324 78.6814C48.5733 78.5466 50.7818 78.0296 52.7875 77.3329C53.1932 76.3666 53.5537 75.4002 53.8016 74.3439C54.2749 72.4111 54.5003 70.4109 54.9059 68.4557C54.9059 68.4107 54.996 68.4107 54.996 68.4781C55.0411 71.1076 54.8383 74.2091 53.9369 76.9059C56.213 76.0295 58.7145 74.9507 60.292 73.0629C62.0723 70.9503 61.1934 67.5792 61.2385 65.0845C61.2836 62.9045 61.4864 60.7245 61.847 58.567C61.9146 58.5221 61.9596 58.4996 62.0272 58.4547C62.0723 57.0613 62.2526 55.6679 62.2526 54.2745C62.2301 52.6114 61.554 51.3528 60.9455 49.8471C60.923 49.8021 60.9906 49.7572 61.0357 49.8021C62.5456 51.6225 62.9287 54.0722 62.9061 56.3646C62.9061 56.8815 62.8836 57.3984 62.8836 57.9153C64.416 56.859 65.8583 55.6903 67.0302 54.2071C68.1119 52.8586 68.788 51.3079 69.4641 49.7347C68.9683 49.1279 68.4725 48.4986 67.9993 47.8918C66.6471 46.0939 65.5203 44.0262 65.3175 41.7788C65.2724 41.9811 65.2499 42.1834 65.2048 42.4081C64.9794 43.4869 64.371 44.1161 63.5822 44.8578C63.109 45.3073 62.6357 45.7118 62.1399 46.0714C62.5005 46.5883 62.7259 47.2401 62.9512 47.8244C63.1991 48.5436 63.1315 49.2403 62.7935 49.9145C62.7935 49.937 62.7709 49.9145 62.7709 49.9145C62.7709 49.1504 62.7484 48.5211 62.3202 47.8469C62.0498 47.3974 61.7117 46.9928 61.5089 46.5209C60.3821 47.1951 59.1426 47.5996 57.6778 47.5322C56.4834 47.4873 55.2665 47.2176 54.0721 47.0153C52.8326 46.8131 51.5255 46.6108 50.3762 46.0714C48.7987 45.3073 47.2212 43.8015 47.3564 41.9811C47.2888 41.2844 47.4916 40.4978 47.5817 39.8236C47.5817 39.8011 47.6268 39.8011 47.6268 39.8236C47.762 40.4304 47.7169 41.0372 47.7845 41.6215C47.8522 42.0036 47.9423 42.3407 48.0775 42.6553C48.1 42.6778 48.1001 42.7228 48.1226 42.7452C48.1451 42.7677 48.1451 42.8126 48.1451 42.8351C49.5874 46.004 54.0495 46.3186 57.2496 46.7007C59.4807 46.9479 61.1483 46.004 62.7935 44.6106C63.4695 44.0263 64.2583 43.4419 64.5738 42.5654C64.9794 41.4417 65.2499 40.2506 65.2273 39.0595C65.2273 38.9471 65.4076 38.9246 65.4302 39.037C65.4978 39.5989 65.4978 40.1607 65.4527 40.7001C65.8358 40.5203 66.2865 40.5652 66.7147 40.6327C67.6838 40.79 68.6753 40.9248 69.5768 41.3518C69.6444 41.3743 69.5993 41.4642 69.5317 41.4642C68.2697 41.2844 66.8274 40.8124 65.5654 41.3069C66.602 44.9477 68.7655 47.7794 71.1768 50.5213C71.312 50.6337 71.4473 50.746 71.5825 50.8359C73.498 52.3192 75.4586 53.6452 77.5545 54.8138C77.6446 55.0161 77.7348 55.2184 77.8249 55.4206C77.8249 55.0386 77.8475 54.679 77.8925 54.3194C78.0503 53.2407 78.4559 52.3866 79.2897 51.6899C79.3123 51.6675 79.3348 51.6899 79.3348 51.7124C78.5235 53.2631 78.6813 54.6341 78.5461 56.2971C78.5235 56.4769 78.501 56.6343 78.4559 56.7916C78.5235 56.9489 78.5911 57.0837 78.6587 57.2411C78.5686 57.4658 78.4785 57.6905 78.3883 57.9153C77.8925 59.2413 77.3967 60.6571 77.5094 62.0955C77.6672 63.9608 78.4334 65.6913 79.0193 67.4443C78.8616 69.9614 78.6137 72.4561 77.5996 74.681C77.2164 75.108 76.8333 75.5125 76.4277 75.9171C75.2333 77.0857 74.1966 78.4567 74.0389 80.1872C73.9487 81.0861 74.1065 81.4457 74.5347 82.1649C74.8952 82.7717 74.5797 83.5808 75.0981 84.1201C75.346 84.3674 75.6615 84.3674 75.8868 84.2325C75.8418 83.1762 75.8192 82.1199 75.8192 81.0637C75.6615 80.9288 75.5263 80.7041 75.4812 80.4793C75.346 79.895 75.7967 79.2208 75.9995 78.7263C76.022 78.6814 76.0897 78.6814 76.0897 78.7488C76.022 79.0635 75.977 79.4006 75.9319 79.7377C75.8418 80.2546 75.8868 80.6142 76.3375 80.9063C76.4277 80.9738 76.4277 81.1311 76.2925 81.176C76.2474 81.176 76.2023 81.1985 76.1573 81.1985C76.4277 82.2548 76.5178 83.401 76.5178 84.5022C76.9686 84.8168 77.5996 84.8168 78.163 84.727C78.208 83.9404 78.2756 83.1762 78.4109 82.3896C78.4109 82.3672 78.4559 82.3672 78.4559 82.3896C78.5686 83.1762 78.6137 83.9853 78.6362 84.7719C78.9968 85.0191 79.4926 85.0416 79.9208 84.9517C80.0785 84.9067 80.2137 84.8618 80.3489 84.7944C80.394 84.5472 80.4165 84.2775 80.4616 84.0302C80.5518 83.3785 80.5968 82.7492 80.7095 82.0975C80.732 82.0076 80.8673 82.03 80.8673 82.1199C80.9349 82.8841 80.9799 83.7156 80.9799 84.5022C81.4307 84.5696 81.9039 84.5022 82.2645 84.1876C82.5575 83.3111 82.4673 82.1649 82.6476 81.3558C82.6701 81.2884 82.7603 81.2884 82.7828 81.3558C82.8955 82.0301 83.0082 82.8166 82.9406 83.5583C83.4138 83.5808 83.8645 83.4909 84.0674 83.0639C84.7209 81.7379 85.0364 79.94 85.2843 78.5016C85.5547 76.9509 84.9012 75.535 84.6758 74.0292C84.6533 73.8494 84.6308 73.6472 84.6082 73.4674C85.0139 72.6583 85.104 71.5571 85.1942 70.6806C85.5998 68.141 86.5914 65.8487 87.4928 63.5113ZM9.69885 73.827C9.45096 75.2878 9.45096 76.7936 9.29321 78.2769C9.27067 78.3892 9.09038 78.4342 9.06785 78.2993C8.88756 76.9284 8.68474 75.3552 9.02278 74.0068C9.09039 73.7371 9.18053 73.4674 9.27067 73.1977C8.12134 72.3437 8.93263 71.4222 8.63967 70.2536C8.23402 68.5905 7.82837 66.9499 7.51287 65.2868C6.9044 62.1854 6.54383 59.0615 6.341 55.9151C6.341 55.8701 6.43115 55.8477 6.43115 55.8926C6.9044 58.8367 7.4678 61.7584 8.0988 64.6575C8.39177 66.0509 8.72981 67.4219 9.06785 68.8153C9.20306 69.3546 9.47349 69.9839 9.45096 70.5233C9.42842 71.3099 9.04531 71.9167 9.49603 72.5909C9.87914 71.6919 10.3524 70.8154 10.5778 69.8491C10.6003 69.7592 10.713 69.8041 10.6904 69.8715C10.5327 71.2649 9.92421 72.501 9.69885 73.827ZM19.3893 40.0034C18.1498 42.2733 16.3244 44.251 14.9497 46.4535C13.5976 48.6335 12.4032 50.9932 12.1553 53.5778C12.1327 53.7126 11.9299 53.7351 11.9299 53.5778C11.9074 51.0157 12.7412 48.566 14.1384 46.431C15.6033 44.1611 17.4512 41.8912 19.2766 39.891C19.3217 39.8236 19.4344 39.9135 19.3893 40.0034ZM28.5839 33.1488C27.9529 33.5308 27.2318 33.6881 26.6233 34.1152C25.9923 34.5422 25.2486 35.2838 24.9782 36.003C24.9331 36.0929 24.7979 36.0704 24.8204 35.958C25.0233 35.0815 25.3162 34.5197 26.0599 34.0028C26.7811 33.5083 27.66 33.0813 28.5389 33.0589C28.6065 33.0589 28.629 33.1263 28.5839 33.1488ZM39.8519 21.2375C40.4378 21.8667 41.0463 22.5634 41.7675 23.0354C42.0604 23.2152 42.3759 23.395 42.6689 23.5523C42.6464 23.4849 42.6238 23.4174 42.6013 23.35C42.3759 22.5185 42.083 21.7094 41.8801 20.9003C41.8576 20.8554 41.9477 20.8104 41.9703 20.8554C42.3985 21.7094 42.7816 23.1702 43.5478 23.777C44.3366 24.4288 45.4633 24.4513 46.4775 24.3614C47.4916 24.4513 48.6184 24.4288 49.4071 23.777C50.1734 23.1478 50.5565 21.7094 50.9846 20.8554C51.0072 20.8104 51.0748 20.8329 51.0748 20.9003C50.872 21.7319 50.579 22.541 50.3536 23.35C50.3311 23.4174 50.3086 23.4849 50.286 23.5523C50.6015 23.395 50.8945 23.2377 51.1875 23.0354C51.9086 22.5634 52.5171 21.8667 53.103 21.2375C53.1706 21.17 53.2833 21.2824 53.2157 21.3498C52.2917 22.4286 51.21 23.9793 49.7677 24.4288C49.7226 24.4737 49.6776 24.4962 49.6325 24.5412C48.7536 25.1704 47.5817 25.3053 46.4775 25.1929C45.3957 25.3053 44.2013 25.1704 43.3224 24.5412C43.2774 24.5187 43.2323 24.4737 43.1872 24.4288C41.7449 23.9793 40.6632 22.4511 39.7392 21.3498C39.6716 21.2824 39.7843 21.17 39.8519 21.2375ZM45.3281 31.8228C44.8098 31.4857 44.2915 31.0362 43.7732 30.744C43.052 30.3395 42.6013 30.4743 41.8576 30.5418C40.7533 30.6316 39.8068 30.5418 38.7476 30.1822C37.7786 29.8451 36.9673 29.8226 36.0659 30.362C35.6602 30.6092 35.2546 30.8789 34.8489 31.1036C34.1954 31.4632 33.5869 31.7104 32.8432 31.7329C32.7982 31.7329 32.7982 31.6879 32.8432 31.6655C34.3081 31.4182 35.2546 30.2945 36.4941 29.5978C37.4406 29.0809 38.3645 29.463 39.311 29.7327C40.1674 29.9799 41.0012 30.0024 41.8801 29.89C42.3083 29.8226 42.9619 29.6653 43.39 29.8226C44.4042 30.1597 44.9901 30.789 45.5084 31.6655C45.576 31.7554 45.4408 31.8902 45.3281 31.8228ZM43.5253 64.8598C42.3985 64.5901 41.5196 65.4666 40.4378 65.534C39.897 65.579 39.3561 64.9272 39.0631 64.5676C38.6575 64.0507 38.5223 63.354 38.5448 62.7247C38.5674 61.7359 38.4997 60.8144 38.3871 59.8481C38.3871 59.8256 38.3871 59.8256 38.3871 59.8031C38.1166 59.6233 37.8913 59.3536 37.7561 58.994C37.4631 58.2524 37.3279 57.3759 37.3955 56.5668C37.5082 55.4207 37.8462 54.3644 37.1927 53.2856C37.1701 53.2407 37.2377 53.1957 37.2603 53.2407C38.1166 54.1846 37.9138 55.3982 37.9589 56.5668C37.9814 57.3984 38.049 58.2973 38.4772 59.0165C39.1082 60.0728 39.8744 60.0054 40.9562 59.938C41.0463 59.938 41.0463 60.0503 40.9787 60.0728C40.2575 60.2526 39.3787 60.2975 38.7026 59.9829C39.1533 61.5111 38.5448 63.9833 40.0773 64.8373C40.9111 65.2868 41.497 64.5452 42.2632 64.5002C42.7816 64.4553 43.1196 64.5002 43.5703 64.725C43.6605 64.7699 43.6154 64.8823 43.5253 64.8598ZM55.7623 53.3081C55.0862 54.3868 55.4468 55.4207 55.5594 56.5893C55.6496 57.3984 55.4918 58.2524 55.1989 59.0165C55.0636 59.3761 54.8383 59.6458 54.5679 59.8256C54.5679 59.8481 54.5679 59.8481 54.5679 59.8705C54.4552 60.8369 54.3876 61.7808 54.4101 62.7472C54.4326 63.399 54.2974 64.0732 53.8918 64.5901C53.5988 64.9722 53.058 65.6014 52.5171 65.5565C51.4354 65.4891 50.579 64.6126 49.4297 64.8823C49.3395 64.9047 49.2945 64.7924 49.3621 64.7474C49.8128 64.5002 50.1508 64.4777 50.6691 64.5227C51.4354 64.5901 52.0213 65.3317 52.8551 64.8598C54.3876 64.0058 53.8016 61.5336 54.2298 60.0054C53.5537 60.2975 52.6974 60.2751 51.9537 60.0953C51.8861 60.0728 51.8861 59.9604 51.9762 59.9604C53.0354 60.0279 53.8016 60.0953 54.4552 59.039C54.8834 58.3198 54.951 57.4208 54.9735 56.5893C55.0186 55.4207 54.8158 54.207 55.6721 53.2631C55.7172 53.2182 55.7848 53.2631 55.7623 53.3081ZM51.6382 50.5887C52.5622 50.9483 53.3735 51.5102 54.2523 51.9596C55.627 52.6788 56.9567 52.2293 58.3088 51.7574C58.3539 51.7349 58.3539 51.8023 58.3314 51.8248C57.5877 52.3192 56.6862 52.926 55.7623 52.9485C54.7256 52.971 53.9143 52.5664 53.0129 52.0495C50.8945 50.8359 48.7761 50.5438 46.4775 50.4539C44.1788 50.5438 42.0604 50.8359 39.942 52.0495C39.0631 52.5664 38.2293 52.9485 37.1927 52.9485C36.2687 52.926 35.3447 52.3417 34.6236 51.8248C34.601 51.8023 34.601 51.7574 34.6461 51.7574C35.9983 52.2293 37.3279 52.6788 38.7026 51.9596C39.5815 51.5102 40.3928 50.9483 41.3167 50.5887C42.9168 49.9819 44.7197 49.6448 46.4775 49.5998C48.2353 49.6223 50.0381 49.9594 51.6382 50.5887ZM60.1117 31.7104C59.368 31.6879 58.7595 31.4407 58.106 31.0811C57.7003 30.8564 57.2947 30.5867 56.8891 30.3395C55.9876 29.8001 55.1538 29.8451 54.2073 30.1597C53.1481 30.5193 52.2016 30.6092 51.0973 30.5193C50.3762 30.4519 49.9029 30.317 49.1818 30.7216C48.6634 31.0137 48.1226 31.4632 47.6268 31.8003C47.5141 31.8677 47.4014 31.7329 47.4465 31.6205C47.9648 30.7216 48.5733 30.1148 49.5649 29.7776C49.9931 29.6428 50.6466 29.8001 51.0748 29.8451C51.9537 29.9574 52.7875 29.935 53.6439 29.6877C54.5904 29.418 55.5144 29.0135 56.4609 29.5529C57.7004 30.2496 58.6469 31.3733 60.1117 31.6205C60.1568 31.6655 60.1568 31.7104 60.1117 31.7104ZM67.9767 36.003C67.7288 35.2838 66.9626 34.5422 66.3316 34.1152C65.7231 33.6881 65.002 33.5308 64.371 33.1488C64.3259 33.1263 64.3484 33.0589 64.3935 33.0589C65.2724 33.0813 66.1513 33.5083 66.8725 34.0028C67.6387 34.5197 67.9091 35.0815 68.1119 35.958C68.1345 36.0479 67.9993 36.0929 67.9767 36.003ZM80.8222 53.5778C80.5743 50.9932 79.3799 48.6335 78.0277 46.4535C76.653 44.251 74.8276 42.2733 73.5882 40.0034C73.5431 39.9135 73.6558 39.8236 73.7234 39.891C75.5488 41.8912 77.3742 44.1386 78.8616 46.431C80.2588 48.5885 81.0926 51.0157 81.0701 53.5778C81.0475 53.7351 80.8222 53.7351 80.8222 53.5778ZM83.6842 73.1977C83.7744 73.4674 83.8645 73.7371 83.9321 74.0068C84.2477 75.3552 84.0674 76.9284 83.8871 78.2993C83.8645 78.4342 83.6842 78.3892 83.6617 78.2769C83.5265 76.7936 83.504 75.2878 83.2561 73.827C83.0307 72.501 82.4222 71.2649 82.242 69.9165C82.2194 69.8491 82.3546 69.8041 82.3546 69.894C82.58 70.8604 83.0532 71.7369 83.4364 72.6359C83.8645 71.9392 83.504 71.3548 83.4814 70.5682C83.4589 70.0064 83.7293 69.3771 83.8645 68.8602C84.2251 67.4893 84.5406 66.0959 84.8336 64.7025C85.4646 61.8033 86.028 58.8817 86.5012 55.9375C86.5012 55.8926 86.5914 55.8926 86.5914 55.96C86.4111 59.1064 86.028 62.2303 85.4195 65.3318C85.104 66.9948 84.6758 68.6579 84.2927 70.2985C84.0223 71.4447 84.8336 72.3662 83.6842 73.1977Z" fill="#555555"/>
</g>
<defs>
<filter id="filter0_d_23_1832" x="0" y="0" width="93" height="93" filterUnits="userSpaceOnUse" color-interpolation-filters="sRGB">
<feFlood flood-opacity="0" result="BackgroundImageFix"/>
<feColorMatrix in="SourceAlpha" type="matrix" values="0 0 0 0 0 0 0 0 0 0 0 0 0 0 0 0 0 0 127 0" result="hardAlpha"/>
<feOffset dy="4"/>
<feGaussianBlur stdDeviation="2"/>
<feComposite in2="hardAlpha" operator="out"/>
<feColorMatrix type="matrix" values="0 0 0 0 0 0 0 0 0 0 0 0 0 0 0 0 0 0 0.25 0"/>
<feBlend mode="normal" in2="BackgroundImageFix" result="effect1_dropShadow_23_1832"/>
<feBlend mode="normal" in="SourceGraphic" in2="effect1_dropShadow_23_1832" result="shape"/>
</filter>
</defs>
</svg>
