<svg width="24" height="24" viewBox="0 0 24 24" fill="none" xmlns="http://www.w3.org/2000/svg">
<g clip-path="url(#clip0_23_2103)">
<path d="M21.3333 4H2.66659C2.31296 4 1.97382 4.14048 1.72378 4.39052C1.47373 4.64057 1.33325 4.97971 1.33325 5.33333V18.6667C1.33325 19.0203 1.47373 19.3594 1.72378 19.6095C1.97382 19.8595 2.31296 20 2.66659 20H21.3333C21.6869 20 22.026 19.8595 22.2761 19.6095C22.5261 19.3594 22.6666 19.0203 22.6666 18.6667V5.33333C22.6666 4.97971 22.5261 4.64057 22.2761 4.39052C22.026 4.14048 21.6869 4 21.3333 4ZM21.3333 18.6667H2.66659V5.33333H21.3333V18.6667Z" fill="#545454"/>
<path d="M5.99992 9.33333H17.9999C18.1767 9.33333 18.3463 9.2631 18.4713 9.13807C18.5963 9.01305 18.6666 8.84348 18.6666 8.66667C18.6666 8.48986 18.5963 8.32029 18.4713 8.19526C18.3463 8.07024 18.1767 8 17.9999 8H5.99992C5.82311 8 5.65354 8.07024 5.52851 8.19526C5.40349 8.32029 5.33325 8.48986 5.33325 8.66667C5.33325 8.84348 5.40349 9.01305 5.52851 9.13807C5.65354 9.2631 5.82311 9.33333 5.99992 9.33333Z" fill="#545454"/>
<path d="M5.99992 12H17.9999C18.1767 12 18.3463 11.9298 18.4713 11.8047C18.5963 11.6797 18.6666 11.5101 18.6666 11.3333C18.6666 11.1565 18.5963 10.987 18.4713 10.8619C18.3463 10.7369 18.1767 10.6667 17.9999 10.6667H5.99992C5.82311 10.6667 5.65354 10.7369 5.52851 10.8619C5.40349 10.987 5.33325 11.1565 5.33325 11.3333C5.33325 11.5101 5.40349 11.6797 5.52851 11.8047C5.65354 11.9298 5.82311 12 5.99992 12Z" fill="#545454"/>
<path d="M5.99992 14.6667H12.6666C12.8434 14.6667 13.013 14.5964 13.138 14.4714C13.263 14.3464 13.3333 14.1768 13.3333 14C13.3333 13.8232 13.263 13.6536 13.138 13.5286C13.013 13.4036 12.8434 13.3333 12.6666 13.3333H5.99992C5.82311 13.3333 5.65354 13.4036 5.52851 13.5286C5.40349 13.6536 5.33325 13.8232 5.33325 14C5.33325 14.1768 5.40349 14.3464 5.52851 14.4714C5.65354 14.5964 5.82311 14.6667 5.99992 14.6667Z" fill="#545454"/>
</g>
<defs>
<clipPath id="clip0_23_2103">
<rect width="24" height="24"/>
</clipPath>
</defs>
</svg>
