<svg width="35" height="35" viewBox="0 0 35 35" fill="none" xmlns="http://www.w3.org/2000/svg">
<path d="M4.36044 10.7625C3.64585 11.4771 3.64585 12.6292 4.36044 13.3437L16.4792 25.4625C16.6141 25.5977 16.7744 25.7049 16.9508 25.7781C17.1272 25.8513 17.3163 25.889 17.5073 25.889C17.6983 25.889 17.8874 25.8513 18.0638 25.7781C18.2403 25.7049 18.4005 25.5977 18.5354 25.4625L30.6542 13.3437C31.3688 12.6292 31.3688 11.4771 30.6542 10.7625C29.9396 10.0479 28.7875 10.0479 28.0729 10.7625L17.5 21.3208L6.9271 10.7479C6.2271 10.0479 5.06044 10.0479 4.36044 10.7625Z" fill="#555555"/>
</svg>
