<svg width="114" height="89" viewBox="0 0 114 89" fill="none" xmlns="http://www.w3.org/2000/svg">
<g filter="url(#filter0_d_23_1830)">
<path d="M109.34 22.4949C108.703 21.1932 107.329 20.4786 106.641 19.1769C105.852 17.6966 105.394 16.012 104.477 14.5827C103.79 13.5108 102.95 12.5153 101.983 11.6986C99.8188 9.86093 97.2986 8.55925 94.9311 6.97681C93.6074 6.10902 92.2836 5.13914 91.2144 3.96507C90.3488 2.99519 89.5597 1.66798 88.3886 1.0299C85.8175 -0.424918 82.3808 1.23409 79.886 2.51025C78.9186 2.30607 77.9258 2.84205 77.6967 3.78641C77.3148 3.81193 76.9585 3.86298 76.5766 3.91403C76.322 3.93955 76.1438 4.14374 76.1947 4.39897C76.5766 5.93036 75.8129 7.46175 76.1184 8.99314C76.322 10.0651 76.9075 10.9329 77.6967 11.6731C78.2568 12.1835 79.0968 13.1789 79.9624 12.9492C80.5224 12.7961 80.7006 12.3367 80.7515 11.8262C83.0427 11.3413 85.2574 10.0651 86.683 8.1764C87.8031 9.22285 88.796 10.4224 89.4833 11.8007C90.3743 13.5873 90.578 15.476 91.1126 17.3903C91.3671 18.3091 91.7744 19.1259 92.2581 19.866C93.3019 20.8359 94.2692 21.3974 95.6948 21.5506C96.6113 21.6527 97.5532 21.7548 98.4442 21.9334C98.4696 21.9334 98.4696 21.9845 98.4442 21.9845C97.2477 22.0866 96.0512 22.1121 94.8802 22.0865C94.422 22.0865 94.0146 21.9334 93.6328 21.7292C91.3926 21.7037 89.2033 20.938 86.9631 21.6782C86.683 21.7803 86.403 21.9079 86.123 22.0355C85.9193 22.1121 85.7157 22.2142 85.4865 22.2907C85.1301 22.4439 84.8756 22.6991 84.6465 22.9799C84.341 23.3372 84.0864 23.72 83.73 24.0008C82.4826 25.0217 81.388 26.2213 80.3697 27.4975C80.3442 27.5485 80.2679 27.4975 80.2679 27.4464C80.5988 26.2724 81.1843 25.3025 81.948 24.4347C76.3984 23.2861 70.5688 24.5113 65.961 27.8548C65.401 27.5485 64.8155 27.2422 64.2299 26.9615C64.2554 24.4347 64.3572 21.9334 64.4591 19.4321C65.3501 19.33 66.0883 18.4878 66.292 17.5179C66.5466 16.2928 67.0557 13.7915 65.681 13.0258H65.6556C65.7319 11.0605 65.7828 9.09524 65.6301 7.15547C65.5028 5.4199 64.4082 5.24123 63.3135 4.14374C61.3533 2.2295 60.0805 -0.782242 57.0002 0.18764C53.9453 -0.782242 52.647 2.2295 50.6868 4.14374C49.5667 5.24123 48.4975 5.4199 48.3703 7.15547C48.2175 9.09524 48.2939 11.086 48.3448 13.0258H48.3193C46.9701 13.7915 47.4538 16.2673 47.7084 17.5179C47.912 18.4878 48.6248 19.33 49.5413 19.4321C49.6686 21.9334 49.7704 24.4602 49.7704 26.9615C49.1849 27.2422 48.5994 27.5485 48.0393 27.8548C43.4316 24.5368 37.602 23.2861 32.0523 24.4347C32.816 25.3025 33.4015 26.2979 33.7325 27.4464C33.7579 27.4975 33.6816 27.5485 33.6306 27.4975C32.6124 26.2213 31.5432 25.0472 30.2703 24.0008C29.9139 23.72 29.6594 23.3372 29.3539 22.9799C29.1248 22.6991 28.8447 22.4439 28.5138 22.2907C28.3101 22.2142 28.1065 22.1121 27.8774 22.0355C27.5973 21.9079 27.3173 21.8058 27.0373 21.6782C24.7971 20.938 22.6078 21.6782 20.3676 21.7292C19.9857 21.9334 19.5784 22.0865 19.1202 22.0865C17.9237 22.1121 16.7272 22.061 15.5562 21.9845C15.5307 21.9845 15.5307 21.9589 15.5562 21.9334C16.4726 21.7803 17.3891 21.6527 18.3055 21.5506C19.7311 21.4229 20.6985 20.8359 21.7422 19.866C22.2259 19.1259 22.6078 18.3346 22.8878 17.3903C23.4224 15.476 23.6261 13.6128 24.517 11.8007C25.2044 10.4224 26.1972 9.22285 27.3173 8.1764C28.7429 10.0651 30.9577 11.3413 33.2488 11.8262C33.2997 12.3112 33.5034 12.7961 34.038 12.9492C34.9035 13.1789 35.769 12.1835 36.3036 11.6731C37.1183 10.9329 37.6783 10.0651 37.882 8.99314C38.1874 7.46175 37.4237 5.95588 37.8056 4.39897C37.882 4.14374 37.6783 3.93955 37.4237 3.91403C37.0419 3.86298 36.6855 3.83746 36.3036 3.78641C36.0491 2.84205 35.0817 2.30607 34.1143 2.51025C31.6196 1.20857 28.1829 -0.424918 25.6117 1.0299C24.4407 1.69351 23.6515 2.99519 22.786 3.96507C21.7168 5.16466 20.393 6.10902 19.0692 6.97681C16.7017 8.53373 14.1815 9.86093 12.0177 11.6986C11.0503 12.5409 10.2102 13.5108 9.52287 14.5827C8.60642 16.012 8.17365 17.6966 7.35903 19.1769C6.67169 20.4786 5.29701 21.1932 4.66059 22.4949C4.07508 23.6945 5.22064 24.741 6.00981 25.4556C9.03919 28.2376 12.0686 31.0452 15.098 33.8527C17.44 36.0222 19.8584 38.5745 23.1424 39.085C24.2879 39.2637 25.4335 39.034 26.5536 38.8043C27.521 39.1105 28.5138 39.3913 29.5066 39.621C30.8558 46.6654 34.5471 53.2504 39.4603 58.5082C39.4349 57.8701 39.4348 57.2575 39.5367 56.5939C40.0203 53.6588 40.7586 50.596 43.0752 48.5286C43.1261 48.4775 43.2279 48.5541 43.2025 48.6307C42.1587 50.2642 41.3441 51.8466 40.9623 53.7608C40.6313 55.5219 40.1731 57.4617 40.4277 59.2739C40.4786 59.6057 40.504 59.963 40.5295 60.2948C41.1914 62.694 41.5478 65.1953 41.5478 67.7731C41.5223 70.2744 40.9368 72.6225 40.4786 75.0472C40.0967 77.0891 41.4714 78.0079 43.1006 78.8502C47.2247 80.9941 52.1124 81.1217 56.6692 80.9431C56.7711 80.9431 56.8474 80.9431 56.9493 80.9175C56.9493 80.9175 56.9492 80.9175 56.9747 80.9175C56.9747 80.9175 56.9747 80.9175 57.0002 80.9175C57.102 80.9175 57.1784 80.9175 57.2802 80.9431C61.8116 81.1217 66.7247 80.9941 70.8488 78.8502C72.478 78.0079 73.8782 77.1146 73.4709 75.0472C73.0126 72.597 72.4017 70.2744 72.4017 67.7731C72.3762 65.1953 72.7581 62.694 73.42 60.2948C73.4454 59.963 73.4708 59.6057 73.5218 59.2739C73.7763 57.4617 73.3181 55.5219 72.9872 53.7608C72.6053 51.8466 71.7907 50.2642 70.747 48.6307C70.6961 48.5541 70.7979 48.4775 70.8743 48.5286C73.1908 50.596 73.9291 53.6588 74.4128 56.5939C74.5146 57.2575 74.5146 57.8956 74.4891 58.5082C79.4023 53.2504 83.0936 46.6654 84.4428 39.621C85.4356 39.3913 86.4285 39.1361 87.3958 38.8043C88.5159 39.034 89.6615 39.2637 90.8071 39.085C94.1165 38.5745 96.5094 36.0222 98.8515 33.8527C101.881 31.0452 104.91 28.2376 107.94 25.4556C108.78 24.741 109.925 23.72 109.34 22.4949ZM28.9975 35.4862C28.9211 35.6904 28.8447 35.8946 28.7429 36.0733C28.6411 36.303 28.5138 36.5327 28.361 36.7624C28.3356 36.7879 28.3356 36.8134 28.3101 36.8134C27.9792 37.2984 27.5719 37.7323 27.1137 38.1151C27.1137 38.1151 27.0882 38.1151 27.0882 38.0896C27.6228 37.2473 28.1829 36.3795 28.5393 35.4352C29.3284 32.7042 28.1574 29.3096 25.5608 28.0335C22.8369 26.6807 20.2403 26.7318 17.3382 27.3188C17.2873 27.3188 17.2618 27.2678 17.3127 27.2422C20.1639 25.9406 24.3898 26.2979 27.0118 28.0079C29.4302 29.6159 29.9648 32.8829 28.9975 35.4862ZM50.4577 23.0054C51.4505 24.2305 53.1562 25.2004 54.8109 25.5067C53.9708 24.8175 53.538 24.0008 53.2325 22.9033C53.2071 22.8267 53.3089 22.7757 53.3598 22.8522C53.8944 23.8221 54.4799 24.8686 55.6255 25.2514C56.1092 25.4046 56.5674 25.4556 57.0002 25.4556C57.4584 25.4556 57.8912 25.4046 58.3748 25.2514C59.4949 24.8686 60.0805 23.8477 60.6405 22.8522C60.6914 22.7757 60.7933 22.8267 60.7678 22.9033C60.4878 24.0008 60.0296 24.8175 59.1895 25.5067C60.8442 25.2004 62.5498 24.2305 63.5426 23.0054C63.5935 22.9543 63.6699 23.0309 63.6445 23.082C62.8553 24.9707 60.5133 25.864 58.5276 25.9661C58.0694 26.2213 57.5348 26.3744 57.0002 26.4255C56.4656 26.4 55.931 26.2213 55.4728 25.9661C53.4871 25.864 51.1451 24.9707 50.3559 23.082C50.3304 23.0309 50.4068 22.9543 50.4577 23.0054ZM49.1849 28.1611C50.5595 27.7527 51.9597 28.1866 53.1562 28.9012C54.5308 29.718 55.5746 30.6368 57.0256 30.7644C58.4512 30.6368 59.5204 29.718 60.8951 28.9012C62.0916 28.1866 63.4917 27.7527 64.8664 28.1611C64.8918 28.1611 64.8918 28.2121 64.8664 28.2376C62.6771 28.3908 61.1751 29.5904 59.4441 30.8155C58.7058 31.3515 57.8912 31.6578 57.0256 31.7343C56.1601 31.6833 55.3455 31.3515 54.6072 30.8155C52.9016 29.5904 51.3742 28.3908 49.1849 28.2376C49.1594 28.2121 49.134 28.1611 49.1849 28.1611ZM39.8931 51.3106C38.5438 51.1575 38.442 49.2432 38.6966 48.1968C39.2057 46.2826 40.504 44.2662 41.7005 42.7093H41.726C41.446 44.1896 40.2749 45.3382 39.7912 46.742C39.333 48.0436 38.9002 49.9068 40.0204 50.9788C40.1222 51.1064 40.0713 51.3106 39.8931 51.3106ZM42.7697 48.5286C42.6679 48.6052 42.5406 48.452 42.617 48.3755C42.9479 47.865 43.2025 47.0227 42.3879 46.8185C41.8787 46.6654 41.3441 46.742 40.8095 46.6399C40.7841 46.6399 40.7841 46.5888 40.8095 46.5888C41.4714 46.3336 42.6933 46.206 43.1516 46.8951C43.5334 47.4566 43.3043 48.1713 42.7697 48.5286ZM48.8539 54.1692C48.8794 54.0671 49.0321 54.0927 49.0321 54.1947C49.0067 55.4454 48.7521 56.7215 48.7776 57.9722C48.803 59.376 50.9669 60.3458 52.1379 60.6266C52.2397 60.6521 52.2143 60.8053 52.1124 60.8053C50.9669 60.8563 48.9812 60.4479 48.4466 59.2228C47.8102 57.768 48.523 55.6496 48.8539 54.1692ZM54.3017 75.379C53.0543 76.0937 51.4506 74.9451 50.6359 74.0263C49.5922 72.8522 49.2613 71.0911 49.2613 69.5852C49.2613 69.5087 49.3631 69.5087 49.3885 69.5597C49.7195 70.9635 50.0759 72.4949 51.1196 73.5669C51.6542 74.1028 52.2652 74.6133 53.0034 74.843C53.4616 74.9706 53.8944 75.0217 54.3272 75.2259C54.3781 75.2259 54.3526 75.328 54.3017 75.379ZM54.5563 67.3137C52.9016 66.8543 50.6105 69.0492 49.2103 67.2116C48.7521 66.599 48.523 65.9865 48.5739 65.2208C48.7012 63.868 48.9048 62.5919 48.7012 61.2392C48.6757 61.1115 48.8539 61.0605 48.9049 61.1881C49.134 62.1325 49.3376 63.0768 49.2867 64.0467C49.2612 65.0932 49.0576 66.8287 50.4577 67.135C51.8833 67.4413 53.2325 66.3693 54.6327 67.1095C54.7345 67.1861 54.6581 67.3647 54.5563 67.3137ZM63.4153 74.0008C62.6007 74.9196 60.9969 76.0681 59.7495 75.3535C59.6732 75.328 59.6732 75.2003 59.7495 75.1748C60.1823 74.9962 60.6405 74.9196 61.0733 74.792C61.8116 74.5878 62.4225 74.0773 62.9571 73.5158C64.0008 72.4438 64.3572 70.9124 64.6882 69.5087C64.7136 69.4321 64.8155 69.4576 64.8155 69.5342C64.79 71.0911 64.4591 72.8267 63.4153 74.0008ZM64.8409 67.2371C63.4408 69.0493 61.1497 66.8798 59.495 67.3392C59.3677 67.3647 59.2913 67.2116 59.4186 67.135C60.7933 66.3948 62.1679 67.4668 63.5935 67.1605C64.9937 66.8543 64.79 65.1187 64.7646 64.0722C64.7391 63.1023 64.9173 62.158 65.1464 61.2136C65.1719 61.086 65.3501 61.1371 65.3501 61.2647C65.1464 62.6174 65.3501 63.8936 65.4773 65.2463C65.5283 66.012 65.2991 66.6245 64.8409 67.2371ZM65.6046 59.2483C65.0955 60.4734 63.0844 60.8818 61.9388 60.8308C61.837 60.8308 61.8115 60.6776 61.9134 60.6521C63.0844 60.3714 65.2483 59.4015 65.2737 57.9977C65.2992 56.7471 65.0446 55.4709 65.0191 54.2203C65.0191 54.1182 65.1719 54.0927 65.1973 54.1947C65.5283 55.6496 66.2411 57.768 65.6046 59.2483ZM67.9467 51.5148C66.3684 51.8977 64.9428 51.3361 63.5681 50.596C62.6262 50.0855 61.7097 49.6006 60.666 49.3453C59.5459 49.0646 58.2221 49.2177 57.0256 49.3453C55.8292 49.2177 54.5054 49.0646 53.3853 49.3453C52.3415 49.6261 51.4251 50.111 50.4832 50.596C49.1085 51.3361 47.6829 51.8977 46.1046 51.5148C46.0537 51.4893 46.0791 51.4127 46.13 51.4382C48.6248 51.7956 50.2286 49.8048 52.3415 48.8859C53.869 48.2223 55.4473 48.401 57.0511 48.452C58.6549 48.401 60.2332 48.2223 61.7606 48.8859C63.8481 49.8048 65.4774 51.7956 67.9721 51.4382C67.9721 51.4127 68.0231 51.4893 67.9467 51.5148ZM73.2672 46.6399C72.7326 46.742 72.198 46.6654 71.6889 46.8185C70.8742 47.0482 71.1288 47.865 71.4597 48.3755C71.5107 48.4776 71.4088 48.6052 71.307 48.5286C70.7724 48.1457 70.5433 47.4311 70.9252 46.8696C71.3834 46.1805 72.6308 46.3081 73.2672 46.5633C73.2672 46.5888 73.2926 46.6399 73.2672 46.6399ZM74.1327 51.3106C73.98 51.3362 73.9036 51.1064 74.0054 51.0043C75.1255 49.9068 74.6928 48.0437 74.2346 46.7675C73.7254 45.3637 72.5544 44.2152 72.2998 42.7348C72.2998 42.7348 72.2998 42.7093 72.3253 42.7348C73.5218 44.2917 74.8201 46.2826 75.3292 48.2223C75.6093 49.2177 75.4819 51.1575 74.1327 51.3106ZM82.4572 34.2611C79.8097 35.8946 76.6784 36.6858 73.5981 36.5072C73.3181 36.9411 73.0381 37.3494 72.7326 37.7578C70.9251 40.3101 68.7104 42.352 65.6556 43.2198C63.008 43.9599 59.7241 43.8578 57.7893 41.6628C57.4075 41.2034 57.1529 40.693 57.0256 40.1315C56.8729 40.693 56.6438 41.229 56.2619 41.6628C54.3527 43.8578 51.0432 43.9599 48.3957 43.2198C45.3409 42.3775 43.1261 40.3101 41.3187 37.7578C41.0132 37.3494 40.7332 36.9155 40.4531 36.5072C37.3474 36.6858 34.2162 35.8946 31.5941 34.2611C31.5432 34.2101 31.5941 34.1335 31.645 34.159C34.3434 35.3586 37.0928 35.8691 40.0204 35.818C39.4858 34.9758 38.9512 34.1335 38.3656 33.3168C37.5001 32.0661 36.711 30.9176 36.1254 29.4883C36.1 29.4628 36.1763 29.4372 36.1763 29.4628C36.66 30.2029 37.0164 30.9942 37.6019 31.6833C38.0602 32.2448 38.5438 32.8063 38.9766 33.3933C39.7149 34.3632 40.3767 35.3586 41.0641 36.3795C42.6424 38.7022 44.5517 41.1779 47.301 42.1733C49.7958 43.0921 55.2691 43.8578 56.2365 40.3356C56.8474 38.1151 56.7965 35.7415 57.0002 33.4444C57.2293 35.7415 57.1529 38.0896 57.7639 40.3356C58.7313 43.8578 64.2045 43.0921 66.6993 42.1733C69.4487 41.1779 71.3325 38.7022 72.9363 36.3795C73.6236 35.3841 74.2855 34.3632 75.0237 33.3933C75.4819 32.8063 75.9402 32.2448 76.3984 31.6833C76.9839 30.9942 77.3148 30.2029 77.824 29.4628C77.8494 29.4372 77.9004 29.4628 77.8749 29.4883C77.3149 30.9176 76.5002 32.0661 75.6347 33.3168C75.0746 34.1335 74.54 34.9758 73.98 35.818C76.9075 35.8691 79.6569 35.3586 82.3553 34.159C82.4572 34.1335 82.5336 34.2356 82.4572 34.2611ZM96.6876 27.3188C93.7855 26.7573 91.1635 26.7063 88.465 28.0335C85.8684 29.3096 84.6974 32.7042 85.4865 35.4352C85.8429 36.354 86.403 37.2218 86.9376 38.0896C86.9376 38.1151 86.9376 38.1151 86.9122 38.1151C86.4539 37.7068 86.0466 37.2729 85.7157 36.8134C85.6902 36.8134 85.6648 36.7879 85.6648 36.7624C85.5375 36.5327 85.4102 36.3285 85.2829 36.0733C85.1811 35.8691 85.1047 35.6904 85.0283 35.4862C84.061 32.8829 84.5956 29.6159 87.0394 28.0335C89.6615 26.3234 93.8874 25.9661 96.7386 27.2678C96.764 27.2678 96.7385 27.3443 96.6876 27.3188Z" fill="#555555"/>
</g>
<defs>
<filter id="filter0_d_23_1830" x="0.5" y="0" width="113" height="89" filterUnits="userSpaceOnUse" color-interpolation-filters="sRGB">
<feFlood flood-opacity="0" result="BackgroundImageFix"/>
<feColorMatrix in="SourceAlpha" type="matrix" values="0 0 0 0 0 0 0 0 0 0 0 0 0 0 0 0 0 0 127 0" result="hardAlpha"/>
<feOffset dy="4"/>
<feGaussianBlur stdDeviation="2"/>
<feComposite in2="hardAlpha" operator="out"/>
<feColorMatrix type="matrix" values="0 0 0 0 0 0 0 0 0 0 0 0 0 0 0 0 0 0 0.25 0"/>
<feBlend mode="normal" in2="BackgroundImageFix" result="effect1_dropShadow_23_1830"/>
<feBlend mode="normal" in="SourceGraphic" in2="effect1_dropShadow_23_1830" result="shape"/>
</filter>
</defs>
</svg>
