<svg width="18" height="24" viewBox="0 0 18 24" fill="none" xmlns="http://www.w3.org/2000/svg">
<path d="M16.5831 9.99726C16.3709 8.91216 16.2407 7.70728 16.4014 6.6084C16.6592 4.84287 17.1173 3.78042 16.6939 2.46301C15.7856 -0.363282 10.3024 0.017111 8.99989 0.017111C7.69724 0.017111 2.21413 -0.363209 1.30584 2.46301C0.882495 3.78042 1.34056 4.84287 1.59843 6.6084C1.7589 7.70721 1.6288 8.91216 1.41666 9.9974C0.521264 11.4121 0 13.0926 0 14.897C0 19.9245 4.02935 24 8.99989 24C13.9706 24 18 19.9245 18 14.897C17.9999 13.0927 17.4785 11.4122 16.5831 9.99726ZM4.79312 6.84995C4.75275 6.64572 4.70143 6.43466 4.63374 6.21254C4.24968 4.954 3.63369 2.69892 4.97243 2.57503C5.82702 2.49578 8.47863 2.45693 8.99989 2.45092C9.52108 2.45693 12.1728 2.49578 13.0272 2.57503C14.3661 2.69892 13.7501 4.954 13.366 6.21254C13.2982 6.43466 13.247 6.64572 13.2067 6.84995C11.9509 6.17699 10.5198 5.7944 8.99982 5.7944C7.47981 5.7944 6.0488 6.17699 4.79312 6.84995Z" fill="#555555"/>
</svg>
