<svg width="613" height="874" viewBox="0 0 613 874" fill="none" xmlns="http://www.w3.org/2000/svg">
<path d="M601.19 20.8338C592.599 6.27209 578.759 -2.79906 561.339 0.781691C554.18 2.21399 547.975 5.07857 542.248 8.65932C488.556 4.83985 449.182 48.0477 409.33 84.8101C411 94.3587 417.682 102.475 419.353 112.263C422.216 129.211 408.614 144.728 400.501 157.857C397.16 163.348 403.603 170.987 402.41 177.193C401.216 183.639 398.114 189.607 396.444 195.813C405.989 189.607 415.535 183.639 425.319 178.148C430.091 167.406 436.295 157.857 444.17 150.218C455.863 139.237 467.795 129.45 481.397 120.856C489.511 115.843 497.863 111.308 505.26 105.578C513.135 99.6104 516.237 89.1069 519.578 80.2744C519.817 79.797 520.533 79.797 520.294 80.2744C519.101 91.2554 516.476 100.804 509.317 109.398C498.578 122.05 481.397 129.211 468.749 139.476C458.011 148.07 446.795 158.096 440.114 170.271C438.443 173.374 437.011 176.477 435.58 179.581C433.193 194.142 431.523 208.943 431.284 223.982C432.716 232.576 435.102 241.17 437.727 250.002C442.739 266.712 446.079 284.139 455.386 298.939C455.863 299.655 454.67 300.61 454.193 299.894C442.739 287.003 435.341 272.442 429.852 256.209C429.375 254.776 428.898 253.344 428.421 251.912C413.625 259.79 400.024 269.577 388.331 282.945C388.331 282.945 388.331 282.945 388.331 283.184C380.933 296.313 374.49 309.681 369.717 324.482C369.479 325.198 368.047 325.198 368.047 324.243C368.524 319.707 369.24 315.41 370.194 310.875C350.865 317.559 336.547 329.734 323.184 345.25C322.945 345.489 322.707 345.25 322.707 345.012C331.298 324.482 350.865 309.681 371.626 302.759C371.865 302.759 371.865 302.759 372.104 302.759C373.297 297.746 374.967 292.732 376.638 287.958C374.729 280.08 373.297 272.203 372.342 264.086C375.922 257.402 378.547 250.241 380.456 242.841C384.035 229.472 385.706 215.866 388.808 202.497C389.046 202.02 389.046 201.304 389.285 200.826C390.239 200.11 391.194 199.633 392.149 198.917C392.626 187.697 399.308 176.955 395.728 166.212C395.251 165.974 394.774 165.496 394.535 164.78C393.58 162.632 390.717 164.78 390.001 165.735C389.285 166.69 389.046 167.884 388.808 169.077C388.569 170.032 388.092 170.987 387.853 172.18C387.615 172.897 386.421 173.135 386.183 172.18C385.706 170.271 385.705 168.6 386.66 166.929C387.615 165.019 389.046 163.109 390.478 161.438C391.671 160.245 393.342 159.29 395.012 159.528C396.444 148.547 408.614 136.134 412.194 127.063C416.489 115.843 411.955 107.249 406.467 97.9395C402.887 91.7329 401.694 84.5713 400.978 77.4098C400.739 73.3516 400.739 69.2934 400.978 64.9965C398.83 54.2542 395.012 44.2282 383.797 38.9764C377.353 35.8731 369.956 38.7376 363.513 36.3504C355.399 33.2471 349.672 27.2792 343.229 21.7888C334.4 14.3885 322.229 8.42063 310.536 7.9432C309.105 7.9432 307.673 7.9432 306.48 7.9432C305.048 7.9432 303.855 7.9432 302.423 7.9432C290.73 8.42063 278.56 14.3885 269.73 21.7888C263.287 27.2792 257.321 33.2471 249.447 36.3504C243.004 38.7376 235.606 35.8731 229.163 38.9764C217.947 44.4669 214.129 54.2542 211.981 64.9965C212.22 69.0546 212.22 73.3516 211.981 77.4098C211.266 84.5713 210.311 91.7329 206.493 97.9395C201.004 107.488 196.47 116.082 200.766 127.063C204.345 136.373 216.754 148.547 217.947 159.528C219.618 159.29 221.527 160.245 222.481 161.438C223.913 162.87 225.345 165.019 226.299 166.929C227.254 168.838 227.492 170.271 226.777 172.18C226.538 173.135 225.345 172.897 225.106 172.18C224.868 171.226 224.39 170.271 224.152 169.077C223.913 167.884 223.674 166.69 222.958 165.735C222.243 164.78 219.379 162.632 218.424 164.78C218.186 165.496 217.709 165.974 217.231 166.212C213.652 176.955 220.572 187.697 220.811 198.917C221.765 199.633 222.72 200.11 223.674 200.826C223.913 201.543 224.152 202.02 224.152 202.497C227.492 215.866 229.163 229.472 232.504 242.841C234.413 250.241 237.276 257.164 240.617 264.086C239.663 272.203 238.231 280.08 236.322 287.958C237.992 292.732 239.663 297.746 240.856 302.759C241.095 302.759 241.094 302.759 241.333 302.759C262.094 309.681 281.662 324.482 290.253 345.012C290.253 345.25 290.014 345.489 289.775 345.25C276.412 329.734 262.094 317.559 242.765 310.875C243.72 315.41 244.435 319.707 244.913 324.243C244.913 325.198 243.481 325.198 243.242 324.482C238.47 309.681 232.026 296.074 224.629 283.184C224.629 283.184 224.629 283.184 224.629 282.945C212.936 269.577 199.334 259.551 184.539 251.912C184.062 253.344 183.584 254.776 183.107 256.209C177.619 272.442 170.221 287.003 158.766 299.894C158.289 300.61 157.096 299.655 157.573 298.939C166.88 283.9 170.221 266.474 175.232 250.002C177.857 241.17 180.243 232.815 181.675 223.982C181.436 208.943 179.766 194.142 177.38 179.581C175.948 176.477 174.516 173.374 172.846 170.271C166.164 158.096 154.948 148.07 144.21 139.476C131.324 129.211 114.381 122.05 103.643 109.398C96.2449 100.804 93.8587 91.2554 92.6655 80.2744C92.6655 79.797 93.3812 79.797 93.3812 80.2744C96.7221 89.1069 99.8243 99.3717 107.699 105.578C115.097 111.308 123.449 115.843 131.562 120.856C145.164 129.45 157.096 138.999 168.789 150.218C176.664 157.619 183.107 167.406 187.641 178.148C197.425 183.639 207.209 189.607 216.516 195.813C214.606 189.607 211.743 183.4 210.55 177.193C209.357 170.987 215.799 163.348 212.459 157.857C204.345 144.489 190.504 129.211 193.607 112.263C195.277 102.475 201.959 94.5975 203.629 84.8101C163.778 48.2864 124.403 4.83985 70.7112 8.65932C64.984 5.07857 58.7796 2.21399 51.6206 0.781691C34.2005 -2.79906 20.3599 6.51081 11.7692 20.8338C-8.51453 54.9703 2.46266 96.9846 7.71256 135.179C2.70129 165.258 1.74653 195.575 9.86001 225.892C16.0644 248.57 25.8485 270.532 35.3938 292.016C36.1097 293.926 37.0642 295.597 37.7801 297.507C39.4506 341.192 48.2799 385.593 72.3818 420.207C71.1886 437.872 70.4728 455.776 69.7569 473.202C68.5637 506.623 79.0635 538.372 90.0406 569.405C100.063 597.335 113.188 623.594 131.324 646.988C139.915 657.969 148.982 668.473 157.812 678.976C158.766 698.312 157.335 717.648 157.096 736.985C156.857 754.65 157.812 774.702 163.3 792.844C161.153 802.632 159.244 812.419 157.335 822.445C155.187 833.426 155.426 840.349 166.641 844.407C199.811 856.582 235.606 869.472 270.923 872.815C282.616 874.008 294.548 874.247 306.718 873.769C318.65 874.008 330.581 873.769 342.513 872.815C377.831 869.472 413.626 856.582 446.795 844.407C458.011 840.349 458.25 833.426 456.102 822.445C454.193 812.658 452.284 802.632 450.136 792.844C455.625 774.702 456.579 754.65 456.341 736.985C456.102 717.648 454.67 698.312 455.625 678.976C464.454 668.234 473.522 657.731 482.113 646.988C500.487 623.594 513.612 597.335 523.396 569.405C534.373 538.372 544.873 506.384 543.68 473.202C543.203 456.015 542.487 438.111 541.055 420.207C565.157 385.593 574.225 341.192 575.657 297.507C576.611 295.597 577.327 293.926 578.043 292.016C587.35 270.532 597.372 248.57 603.577 225.892C611.69 195.575 610.736 165.258 605.724 135.179C610.497 96.7459 621.474 54.9703 601.19 20.8338ZM276.651 268.145C261.378 265.757 239.424 256.209 234.652 239.976C234.652 239.737 234.89 239.499 235.129 239.737C244.674 251.912 257.56 257.402 271.639 261.699C268.06 255.97 266.389 249.286 267.344 242.124C267.344 241.408 268.537 241.17 268.776 241.886C270.685 252.628 275.696 261.938 285.957 266.712C292.878 270.054 299.321 270.293 306.241 270.293C313.161 270.532 319.605 270.054 326.525 266.712C336.786 261.938 341.797 252.628 343.706 241.886C343.945 241.17 344.899 241.408 345.138 242.124C346.092 249.286 344.184 255.97 340.843 261.699C354.922 257.402 367.569 251.912 377.353 239.737C377.592 239.499 377.831 239.737 377.831 239.976C373.058 256.209 351.343 265.757 335.832 268.145C328.195 276.022 317.218 280.797 306.241 280.558C295.264 280.797 284.287 276.022 276.651 268.145ZM244.913 512.591C260.901 511.397 273.548 505.907 285.48 494.687C290.253 490.151 297.65 484.661 299.559 477.977C300.991 472.725 301.946 467.473 302.9 462.221C304.332 454.821 305.525 447.421 306.241 440.021C307.196 447.421 308.15 454.821 309.582 462.221C310.537 467.473 311.491 472.725 312.923 477.977C314.593 484.422 322.229 490.151 327.002 494.687C338.695 505.907 351.342 511.397 367.569 512.591C390.955 514.5 415.296 506.384 432 489.674C452.284 469.622 452.761 441.214 460.397 415.672C460.636 415.194 461.352 415.194 461.352 415.91C461.113 442.169 457.295 472.486 440.591 493.732C424.364 514.5 396.205 523.333 370.672 522.856C357.308 522.617 344.184 519.513 332.968 512.352C323.9 506.623 311.252 496.358 306.003 486.093C300.753 496.358 288.105 506.623 279.037 512.352C267.583 519.513 254.696 522.617 241.333 522.856C215.799 523.094 187.641 514.5 171.414 493.732C154.71 472.486 151.13 442.169 150.653 415.91C150.653 415.194 151.607 415.194 151.607 415.672C159.244 441.214 159.96 469.622 180.005 489.674C197.186 506.384 221.288 514.5 244.913 512.591ZM312.445 663.699C312.445 663.221 313.161 663.221 313.4 663.699C314.116 670.621 314.832 677.783 315.309 684.944C316.263 696.164 320.559 702.132 328.673 709.293C333.445 713.352 337.74 717.648 342.513 721.945C349.911 728.63 358.501 726.004 366.376 721.945C368.763 720.274 371.388 718.603 374.013 717.41C374.729 716.932 375.206 716.694 375.922 716.216C376.16 715.978 376.638 715.978 376.876 716.216C377.831 715.739 378.785 715.5 379.74 715.023C386.421 712.636 395.012 710.248 401.932 712.158C402.171 712.158 402.171 712.635 401.932 712.874C389.046 714.307 376.399 721.229 365.183 727.913C363.035 729.346 360.649 730.539 358.263 731.494H358.024C356.354 731.972 354.683 732.688 353.013 732.927C344.899 734.359 337.979 727.197 332.729 722.184C326.763 716.455 315.548 709.055 313.4 700.461C310.298 689.003 311.968 675.396 312.445 663.699ZM311.014 603.542C311.014 603.064 311.491 603.064 311.729 603.542C312.445 610.465 312.923 617.149 313.4 624.071C314.116 634.814 321.036 638.872 330.104 641.498C342.275 645.317 354.445 637.201 365.899 641.498C367.57 642.214 366.854 644.362 365.183 644.124C355.638 641.975 348.718 647.943 339.411 648.182C331.536 648.421 325.093 646.75 318.411 642.93C305.048 635.769 310.298 615.716 311.014 603.542ZM386.66 668.473C377.353 669.189 362.558 668.473 363.035 655.821C363.035 655.105 364.229 654.389 364.706 655.105C374.729 666.324 391.671 662.266 402.41 654.866C409.33 650.092 416.25 646.272 424.364 644.601C424.603 644.601 424.841 644.84 424.603 644.84C415.773 648.898 408.853 653.434 402.41 660.834C398.353 665.37 392.626 668.234 386.66 668.473ZM294.071 642.93C287.151 646.511 280.707 648.182 273.071 648.182C264.003 647.943 257.083 641.975 247.299 644.124C245.628 644.601 245.151 642.214 246.583 641.498C258.037 636.962 270.208 645.317 282.378 641.498C291.446 638.633 298.366 634.575 299.082 624.071C299.559 617.149 300.037 610.465 300.752 603.542C300.752 603.064 301.23 603.064 301.468 603.542C301.946 615.716 307.196 635.769 294.071 642.93ZM299.321 700.222C297.173 708.816 286.196 716.216 279.992 721.945C274.742 726.958 267.821 733.881 259.708 732.688C258.037 732.449 256.367 731.972 254.697 731.255C254.458 731.255 254.458 731.255 254.458 731.255C252.071 730.301 249.685 729.107 247.538 727.675C236.322 720.991 223.674 714.068 210.788 712.636C210.55 712.636 210.311 712.158 210.788 711.919C217.709 710.01 226.538 712.158 232.981 714.784C233.935 715.023 234.89 715.5 235.845 715.977C236.083 715.977 236.561 715.977 236.799 715.977C237.515 716.455 237.992 716.694 238.708 717.171C241.333 718.365 243.958 720.036 246.345 721.707C254.219 726.004 262.572 728.63 270.208 721.707C274.742 717.649 279.276 713.113 284.048 709.055C292.162 701.893 296.457 695.925 297.412 684.706C297.889 677.544 298.605 670.621 299.321 663.46C299.321 662.982 300.037 662.982 300.275 663.46C300.275 675.396 301.946 689.003 299.321 700.222ZM247.538 655.344C248.015 654.627 249.208 655.343 249.208 656.06C249.685 668.712 234.89 669.189 225.583 668.712C219.618 668.234 213.89 665.608 210.072 661.073C203.629 653.672 196.709 649.137 187.88 645.079C187.641 645.079 187.88 644.601 188.118 644.84C196.47 646.511 203.391 650.33 210.072 655.105C220.333 662.505 237.515 666.563 247.538 655.344ZM57.8253 286.526C46.3709 266.474 37.5413 240.931 33.7232 218.014C29.9051 193.904 30.6212 170.032 29.1894 145.922C29.1894 145.205 30.144 145.205 30.3826 145.922C32.2917 172.18 37.3028 199.155 43.9845 224.459C49.2344 244.034 60.4501 265.519 59.7342 286.048C59.7342 287.003 58.3025 287.481 57.8253 286.526ZM62.1205 295.597C62.3591 295.597 62.3591 295.597 62.1205 295.597V295.597ZM69.7569 135.179C61.1661 125.392 50.1889 118.469 41.5982 108.443C26.0871 90.5392 29.9051 60.9384 39.689 41.3636C39.689 41.1249 40.1665 41.3635 40.1665 41.6022C34.9165 58.0737 30.3824 80.7519 40.6436 96.2685C47.8026 107.249 58.7797 113.456 67.8477 122.527C85.9837 140.67 87.8927 167.167 85.9837 191.278C85.745 193.187 83.1202 193.187 83.1202 191.278C81.9271 172.419 83.1203 150.457 69.7569 135.179ZM96.0064 330.45C87.8929 342.147 80.9726 355.038 74.5295 368.883C74.0523 369.838 72.8589 369.361 72.8589 368.406C72.8589 352.173 79.302 336.656 89.5632 323.766C89.8018 322.811 90.5178 322.095 91.4723 321.378C101.018 310.397 113.426 301.565 126.551 296.552C127.267 296.313 127.506 297.268 127.029 297.507C118.676 303.952 111.517 310.875 105.074 318.514C129.653 317.559 152.323 335.702 169.028 352.889C169.744 353.605 168.789 355.038 167.835 354.321C145.642 338.566 124.642 323.049 96.0064 330.45ZM125.119 377.238C124.881 377.238 124.881 376.522 125.119 376.522C143.971 373.896 162.107 393.232 180.959 385.355C181.198 385.355 181.436 385.116 181.675 385.116C182.152 384.877 182.868 384.4 183.346 384.161C187.164 381.535 190.743 378.193 194.323 374.851C194.8 374.374 195.277 374.851 195.039 375.567C191.459 382.013 187.641 387.264 182.391 390.845C165.925 406.123 140.869 380.819 125.119 377.238ZM138.483 538.611C141.108 539.804 142.54 541.237 144.21 543.624C148.505 551.024 151.846 553.889 160.914 555.799C167.596 557.231 174.039 559.141 180.721 560.573C188.357 562.244 190.505 559.618 192.652 553.173C192.891 552.456 194.323 552.218 194.323 553.173C197.663 568.212 188.834 569.883 175.471 566.063C168.073 563.915 153.994 562.244 148.505 556.276C143.733 551.024 143.255 543.624 138.006 539.088C138.006 538.85 138.244 538.611 138.483 538.611ZM168.55 607.6C157.573 602.11 148.983 594.232 142.54 583.967C141.824 583.012 143.494 581.819 144.21 582.773C154.232 593.516 173.084 608.316 188.834 603.064C189.311 602.826 189.55 603.064 190.027 603.064C190.266 602.826 190.505 602.348 190.743 602.109C190.982 601.871 191.459 602.348 191.22 602.587C190.982 602.826 190.743 603.064 190.266 603.303C190.982 603.781 191.459 604.735 191.22 605.452C187.641 614.762 175.471 611.181 168.55 607.6ZM219.856 832.471C210.311 834.62 200.766 829.368 194.084 822.923C185.255 814.568 184.777 801.916 181.436 790.696C181.436 790.457 181.914 790.219 181.914 790.457C184.777 798.096 188.596 811.703 195.277 817.432C202.675 823.639 210.311 827.697 219.856 830.084C220.811 830.8 220.811 832.233 219.856 832.471ZM301.707 846.078C289.06 842.497 275.935 838.439 263.764 833.426C255.651 830.084 247.06 826.265 240.856 820.058C224.868 803.825 227.97 778.044 226.538 757.037C226.538 756.798 227.015 756.559 227.015 757.037C230.595 778.044 229.64 807.406 250.163 819.819C266.628 829.845 285.48 835.336 302.9 843.93C304.093 844.407 303.139 846.317 301.707 846.078ZM279.037 580.148C270.685 583.49 262.571 588.98 253.981 591.129C238.947 594.709 227.97 589.219 217.947 578.238C217.47 577.76 218.186 577.044 218.663 577.522C227.015 583.967 237.754 588.98 248.492 585.399C256.844 582.535 264.003 577.522 272.117 573.941C283.094 569.167 294.548 565.586 306.241 564.154C317.934 565.586 329.388 568.928 340.365 573.941C348.479 577.522 355.638 582.535 363.99 585.399C374.728 589.219 385.228 583.967 393.819 577.522C394.296 577.044 394.774 577.999 394.535 578.238C384.512 589.219 373.535 594.709 358.502 591.129C349.672 588.98 341.559 583.49 333.445 580.148C324.616 576.567 315.548 574.418 306.48 572.986C296.934 574.418 287.866 576.567 279.037 580.148ZM371.387 820.058C365.183 826.265 356.354 830.084 348.479 833.426C336.309 838.439 323.184 842.736 310.536 846.078C309.105 846.556 308.15 844.407 309.582 843.691C326.764 835.097 345.854 829.846 362.32 819.581C382.603 806.929 381.887 777.805 385.467 756.798C385.467 756.559 385.944 756.559 385.944 756.798C384.274 778.044 387.376 803.587 371.387 820.058ZM418.16 823.161C411.478 829.607 401.932 834.859 392.387 832.71C391.433 832.471 391.433 830.8 392.387 830.562C401.694 828.174 409.33 824.116 416.966 817.91C423.648 812.18 427.466 798.574 430.33 790.935C430.33 790.696 430.807 790.696 430.807 791.173C427.466 802.154 426.989 814.806 418.16 823.161ZM469.704 583.967C463.261 594.232 454.432 602.11 443.693 607.6C436.773 610.942 424.602 614.762 421.262 605.213C421.023 604.497 421.5 603.542 422.216 603.064C421.978 602.826 421.739 602.587 421.262 602.348C421.023 602.11 421.5 601.632 421.739 601.871C421.978 602.11 422.216 602.587 422.455 602.826C422.693 602.587 423.171 602.587 423.648 602.826C439.398 608.316 458.25 593.277 468.272 582.535C468.988 581.819 470.42 583.012 469.704 583.967ZM473.999 538.85C468.749 543.624 468.272 551.024 463.5 556.037C458.011 562.005 443.932 563.676 436.534 565.825C423.171 569.883 414.341 568.212 417.682 552.934C417.921 551.979 419.114 552.218 419.353 552.934C421.5 559.379 423.648 562.005 431.284 560.334C437.966 558.902 444.409 556.992 451.091 555.56C460.159 553.65 463.499 550.785 467.795 543.385C469.227 540.998 470.897 539.566 473.522 538.372C473.999 538.611 474.238 538.85 473.999 538.85ZM487.124 377.238C471.374 380.819 446.318 406.123 429.852 390.845C424.364 387.264 420.546 381.774 417.205 375.567C416.966 375.09 417.682 374.612 417.921 374.851C421.262 378.193 424.841 381.535 428.898 384.161C429.375 384.638 430.091 384.877 430.568 385.116C430.807 385.116 431.046 385.116 431.284 385.355C450.136 393.232 468.272 373.896 487.124 376.522C487.363 376.522 487.363 377.238 487.124 377.238ZM537.714 368.883C531.271 355.038 524.589 342.147 516.237 330.45C487.601 323.049 466.363 338.566 444.409 354.56C443.455 355.276 442.5 353.844 443.216 353.128C459.92 335.94 482.351 317.798 507.169 318.753C500.726 311.352 493.567 304.191 485.215 297.745C484.738 297.268 484.976 296.313 485.692 296.791C499.056 301.804 511.226 310.397 520.771 321.617C521.726 322.095 522.442 323.049 522.68 324.004C532.941 336.656 539.384 352.173 539.384 368.644C539.384 369.122 538.191 369.599 537.714 368.883ZM542.487 135.179C529.123 150.457 530.317 172.18 529.362 191.278C529.362 193.187 526.498 193.187 526.498 191.278C524.589 166.929 526.499 140.67 544.635 122.527C553.703 113.456 564.679 107.249 571.838 96.2685C582.1 80.5131 577.566 58.0737 572.316 41.6022C572.316 41.3635 572.554 41.1249 572.793 41.3636C582.338 61.1771 586.395 90.5392 570.884 108.443C562.055 118.469 551.078 125.392 542.487 135.179ZM550.123 295.597C549.884 295.597 549.884 295.597 550.123 295.597V295.597ZM578.52 218.014C574.941 240.931 565.873 266.235 554.418 286.526C553.941 287.481 552.509 287.003 552.509 286.048C551.793 265.519 563.248 244.034 568.259 224.459C574.941 199.155 579.713 172.18 581.861 145.922C581.861 145.205 583.054 145.205 583.054 145.922C581.622 170.271 582.338 193.904 578.52 218.014Z" fill="#555555"/>
</svg>
