<svg width="24" height="24" viewBox="0 0 24 24" fill="none" xmlns="http://www.w3.org/2000/svg">
<path d="M15.94 7.61999L11.06 9.61999C10.7251 9.75225 10.421 9.95185 10.1664 10.2064C9.91182 10.461 9.71222 10.7651 9.57996 11.1L7.57996 15.98C7.54712 16.0636 7.54866 16.1567 7.58426 16.2392C7.61985 16.3216 7.68661 16.3866 7.76996 16.42C7.85062 16.4499 7.93931 16.4499 8.01996 16.42L12.9 14.42C13.2348 14.2877 13.539 14.0881 13.7935 13.8336C14.0481 13.579 14.2477 13.2748 14.38 12.94L16.38 8.05999C16.4128 7.97643 16.4113 7.88326 16.3757 7.80082C16.3401 7.71839 16.2733 7.65338 16.19 7.61999C16.1093 7.59013 16.0206 7.59013 15.94 7.61999ZM12 13C11.8022 13 11.6088 12.9413 11.4444 12.8315C11.2799 12.7216 11.1518 12.5654 11.0761 12.3827C11.0004 12.2 10.9806 11.9989 11.0192 11.8049C11.0578 11.6109 11.153 11.4327 11.2929 11.2929C11.4327 11.153 11.6109 11.0578 11.8049 11.0192C11.9989 10.9806 12.1999 11.0004 12.3826 11.0761C12.5654 11.1518 12.7216 11.28 12.8314 11.4444C12.9413 11.6089 13 11.8022 13 12C13 12.2652 12.8946 12.5196 12.7071 12.7071C12.5195 12.8946 12.2652 13 12 13Z" fill="#555555"/>
<path d="M12 21C10.22 21 8.47991 20.4722 6.99987 19.4832C5.51983 18.4943 4.36628 17.0887 3.68509 15.4442C3.0039 13.7996 2.82567 11.99 3.17294 10.2442C3.5202 8.49836 4.37737 6.89472 5.63604 5.63604C6.89472 4.37737 8.49836 3.5202 10.2442 3.17294C11.99 2.82567 13.7996 3.0039 15.4442 3.68509C17.0887 4.36628 18.4943 5.51983 19.4832 6.99987C20.4722 8.47991 21 10.22 21 12C21 14.387 20.0518 16.6761 18.364 18.364C16.6761 20.0518 14.387 21 12 21ZM12 4.5C10.5166 4.5 9.0666 4.93987 7.83323 5.76398C6.59986 6.58809 5.63856 7.75943 5.07091 9.12988C4.50325 10.5003 4.35473 12.0083 4.64411 13.4632C4.9335 14.918 5.64781 16.2544 6.6967 17.3033C7.7456 18.3522 9.08197 19.0665 10.5368 19.3559C11.9917 19.6453 13.4997 19.4968 14.8701 18.9291C16.2406 18.3614 17.4119 17.4001 18.236 16.1668C19.0601 14.9334 19.5 13.4834 19.5 12C19.5 10.0109 18.7098 8.10323 17.3033 6.6967C15.8968 5.29018 13.9891 4.5 12 4.5Z" fill="#555555"/>
</svg>
