<svg width="65" height="43" viewBox="0 0 65 43" fill="none" xmlns="http://www.w3.org/2000/svg">
<g style="mix-blend-mode:multiply" filter="url(#filter0_d_23_2023)">
<mask id="path-1-outside-1_23_2023" maskUnits="userSpaceOnUse" x="12.5" y="0.5" width="40" height="28" fill="black">
<rect fill="white" x="12.5" y="0.5" width="40" height="28"/>
<path d="M50.4451 8.44288C50.2269 8.04112 49.7555 7.82055 49.5199 7.4188C49.2493 6.9619 49.0922 6.44198 48.778 6.00084C48.5423 5.66999 48.2543 5.36276 47.9226 5.11068C47.1807 4.5435 46.3167 4.14174 45.505 3.65334C45.0511 3.3855 44.5972 3.08615 44.2306 2.72379C43.9339 2.42444 43.6633 2.01481 43.2618 1.81787C42.3803 1.36885 41.202 1.88089 40.3466 2.27477C40.015 2.21175 39.6746 2.37718 39.596 2.66865C39.4651 2.67652 39.3429 2.69228 39.212 2.70803C39.1247 2.71591 39.0636 2.77893 39.0811 2.85771C39.212 3.33036 38.9501 3.80301 39.0549 4.27566C39.1247 4.60652 39.3254 4.87435 39.596 5.1028C39.788 5.26035 40.0761 5.56758 40.3728 5.49668C40.5648 5.44941 40.6259 5.30762 40.6434 5.15007C41.4289 5.0004 42.1883 4.60652 42.677 4.02358C43.0611 4.34656 43.4015 4.7168 43.6371 5.14219C43.9426 5.69362 44.0124 6.27656 44.1957 6.86737C44.283 7.15096 44.4227 7.40304 44.5885 7.63149C44.9464 7.93084 45.278 8.10414 45.7668 8.15141C46.081 8.18292 46.4039 8.21443 46.7094 8.26957C46.7182 8.26957 46.7182 8.28533 46.7094 8.28533C46.2992 8.31684 45.889 8.32471 45.4875 8.31684C45.3304 8.31684 45.1907 8.26957 45.0598 8.20655C44.2917 8.19867 43.5411 7.96235 42.7731 8.1908C42.677 8.22231 42.581 8.26169 42.485 8.30108C42.4152 8.32471 42.3454 8.35622 42.2668 8.37986C42.1446 8.42712 42.0573 8.5059 41.9788 8.59255C41.8741 8.70284 41.7868 8.821 41.6646 8.90765C41.2369 9.22275 40.8616 9.593 40.5125 9.98687C40.5037 10.0026 40.4776 9.98687 40.4776 9.97112C40.591 9.60875 40.7918 9.30941 41.0536 9.04157C39.1509 8.68708 37.1521 9.0652 35.5724 10.0972C35.3803 10.0026 35.1796 9.9081 34.9788 9.82145C34.9876 9.04157 35.0225 8.26957 35.0574 7.49757C35.3629 7.46606 35.616 7.20611 35.6858 6.90676C35.7731 6.52864 35.9477 5.75664 35.4763 5.52031H35.4676C35.4938 4.91374 35.5113 4.30717 35.4589 3.70848C35.4152 3.17281 35.0399 3.11767 34.6646 2.77893C33.9926 2.18812 33.5562 1.25857 32.5001 1.55791C31.4527 1.25857 31.0076 2.18812 30.3355 2.77893C29.9515 3.11767 29.5849 3.17281 29.5412 3.70848C29.4889 4.30717 29.515 4.92162 29.5325 5.52031H29.5238C29.0612 5.75664 29.227 6.52076 29.3143 6.90676C29.3841 7.20611 29.6285 7.46606 29.9427 7.49757C29.9864 8.26957 30.0213 9.04945 30.0213 9.82145C29.8205 9.9081 29.6198 10.0026 29.4278 10.0972C27.848 9.07308 25.8492 8.68708 23.9465 9.04157C24.2084 9.30941 24.4091 9.61663 24.5226 9.97112C24.5313 9.98687 24.5051 10.0026 24.4877 9.98687C24.1385 9.593 23.7719 9.23063 23.3355 8.90765C23.2133 8.821 23.1261 8.70284 23.0213 8.59255C22.9428 8.5059 22.8468 8.42712 22.7333 8.37986C22.6635 8.35622 22.5937 8.32471 22.5151 8.30108C22.4191 8.26169 22.3231 8.23018 22.2271 8.1908C21.459 7.96235 20.7084 8.1908 19.9403 8.20655C19.8094 8.26957 19.6697 8.31684 19.5126 8.31684C19.1024 8.32471 18.6922 8.30896 18.2907 8.28533C18.282 8.28533 18.282 8.27745 18.2907 8.26957C18.6049 8.22231 18.9191 8.18292 19.2333 8.15141C19.7221 8.11202 20.0538 7.93084 20.4116 7.63149C20.5775 7.40304 20.7084 7.15884 20.8044 6.86737C20.9877 6.27656 21.0575 5.7015 21.363 5.14219C21.5986 4.7168 21.939 4.34656 22.3231 4.02358C22.8119 4.60652 23.5712 5.0004 24.3567 5.15007C24.3742 5.29974 24.444 5.44941 24.6273 5.49668C24.9241 5.56758 25.2208 5.26035 25.4041 5.1028C25.6834 4.87435 25.8754 4.60652 25.9452 4.27566C26.05 3.80301 25.7881 3.33824 25.9191 2.85771C25.9452 2.77893 25.8754 2.71591 25.7881 2.70803C25.6572 2.69228 25.535 2.6844 25.4041 2.66865C25.3168 2.37718 24.9852 2.21175 24.6535 2.27477C23.7981 1.87301 22.6198 1.36885 21.7383 1.81787C21.3368 2.02269 21.0662 2.42444 20.7695 2.72379C20.4029 3.09403 19.949 3.3855 19.4952 3.65334C18.6835 4.13387 17.8194 4.5435 17.0775 5.11068C16.7458 5.37064 16.4578 5.66999 16.2221 6.00084C15.9079 6.44198 15.7595 6.9619 15.4802 7.4188C15.2446 7.82055 14.7733 8.04112 14.5551 8.44288C14.3543 8.81312 14.7471 9.1361 15.0176 9.35667C16.0563 10.2153 17.0949 11.0819 18.1336 11.9484C18.9366 12.618 19.7657 13.4057 20.8917 13.5633C21.2844 13.6184 21.6772 13.5475 22.0612 13.4766C22.3929 13.5712 22.7333 13.6578 23.0737 13.7287C23.5363 15.9029 24.8019 17.9353 26.4864 19.5581C26.4777 19.3611 26.4777 19.1721 26.5126 18.9673C26.6784 18.0613 26.9315 17.116 27.7258 16.478C27.7432 16.4622 27.7781 16.4858 27.7694 16.5095C27.4116 17.0136 27.1323 17.502 27.0014 18.0929C26.8879 18.6364 26.7308 19.2351 26.8181 19.7944C26.8355 19.8968 26.8442 20.0071 26.853 20.1095C27.0799 20.85 27.2021 21.622 27.2021 22.4176C27.1934 23.1896 26.9926 23.9144 26.8355 24.6627C26.7046 25.2929 27.1759 25.5765 27.7345 25.8365C29.1485 26.4982 30.8243 26.5376 32.3866 26.4824C32.4215 26.4824 32.4477 26.4824 32.4826 26.4746C32.4826 26.4746 32.4826 26.4746 32.4913 26.4746C32.4913 26.4746 32.4913 26.4746 32.5001 26.4746C32.535 26.4746 32.5612 26.4746 32.5961 26.4824C34.1497 26.5376 35.8342 26.4982 37.2481 25.8365C37.8067 25.5765 38.2868 25.3008 38.1472 24.6627C37.99 23.9065 37.7806 23.1896 37.7806 22.4176C37.7718 21.622 37.9028 20.85 38.1297 20.1095C38.1384 20.0071 38.1471 19.8968 38.1646 19.7944C38.2519 19.2351 38.0948 18.6364 37.9813 18.0929C37.8504 17.502 37.5711 17.0136 37.2132 16.5095C37.1958 16.4858 37.2307 16.4622 37.2569 16.478C38.0511 17.116 38.3043 18.0613 38.4701 18.9673C38.505 19.1721 38.505 19.369 38.4963 19.5581C40.1808 17.9353 41.4464 15.9029 41.909 13.7287C42.2494 13.6578 42.5898 13.579 42.9214 13.4766C43.3055 13.5475 43.6982 13.6184 44.091 13.5633C45.2256 13.4057 46.0461 12.618 46.8491 11.9484C47.8877 11.0819 48.9264 10.2153 49.965 9.35667C50.253 9.1361 50.6458 8.821 50.4451 8.44288ZM22.8991 12.4525C22.8729 12.5156 22.8468 12.5786 22.8119 12.6337C22.7769 12.7046 22.7333 12.7755 22.6809 12.8464C22.6722 12.8543 22.6722 12.8622 22.6635 12.8622C22.55 13.0118 22.4104 13.1458 22.2533 13.2639C22.2533 13.2639 22.2445 13.2639 22.2445 13.2561C22.4278 12.9961 22.6198 12.7283 22.742 12.4368C23.0126 11.5939 22.6111 10.5462 21.7208 10.1523C20.7869 9.73479 19.8967 9.75055 18.9017 9.93173C18.8842 9.93173 18.8755 9.91598 18.8929 9.9081C19.8705 9.50634 21.3193 9.61663 22.2183 10.1444C23.0475 10.6407 23.2308 11.649 22.8991 12.4525ZM30.2569 8.60043C30.5973 8.97855 31.1821 9.2779 31.7494 9.37243C31.4614 9.15973 31.313 8.90765 31.2083 8.56892C31.1996 8.54529 31.2345 8.52953 31.2519 8.55316C31.4352 8.85251 31.636 9.17549 32.0287 9.29365C32.1946 9.34092 32.3517 9.35667 32.5001 9.35667C32.6572 9.35667 32.8055 9.34092 32.9714 9.29365C33.3554 9.17549 33.5562 8.86039 33.7482 8.55316C33.7656 8.52953 33.8005 8.54529 33.7918 8.56892C33.6958 8.90765 33.5387 9.15973 33.2507 9.37243C33.818 9.2779 34.4028 8.97855 34.7432 8.60043C34.7606 8.58467 34.7868 8.60831 34.7781 8.62406C34.5075 9.207 33.7045 9.48271 33.0238 9.51422C32.8666 9.593 32.6834 9.64026 32.5001 9.65602C32.3168 9.64814 32.1335 9.593 31.9764 9.51422C31.2956 9.48271 30.4926 9.207 30.222 8.62406C30.2133 8.60831 30.2395 8.58467 30.2569 8.60043ZM29.8205 10.1917C30.2918 10.0656 30.7719 10.1996 31.1821 10.4201C31.6534 10.6722 32.0113 10.9558 32.5088 10.9952C32.9976 10.9558 33.3641 10.6722 33.8355 10.4201C34.2457 10.1996 34.7257 10.0656 35.197 10.1917C35.2058 10.1917 35.2058 10.2074 35.197 10.2153C34.4464 10.2626 33.9315 10.6328 33.338 11.011C33.0848 11.1764 32.8055 11.2709 32.5088 11.2945C32.212 11.2788 31.9327 11.1764 31.6796 11.011C31.0948 10.6328 30.5711 10.2626 29.8205 10.2153C29.8118 10.2074 29.8031 10.1917 29.8205 10.1917ZM26.6348 17.3366C26.1722 17.2893 26.1373 16.6985 26.2245 16.3756C26.3991 15.7847 26.8442 15.1624 27.2545 14.6819H27.2632C27.1672 15.1388 26.7657 15.4933 26.5999 15.9265C26.4427 16.3283 26.2944 16.9033 26.6784 17.2342C26.7133 17.2736 26.6959 17.3366 26.6348 17.3366ZM27.621 16.478C27.5861 16.5016 27.5425 16.4543 27.5687 16.4307C27.6821 16.2731 27.7694 16.0132 27.4901 15.9502C27.3156 15.9029 27.1323 15.9265 26.949 15.895C26.9402 15.895 26.9402 15.8793 26.949 15.8793C27.1759 15.8005 27.5949 15.7611 27.752 15.9738C27.8829 16.1471 27.8043 16.3677 27.621 16.478ZM29.7071 18.2189C29.7158 18.1874 29.7682 18.1953 29.7682 18.2268C29.7594 18.6128 29.6722 19.0066 29.6809 19.3926C29.6896 19.8259 30.4315 20.1253 30.833 20.2119C30.8679 20.2198 30.8592 20.2671 30.8243 20.2671C30.4315 20.2828 29.7507 20.1568 29.5674 19.7786C29.3492 19.3296 29.5936 18.6758 29.7071 18.2189ZM31.5749 24.7651C31.1472 24.9857 30.5973 24.6312 30.318 24.3476C29.9602 23.9853 29.8467 23.4417 29.8467 22.9769C29.8467 22.9533 29.8816 22.9533 29.8904 22.969C30.0038 23.4023 30.126 23.875 30.4839 24.2058C30.6672 24.3712 30.8766 24.5288 31.1297 24.5997C31.2868 24.6391 31.4352 24.6548 31.5836 24.7179C31.6011 24.7179 31.5923 24.7494 31.5749 24.7651ZM31.6622 22.2758C31.0948 22.134 30.3093 22.8115 29.8293 22.2443C29.6721 22.0553 29.5936 21.8662 29.6111 21.6299C29.6547 21.2124 29.7245 20.8185 29.6547 20.401C29.646 20.3616 29.7071 20.3458 29.7245 20.3852C29.8031 20.6767 29.8729 20.9682 29.8554 21.2675C29.8467 21.5905 29.7769 22.1262 30.2569 22.2207C30.7457 22.3152 31.2083 21.9844 31.6883 22.2128C31.7233 22.2364 31.6971 22.2916 31.6622 22.2758ZM34.6995 24.3397C34.4202 24.6233 33.8704 24.9778 33.4427 24.7572C33.4165 24.7494 33.4165 24.71 33.4427 24.7021C33.5911 24.647 33.7482 24.6233 33.8966 24.5839C34.1497 24.5209 34.3591 24.3634 34.5424 24.1901C34.9003 23.8592 35.0225 23.3866 35.136 22.9533C35.1447 22.9297 35.1796 22.9375 35.1796 22.9612C35.1709 23.4417 35.0574 23.9774 34.6995 24.3397ZM35.1883 22.2522C34.7083 22.8115 33.9227 22.1419 33.3554 22.2837C33.3118 22.2916 33.2856 22.2443 33.3292 22.2207C33.8006 21.9922 34.2719 22.3231 34.7606 22.2286C35.2407 22.134 35.1709 21.5984 35.1621 21.2754C35.1534 20.976 35.2145 20.6846 35.2931 20.3931C35.3018 20.3537 35.3629 20.3695 35.3629 20.4089C35.2931 20.8264 35.3629 21.2202 35.4065 21.6377C35.424 21.8741 35.3454 22.0631 35.1883 22.2522ZM35.4502 19.7865C35.2756 20.1646 34.5861 20.2907 34.1933 20.2749C34.1584 20.2749 34.1497 20.2277 34.1846 20.2198C34.5861 20.1331 35.328 19.8338 35.3367 19.4005C35.3454 19.0145 35.2581 18.6207 35.2494 18.2347C35.2494 18.2031 35.3018 18.1953 35.3105 18.2268C35.424 18.6758 35.6684 19.3296 35.4502 19.7865ZM36.2532 17.3996C35.712 17.5178 35.2232 17.3445 34.7519 17.116C34.429 16.9585 34.1148 16.8088 33.7569 16.73C33.3729 16.6434 32.919 16.6907 32.5088 16.73C32.0986 16.6907 31.6447 16.6434 31.2607 16.73C30.9028 16.8167 30.5886 16.9664 30.2657 17.116C29.7943 17.3445 29.3056 17.5178 28.7644 17.3996C28.747 17.3918 28.7557 17.3681 28.7732 17.376C29.6285 17.4863 30.1784 16.8718 30.9028 16.5882C31.4265 16.3834 31.9676 16.4386 32.5175 16.4543C33.0674 16.4386 33.6085 16.3834 34.1322 16.5882C34.8479 16.8718 35.4065 17.4863 36.2619 17.376C36.2619 17.3681 36.2793 17.3918 36.2532 17.3996ZM38.0773 15.895C37.894 15.9265 37.7107 15.9029 37.5362 15.9502C37.2569 16.0211 37.3442 16.2731 37.4576 16.4307C37.4751 16.4622 37.4402 16.5016 37.4053 16.478C37.222 16.3598 37.1434 16.1392 37.2743 15.9659C37.4314 15.7532 37.8591 15.7926 38.0773 15.8714C38.0773 15.8793 38.086 15.895 38.0773 15.895ZM38.3741 17.3366C38.3217 17.3445 38.2955 17.2736 38.3304 17.2421C38.7145 16.9033 38.5661 16.3283 38.409 15.9344C38.2344 15.5011 37.8329 15.1467 37.7457 14.6898C37.7457 14.6898 37.7457 14.6819 37.7544 14.6898C38.1646 15.1703 38.6097 15.7847 38.7843 16.3834C38.8803 16.6907 38.8367 17.2893 38.3741 17.3366ZM41.2282 12.0744C40.3205 12.5786 39.2469 12.8228 38.1908 12.7676C38.0948 12.9016 37.9988 13.0276 37.894 13.1536C37.2743 13.9414 36.515 14.5716 35.4676 14.8394C34.5599 15.0679 33.434 15.0364 32.7706 14.3589C32.6397 14.2171 32.5524 14.0596 32.5088 13.8863C32.4564 14.0596 32.3779 14.225 32.2469 14.3589C31.5923 15.0364 30.4577 15.0679 29.55 14.8394C28.5026 14.5795 27.7432 13.9414 27.1235 13.1536C27.0188 13.0276 26.9228 12.8937 26.8268 12.7676C25.762 12.8228 24.6884 12.5786 23.7894 12.0744C23.7719 12.0587 23.7894 12.035 23.8069 12.0429C24.732 12.4132 25.6747 12.5707 26.6784 12.5549C26.4951 12.295 26.3118 12.035 26.1111 11.783C25.8143 11.397 25.5438 11.0425 25.343 10.6013C25.3343 10.5934 25.3605 10.5856 25.3605 10.5934C25.5263 10.8219 25.6485 11.0661 25.8492 11.2788C26.0063 11.4521 26.1722 11.6254 26.3206 11.8066C26.5737 12.1059 26.8006 12.4132 27.0363 12.7283C27.5774 13.4451 28.232 14.2092 29.1746 14.5165C30.03 14.8 31.9066 15.0364 32.2382 13.9493C32.4477 13.2639 32.4302 12.5313 32.5001 11.8223C32.5786 12.5313 32.5524 13.2561 32.7619 13.9493C33.0936 15.0364 34.9701 14.8 35.8255 14.5165C36.7681 14.2092 37.414 13.4451 37.9639 12.7283C38.1995 12.421 38.4264 12.1059 38.6796 11.8066C38.8367 11.6254 38.9938 11.4521 39.1509 11.2788C39.3516 11.0661 39.4651 10.8219 39.6397 10.5934C39.6484 10.5856 39.6658 10.5934 39.6571 10.6013C39.4651 11.0425 39.1858 11.397 38.889 11.783C38.697 12.035 38.5137 12.295 38.3217 12.5549C39.3254 12.5707 40.2681 12.4132 41.1933 12.0429C41.2282 12.035 41.2544 12.0665 41.2282 12.0744ZM46.1072 9.93173C45.1122 9.75843 44.2132 9.74267 43.288 10.1523C42.3977 10.5462 41.9962 11.5939 42.2668 12.4368C42.389 12.7204 42.581 12.9882 42.7643 13.2561C42.7643 13.2639 42.7643 13.2639 42.7556 13.2639C42.5985 13.1379 42.4588 13.004 42.3454 12.8622C42.3366 12.8622 42.3279 12.8543 42.3279 12.8464C42.2843 12.7755 42.2406 12.7125 42.197 12.6337C42.1621 12.5707 42.1359 12.5156 42.1097 12.4525C41.778 11.649 41.9613 10.6407 42.7992 10.1523C43.6982 9.62451 45.1471 9.51422 46.1246 9.91598C46.1334 9.91598 46.1246 9.93961 46.1072 9.93173Z"/>
</mask>
<path d="M50.4451 8.44288C50.2269 8.04112 49.7555 7.82055 49.5199 7.4188C49.2493 6.9619 49.0922 6.44198 48.778 6.00084C48.5423 5.66999 48.2543 5.36276 47.9226 5.11068C47.1807 4.5435 46.3167 4.14174 45.505 3.65334C45.0511 3.3855 44.5972 3.08615 44.2306 2.72379C43.9339 2.42444 43.6633 2.01481 43.2618 1.81787C42.3803 1.36885 41.202 1.88089 40.3466 2.27477C40.015 2.21175 39.6746 2.37718 39.596 2.66865C39.4651 2.67652 39.3429 2.69228 39.212 2.70803C39.1247 2.71591 39.0636 2.77893 39.0811 2.85771C39.212 3.33036 38.9501 3.80301 39.0549 4.27566C39.1247 4.60652 39.3254 4.87435 39.596 5.1028C39.788 5.26035 40.0761 5.56758 40.3728 5.49668C40.5648 5.44941 40.6259 5.30762 40.6434 5.15007C41.4289 5.0004 42.1883 4.60652 42.677 4.02358C43.0611 4.34656 43.4015 4.7168 43.6371 5.14219C43.9426 5.69362 44.0124 6.27656 44.1957 6.86737C44.283 7.15096 44.4227 7.40304 44.5885 7.63149C44.9464 7.93084 45.278 8.10414 45.7668 8.15141C46.081 8.18292 46.4039 8.21443 46.7094 8.26957C46.7182 8.26957 46.7182 8.28533 46.7094 8.28533C46.2992 8.31684 45.889 8.32471 45.4875 8.31684C45.3304 8.31684 45.1907 8.26957 45.0598 8.20655C44.2917 8.19867 43.5411 7.96235 42.7731 8.1908C42.677 8.22231 42.581 8.26169 42.485 8.30108C42.4152 8.32471 42.3454 8.35622 42.2668 8.37986C42.1446 8.42712 42.0573 8.5059 41.9788 8.59255C41.8741 8.70284 41.7868 8.821 41.6646 8.90765C41.2369 9.22275 40.8616 9.593 40.5125 9.98687C40.5037 10.0026 40.4776 9.98687 40.4776 9.97112C40.591 9.60875 40.7918 9.30941 41.0536 9.04157C39.1509 8.68708 37.1521 9.0652 35.5724 10.0972C35.3803 10.0026 35.1796 9.9081 34.9788 9.82145C34.9876 9.04157 35.0225 8.26957 35.0574 7.49757C35.3629 7.46606 35.616 7.20611 35.6858 6.90676C35.7731 6.52864 35.9477 5.75664 35.4763 5.52031H35.4676C35.4938 4.91374 35.5113 4.30717 35.4589 3.70848C35.4152 3.17281 35.0399 3.11767 34.6646 2.77893C33.9926 2.18812 33.5562 1.25857 32.5001 1.55791C31.4527 1.25857 31.0076 2.18812 30.3355 2.77893C29.9515 3.11767 29.5849 3.17281 29.5412 3.70848C29.4889 4.30717 29.515 4.92162 29.5325 5.52031H29.5238C29.0612 5.75664 29.227 6.52076 29.3143 6.90676C29.3841 7.20611 29.6285 7.46606 29.9427 7.49757C29.9864 8.26957 30.0213 9.04945 30.0213 9.82145C29.8205 9.9081 29.6198 10.0026 29.4278 10.0972C27.848 9.07308 25.8492 8.68708 23.9465 9.04157C24.2084 9.30941 24.4091 9.61663 24.5226 9.97112C24.5313 9.98687 24.5051 10.0026 24.4877 9.98687C24.1385 9.593 23.7719 9.23063 23.3355 8.90765C23.2133 8.821 23.1261 8.70284 23.0213 8.59255C22.9428 8.5059 22.8468 8.42712 22.7333 8.37986C22.6635 8.35622 22.5937 8.32471 22.5151 8.30108C22.4191 8.26169 22.3231 8.23018 22.2271 8.1908C21.459 7.96235 20.7084 8.1908 19.9403 8.20655C19.8094 8.26957 19.6697 8.31684 19.5126 8.31684C19.1024 8.32471 18.6922 8.30896 18.2907 8.28533C18.282 8.28533 18.282 8.27745 18.2907 8.26957C18.6049 8.22231 18.9191 8.18292 19.2333 8.15141C19.7221 8.11202 20.0538 7.93084 20.4116 7.63149C20.5775 7.40304 20.7084 7.15884 20.8044 6.86737C20.9877 6.27656 21.0575 5.7015 21.363 5.14219C21.5986 4.7168 21.939 4.34656 22.3231 4.02358C22.8119 4.60652 23.5712 5.0004 24.3567 5.15007C24.3742 5.29974 24.444 5.44941 24.6273 5.49668C24.9241 5.56758 25.2208 5.26035 25.4041 5.1028C25.6834 4.87435 25.8754 4.60652 25.9452 4.27566C26.05 3.80301 25.7881 3.33824 25.9191 2.85771C25.9452 2.77893 25.8754 2.71591 25.7881 2.70803C25.6572 2.69228 25.535 2.6844 25.4041 2.66865C25.3168 2.37718 24.9852 2.21175 24.6535 2.27477C23.7981 1.87301 22.6198 1.36885 21.7383 1.81787C21.3368 2.02269 21.0662 2.42444 20.7695 2.72379C20.4029 3.09403 19.949 3.3855 19.4952 3.65334C18.6835 4.13387 17.8194 4.5435 17.0775 5.11068C16.7458 5.37064 16.4578 5.66999 16.2221 6.00084C15.9079 6.44198 15.7595 6.9619 15.4802 7.4188C15.2446 7.82055 14.7733 8.04112 14.5551 8.44288C14.3543 8.81312 14.7471 9.1361 15.0176 9.35667C16.0563 10.2153 17.0949 11.0819 18.1336 11.9484C18.9366 12.618 19.7657 13.4057 20.8917 13.5633C21.2844 13.6184 21.6772 13.5475 22.0612 13.4766C22.3929 13.5712 22.7333 13.6578 23.0737 13.7287C23.5363 15.9029 24.8019 17.9353 26.4864 19.5581C26.4777 19.3611 26.4777 19.1721 26.5126 18.9673C26.6784 18.0613 26.9315 17.116 27.7258 16.478C27.7432 16.4622 27.7781 16.4858 27.7694 16.5095C27.4116 17.0136 27.1323 17.502 27.0014 18.0929C26.8879 18.6364 26.7308 19.2351 26.8181 19.7944C26.8355 19.8968 26.8442 20.0071 26.853 20.1095C27.0799 20.85 27.2021 21.622 27.2021 22.4176C27.1934 23.1896 26.9926 23.9144 26.8355 24.6627C26.7046 25.2929 27.1759 25.5765 27.7345 25.8365C29.1485 26.4982 30.8243 26.5376 32.3866 26.4824C32.4215 26.4824 32.4477 26.4824 32.4826 26.4746C32.4826 26.4746 32.4826 26.4746 32.4913 26.4746C32.4913 26.4746 32.4913 26.4746 32.5001 26.4746C32.535 26.4746 32.5612 26.4746 32.5961 26.4824C34.1497 26.5376 35.8342 26.4982 37.2481 25.8365C37.8067 25.5765 38.2868 25.3008 38.1472 24.6627C37.99 23.9065 37.7806 23.1896 37.7806 22.4176C37.7718 21.622 37.9028 20.85 38.1297 20.1095C38.1384 20.0071 38.1471 19.8968 38.1646 19.7944C38.2519 19.2351 38.0948 18.6364 37.9813 18.0929C37.8504 17.502 37.5711 17.0136 37.2132 16.5095C37.1958 16.4858 37.2307 16.4622 37.2569 16.478C38.0511 17.116 38.3043 18.0613 38.4701 18.9673C38.505 19.1721 38.505 19.369 38.4963 19.5581C40.1808 17.9353 41.4464 15.9029 41.909 13.7287C42.2494 13.6578 42.5898 13.579 42.9214 13.4766C43.3055 13.5475 43.6982 13.6184 44.091 13.5633C45.2256 13.4057 46.0461 12.618 46.8491 11.9484C47.8877 11.0819 48.9264 10.2153 49.965 9.35667C50.253 9.1361 50.6458 8.821 50.4451 8.44288ZM22.8991 12.4525C22.8729 12.5156 22.8468 12.5786 22.8119 12.6337C22.7769 12.7046 22.7333 12.7755 22.6809 12.8464C22.6722 12.8543 22.6722 12.8622 22.6635 12.8622C22.55 13.0118 22.4104 13.1458 22.2533 13.2639C22.2533 13.2639 22.2445 13.2639 22.2445 13.2561C22.4278 12.9961 22.6198 12.7283 22.742 12.4368C23.0126 11.5939 22.6111 10.5462 21.7208 10.1523C20.7869 9.73479 19.8967 9.75055 18.9017 9.93173C18.8842 9.93173 18.8755 9.91598 18.8929 9.9081C19.8705 9.50634 21.3193 9.61663 22.2183 10.1444C23.0475 10.6407 23.2308 11.649 22.8991 12.4525ZM30.2569 8.60043C30.5973 8.97855 31.1821 9.2779 31.7494 9.37243C31.4614 9.15973 31.313 8.90765 31.2083 8.56892C31.1996 8.54529 31.2345 8.52953 31.2519 8.55316C31.4352 8.85251 31.636 9.17549 32.0287 9.29365C32.1946 9.34092 32.3517 9.35667 32.5001 9.35667C32.6572 9.35667 32.8055 9.34092 32.9714 9.29365C33.3554 9.17549 33.5562 8.86039 33.7482 8.55316C33.7656 8.52953 33.8005 8.54529 33.7918 8.56892C33.6958 8.90765 33.5387 9.15973 33.2507 9.37243C33.818 9.2779 34.4028 8.97855 34.7432 8.60043C34.7606 8.58467 34.7868 8.60831 34.7781 8.62406C34.5075 9.207 33.7045 9.48271 33.0238 9.51422C32.8666 9.593 32.6834 9.64026 32.5001 9.65602C32.3168 9.64814 32.1335 9.593 31.9764 9.51422C31.2956 9.48271 30.4926 9.207 30.222 8.62406C30.2133 8.60831 30.2395 8.58467 30.2569 8.60043ZM29.8205 10.1917C30.2918 10.0656 30.7719 10.1996 31.1821 10.4201C31.6534 10.6722 32.0113 10.9558 32.5088 10.9952C32.9976 10.9558 33.3641 10.6722 33.8355 10.4201C34.2457 10.1996 34.7257 10.0656 35.197 10.1917C35.2058 10.1917 35.2058 10.2074 35.197 10.2153C34.4464 10.2626 33.9315 10.6328 33.338 11.011C33.0848 11.1764 32.8055 11.2709 32.5088 11.2945C32.212 11.2788 31.9327 11.1764 31.6796 11.011C31.0948 10.6328 30.5711 10.2626 29.8205 10.2153C29.8118 10.2074 29.8031 10.1917 29.8205 10.1917ZM26.6348 17.3366C26.1722 17.2893 26.1373 16.6985 26.2245 16.3756C26.3991 15.7847 26.8442 15.1624 27.2545 14.6819H27.2632C27.1672 15.1388 26.7657 15.4933 26.5999 15.9265C26.4427 16.3283 26.2944 16.9033 26.6784 17.2342C26.7133 17.2736 26.6959 17.3366 26.6348 17.3366ZM27.621 16.478C27.5861 16.5016 27.5425 16.4543 27.5687 16.4307C27.6821 16.2731 27.7694 16.0132 27.4901 15.9502C27.3156 15.9029 27.1323 15.9265 26.949 15.895C26.9402 15.895 26.9402 15.8793 26.949 15.8793C27.1759 15.8005 27.5949 15.7611 27.752 15.9738C27.8829 16.1471 27.8043 16.3677 27.621 16.478ZM29.7071 18.2189C29.7158 18.1874 29.7682 18.1953 29.7682 18.2268C29.7594 18.6128 29.6722 19.0066 29.6809 19.3926C29.6896 19.8259 30.4315 20.1253 30.833 20.2119C30.8679 20.2198 30.8592 20.2671 30.8243 20.2671C30.4315 20.2828 29.7507 20.1568 29.5674 19.7786C29.3492 19.3296 29.5936 18.6758 29.7071 18.2189ZM31.5749 24.7651C31.1472 24.9857 30.5973 24.6312 30.318 24.3476C29.9602 23.9853 29.8467 23.4417 29.8467 22.9769C29.8467 22.9533 29.8816 22.9533 29.8904 22.969C30.0038 23.4023 30.126 23.875 30.4839 24.2058C30.6672 24.3712 30.8766 24.5288 31.1297 24.5997C31.2868 24.6391 31.4352 24.6548 31.5836 24.7179C31.6011 24.7179 31.5923 24.7494 31.5749 24.7651ZM31.6622 22.2758C31.0948 22.134 30.3093 22.8115 29.8293 22.2443C29.6721 22.0553 29.5936 21.8662 29.6111 21.6299C29.6547 21.2124 29.7245 20.8185 29.6547 20.401C29.646 20.3616 29.7071 20.3458 29.7245 20.3852C29.8031 20.6767 29.8729 20.9682 29.8554 21.2675C29.8467 21.5905 29.7769 22.1262 30.2569 22.2207C30.7457 22.3152 31.2083 21.9844 31.6883 22.2128C31.7233 22.2364 31.6971 22.2916 31.6622 22.2758ZM34.6995 24.3397C34.4202 24.6233 33.8704 24.9778 33.4427 24.7572C33.4165 24.7494 33.4165 24.71 33.4427 24.7021C33.5911 24.647 33.7482 24.6233 33.8966 24.5839C34.1497 24.5209 34.3591 24.3634 34.5424 24.1901C34.9003 23.8592 35.0225 23.3866 35.136 22.9533C35.1447 22.9297 35.1796 22.9375 35.1796 22.9612C35.1709 23.4417 35.0574 23.9774 34.6995 24.3397ZM35.1883 22.2522C34.7083 22.8115 33.9227 22.1419 33.3554 22.2837C33.3118 22.2916 33.2856 22.2443 33.3292 22.2207C33.8006 21.9922 34.2719 22.3231 34.7606 22.2286C35.2407 22.134 35.1709 21.5984 35.1621 21.2754C35.1534 20.976 35.2145 20.6846 35.2931 20.3931C35.3018 20.3537 35.3629 20.3695 35.3629 20.4089C35.2931 20.8264 35.3629 21.2202 35.4065 21.6377C35.424 21.8741 35.3454 22.0631 35.1883 22.2522ZM35.4502 19.7865C35.2756 20.1646 34.5861 20.2907 34.1933 20.2749C34.1584 20.2749 34.1497 20.2277 34.1846 20.2198C34.5861 20.1331 35.328 19.8338 35.3367 19.4005C35.3454 19.0145 35.2581 18.6207 35.2494 18.2347C35.2494 18.2031 35.3018 18.1953 35.3105 18.2268C35.424 18.6758 35.6684 19.3296 35.4502 19.7865ZM36.2532 17.3996C35.712 17.5178 35.2232 17.3445 34.7519 17.116C34.429 16.9585 34.1148 16.8088 33.7569 16.73C33.3729 16.6434 32.919 16.6907 32.5088 16.73C32.0986 16.6907 31.6447 16.6434 31.2607 16.73C30.9028 16.8167 30.5886 16.9664 30.2657 17.116C29.7943 17.3445 29.3056 17.5178 28.7644 17.3996C28.747 17.3918 28.7557 17.3681 28.7732 17.376C29.6285 17.4863 30.1784 16.8718 30.9028 16.5882C31.4265 16.3834 31.9676 16.4386 32.5175 16.4543C33.0674 16.4386 33.6085 16.3834 34.1322 16.5882C34.8479 16.8718 35.4065 17.4863 36.2619 17.376C36.2619 17.3681 36.2793 17.3918 36.2532 17.3996ZM38.0773 15.895C37.894 15.9265 37.7107 15.9029 37.5362 15.9502C37.2569 16.0211 37.3442 16.2731 37.4576 16.4307C37.4751 16.4622 37.4402 16.5016 37.4053 16.478C37.222 16.3598 37.1434 16.1392 37.2743 15.9659C37.4314 15.7532 37.8591 15.7926 38.0773 15.8714C38.0773 15.8793 38.086 15.895 38.0773 15.895ZM38.3741 17.3366C38.3217 17.3445 38.2955 17.2736 38.3304 17.2421C38.7145 16.9033 38.5661 16.3283 38.409 15.9344C38.2344 15.5011 37.8329 15.1467 37.7457 14.6898C37.7457 14.6898 37.7457 14.6819 37.7544 14.6898C38.1646 15.1703 38.6097 15.7847 38.7843 16.3834C38.8803 16.6907 38.8367 17.2893 38.3741 17.3366ZM41.2282 12.0744C40.3205 12.5786 39.2469 12.8228 38.1908 12.7676C38.0948 12.9016 37.9988 13.0276 37.894 13.1536C37.2743 13.9414 36.515 14.5716 35.4676 14.8394C34.5599 15.0679 33.434 15.0364 32.7706 14.3589C32.6397 14.2171 32.5524 14.0596 32.5088 13.8863C32.4564 14.0596 32.3779 14.225 32.2469 14.3589C31.5923 15.0364 30.4577 15.0679 29.55 14.8394C28.5026 14.5795 27.7432 13.9414 27.1235 13.1536C27.0188 13.0276 26.9228 12.8937 26.8268 12.7676C25.762 12.8228 24.6884 12.5786 23.7894 12.0744C23.7719 12.0587 23.7894 12.035 23.8069 12.0429C24.732 12.4132 25.6747 12.5707 26.6784 12.5549C26.4951 12.295 26.3118 12.035 26.1111 11.783C25.8143 11.397 25.5438 11.0425 25.343 10.6013C25.3343 10.5934 25.3605 10.5856 25.3605 10.5934C25.5263 10.8219 25.6485 11.0661 25.8492 11.2788C26.0063 11.4521 26.1722 11.6254 26.3206 11.8066C26.5737 12.1059 26.8006 12.4132 27.0363 12.7283C27.5774 13.4451 28.232 14.2092 29.1746 14.5165C30.03 14.8 31.9066 15.0364 32.2382 13.9493C32.4477 13.2639 32.4302 12.5313 32.5001 11.8223C32.5786 12.5313 32.5524 13.2561 32.7619 13.9493C33.0936 15.0364 34.9701 14.8 35.8255 14.5165C36.7681 14.2092 37.414 13.4451 37.9639 12.7283C38.1995 12.421 38.4264 12.1059 38.6796 11.8066C38.8367 11.6254 38.9938 11.4521 39.1509 11.2788C39.3516 11.0661 39.4651 10.8219 39.6397 10.5934C39.6484 10.5856 39.6658 10.5934 39.6571 10.6013C39.4651 11.0425 39.1858 11.397 38.889 11.783C38.697 12.035 38.5137 12.295 38.3217 12.5549C39.3254 12.5707 40.2681 12.4132 41.1933 12.0429C41.2282 12.035 41.2544 12.0665 41.2282 12.0744ZM46.1072 9.93173C45.1122 9.75843 44.2132 9.74267 43.288 10.1523C42.3977 10.5462 41.9962 11.5939 42.2668 12.4368C42.389 12.7204 42.581 12.9882 42.7643 13.2561C42.7643 13.2639 42.7643 13.2639 42.7556 13.2639C42.5985 13.1379 42.4588 13.004 42.3454 12.8622C42.3366 12.8622 42.3279 12.8543 42.3279 12.8464C42.2843 12.7755 42.2406 12.7125 42.197 12.6337C42.1621 12.5707 42.1359 12.5156 42.1097 12.4525C41.778 11.649 41.9613 10.6407 42.7992 10.1523C43.6982 9.62451 45.1471 9.51422 46.1246 9.91598C46.1334 9.91598 46.1246 9.93961 46.1072 9.93173Z" fill="#F0F0F0"/>
<path d="M50.4451 8.44288C50.2269 8.04112 49.7555 7.82055 49.5199 7.4188C49.2493 6.9619 49.0922 6.44198 48.778 6.00084C48.5423 5.66999 48.2543 5.36276 47.9226 5.11068C47.1807 4.5435 46.3167 4.14174 45.505 3.65334C45.0511 3.3855 44.5972 3.08615 44.2306 2.72379C43.9339 2.42444 43.6633 2.01481 43.2618 1.81787C42.3803 1.36885 41.202 1.88089 40.3466 2.27477C40.015 2.21175 39.6746 2.37718 39.596 2.66865C39.4651 2.67652 39.3429 2.69228 39.212 2.70803C39.1247 2.71591 39.0636 2.77893 39.0811 2.85771C39.212 3.33036 38.9501 3.80301 39.0549 4.27566C39.1247 4.60652 39.3254 4.87435 39.596 5.1028C39.788 5.26035 40.0761 5.56758 40.3728 5.49668C40.5648 5.44941 40.6259 5.30762 40.6434 5.15007C41.4289 5.0004 42.1883 4.60652 42.677 4.02358C43.0611 4.34656 43.4015 4.7168 43.6371 5.14219C43.9426 5.69362 44.0124 6.27656 44.1957 6.86737C44.283 7.15096 44.4227 7.40304 44.5885 7.63149C44.9464 7.93084 45.278 8.10414 45.7668 8.15141C46.081 8.18292 46.4039 8.21443 46.7094 8.26957C46.7182 8.26957 46.7182 8.28533 46.7094 8.28533C46.2992 8.31684 45.889 8.32471 45.4875 8.31684C45.3304 8.31684 45.1907 8.26957 45.0598 8.20655C44.2917 8.19867 43.5411 7.96235 42.7731 8.1908C42.677 8.22231 42.581 8.26169 42.485 8.30108C42.4152 8.32471 42.3454 8.35622 42.2668 8.37986C42.1446 8.42712 42.0573 8.5059 41.9788 8.59255C41.8741 8.70284 41.7868 8.821 41.6646 8.90765C41.2369 9.22275 40.8616 9.593 40.5125 9.98687C40.5037 10.0026 40.4776 9.98687 40.4776 9.97112C40.591 9.60875 40.7918 9.30941 41.0536 9.04157C39.1509 8.68708 37.1521 9.0652 35.5724 10.0972C35.3803 10.0026 35.1796 9.9081 34.9788 9.82145C34.9876 9.04157 35.0225 8.26957 35.0574 7.49757C35.3629 7.46606 35.616 7.20611 35.6858 6.90676C35.7731 6.52864 35.9477 5.75664 35.4763 5.52031H35.4676C35.4938 4.91374 35.5113 4.30717 35.4589 3.70848C35.4152 3.17281 35.0399 3.11767 34.6646 2.77893C33.9926 2.18812 33.5562 1.25857 32.5001 1.55791C31.4527 1.25857 31.0076 2.18812 30.3355 2.77893C29.9515 3.11767 29.5849 3.17281 29.5412 3.70848C29.4889 4.30717 29.515 4.92162 29.5325 5.52031H29.5238C29.0612 5.75664 29.227 6.52076 29.3143 6.90676C29.3841 7.20611 29.6285 7.46606 29.9427 7.49757C29.9864 8.26957 30.0213 9.04945 30.0213 9.82145C29.8205 9.9081 29.6198 10.0026 29.4278 10.0972C27.848 9.07308 25.8492 8.68708 23.9465 9.04157C24.2084 9.30941 24.4091 9.61663 24.5226 9.97112C24.5313 9.98687 24.5051 10.0026 24.4877 9.98687C24.1385 9.593 23.7719 9.23063 23.3355 8.90765C23.2133 8.821 23.1261 8.70284 23.0213 8.59255C22.9428 8.5059 22.8468 8.42712 22.7333 8.37986C22.6635 8.35622 22.5937 8.32471 22.5151 8.30108C22.4191 8.26169 22.3231 8.23018 22.2271 8.1908C21.459 7.96235 20.7084 8.1908 19.9403 8.20655C19.8094 8.26957 19.6697 8.31684 19.5126 8.31684C19.1024 8.32471 18.6922 8.30896 18.2907 8.28533C18.282 8.28533 18.282 8.27745 18.2907 8.26957C18.6049 8.22231 18.9191 8.18292 19.2333 8.15141C19.7221 8.11202 20.0538 7.93084 20.4116 7.63149C20.5775 7.40304 20.7084 7.15884 20.8044 6.86737C20.9877 6.27656 21.0575 5.7015 21.363 5.14219C21.5986 4.7168 21.939 4.34656 22.3231 4.02358C22.8119 4.60652 23.5712 5.0004 24.3567 5.15007C24.3742 5.29974 24.444 5.44941 24.6273 5.49668C24.9241 5.56758 25.2208 5.26035 25.4041 5.1028C25.6834 4.87435 25.8754 4.60652 25.9452 4.27566C26.05 3.80301 25.7881 3.33824 25.9191 2.85771C25.9452 2.77893 25.8754 2.71591 25.7881 2.70803C25.6572 2.69228 25.535 2.6844 25.4041 2.66865C25.3168 2.37718 24.9852 2.21175 24.6535 2.27477C23.7981 1.87301 22.6198 1.36885 21.7383 1.81787C21.3368 2.02269 21.0662 2.42444 20.7695 2.72379C20.4029 3.09403 19.949 3.3855 19.4952 3.65334C18.6835 4.13387 17.8194 4.5435 17.0775 5.11068C16.7458 5.37064 16.4578 5.66999 16.2221 6.00084C15.9079 6.44198 15.7595 6.9619 15.4802 7.4188C15.2446 7.82055 14.7733 8.04112 14.5551 8.44288C14.3543 8.81312 14.7471 9.1361 15.0176 9.35667C16.0563 10.2153 17.0949 11.0819 18.1336 11.9484C18.9366 12.618 19.7657 13.4057 20.8917 13.5633C21.2844 13.6184 21.6772 13.5475 22.0612 13.4766C22.3929 13.5712 22.7333 13.6578 23.0737 13.7287C23.5363 15.9029 24.8019 17.9353 26.4864 19.5581C26.4777 19.3611 26.4777 19.1721 26.5126 18.9673C26.6784 18.0613 26.9315 17.116 27.7258 16.478C27.7432 16.4622 27.7781 16.4858 27.7694 16.5095C27.4116 17.0136 27.1323 17.502 27.0014 18.0929C26.8879 18.6364 26.7308 19.2351 26.8181 19.7944C26.8355 19.8968 26.8442 20.0071 26.853 20.1095C27.0799 20.85 27.2021 21.622 27.2021 22.4176C27.1934 23.1896 26.9926 23.9144 26.8355 24.6627C26.7046 25.2929 27.1759 25.5765 27.7345 25.8365C29.1485 26.4982 30.8243 26.5376 32.3866 26.4824C32.4215 26.4824 32.4477 26.4824 32.4826 26.4746C32.4826 26.4746 32.4826 26.4746 32.4913 26.4746C32.4913 26.4746 32.4913 26.4746 32.5001 26.4746C32.535 26.4746 32.5612 26.4746 32.5961 26.4824C34.1497 26.5376 35.8342 26.4982 37.2481 25.8365C37.8067 25.5765 38.2868 25.3008 38.1472 24.6627C37.99 23.9065 37.7806 23.1896 37.7806 22.4176C37.7718 21.622 37.9028 20.85 38.1297 20.1095C38.1384 20.0071 38.1471 19.8968 38.1646 19.7944C38.2519 19.2351 38.0948 18.6364 37.9813 18.0929C37.8504 17.502 37.5711 17.0136 37.2132 16.5095C37.1958 16.4858 37.2307 16.4622 37.2569 16.478C38.0511 17.116 38.3043 18.0613 38.4701 18.9673C38.505 19.1721 38.505 19.369 38.4963 19.5581C40.1808 17.9353 41.4464 15.9029 41.909 13.7287C42.2494 13.6578 42.5898 13.579 42.9214 13.4766C43.3055 13.5475 43.6982 13.6184 44.091 13.5633C45.2256 13.4057 46.0461 12.618 46.8491 11.9484C47.8877 11.0819 48.9264 10.2153 49.965 9.35667C50.253 9.1361 50.6458 8.821 50.4451 8.44288ZM22.8991 12.4525C22.8729 12.5156 22.8468 12.5786 22.8119 12.6337C22.7769 12.7046 22.7333 12.7755 22.6809 12.8464C22.6722 12.8543 22.6722 12.8622 22.6635 12.8622C22.55 13.0118 22.4104 13.1458 22.2533 13.2639C22.2533 13.2639 22.2445 13.2639 22.2445 13.2561C22.4278 12.9961 22.6198 12.7283 22.742 12.4368C23.0126 11.5939 22.6111 10.5462 21.7208 10.1523C20.7869 9.73479 19.8967 9.75055 18.9017 9.93173C18.8842 9.93173 18.8755 9.91598 18.8929 9.9081C19.8705 9.50634 21.3193 9.61663 22.2183 10.1444C23.0475 10.6407 23.2308 11.649 22.8991 12.4525ZM30.2569 8.60043C30.5973 8.97855 31.1821 9.2779 31.7494 9.37243C31.4614 9.15973 31.313 8.90765 31.2083 8.56892C31.1996 8.54529 31.2345 8.52953 31.2519 8.55316C31.4352 8.85251 31.636 9.17549 32.0287 9.29365C32.1946 9.34092 32.3517 9.35667 32.5001 9.35667C32.6572 9.35667 32.8055 9.34092 32.9714 9.29365C33.3554 9.17549 33.5562 8.86039 33.7482 8.55316C33.7656 8.52953 33.8005 8.54529 33.7918 8.56892C33.6958 8.90765 33.5387 9.15973 33.2507 9.37243C33.818 9.2779 34.4028 8.97855 34.7432 8.60043C34.7606 8.58467 34.7868 8.60831 34.7781 8.62406C34.5075 9.207 33.7045 9.48271 33.0238 9.51422C32.8666 9.593 32.6834 9.64026 32.5001 9.65602C32.3168 9.64814 32.1335 9.593 31.9764 9.51422C31.2956 9.48271 30.4926 9.207 30.222 8.62406C30.2133 8.60831 30.2395 8.58467 30.2569 8.60043ZM29.8205 10.1917C30.2918 10.0656 30.7719 10.1996 31.1821 10.4201C31.6534 10.6722 32.0113 10.9558 32.5088 10.9952C32.9976 10.9558 33.3641 10.6722 33.8355 10.4201C34.2457 10.1996 34.7257 10.0656 35.197 10.1917C35.2058 10.1917 35.2058 10.2074 35.197 10.2153C34.4464 10.2626 33.9315 10.6328 33.338 11.011C33.0848 11.1764 32.8055 11.2709 32.5088 11.2945C32.212 11.2788 31.9327 11.1764 31.6796 11.011C31.0948 10.6328 30.5711 10.2626 29.8205 10.2153C29.8118 10.2074 29.8031 10.1917 29.8205 10.1917ZM26.6348 17.3366C26.1722 17.2893 26.1373 16.6985 26.2245 16.3756C26.3991 15.7847 26.8442 15.1624 27.2545 14.6819H27.2632C27.1672 15.1388 26.7657 15.4933 26.5999 15.9265C26.4427 16.3283 26.2944 16.9033 26.6784 17.2342C26.7133 17.2736 26.6959 17.3366 26.6348 17.3366ZM27.621 16.478C27.5861 16.5016 27.5425 16.4543 27.5687 16.4307C27.6821 16.2731 27.7694 16.0132 27.4901 15.9502C27.3156 15.9029 27.1323 15.9265 26.949 15.895C26.9402 15.895 26.9402 15.8793 26.949 15.8793C27.1759 15.8005 27.5949 15.7611 27.752 15.9738C27.8829 16.1471 27.8043 16.3677 27.621 16.478ZM29.7071 18.2189C29.7158 18.1874 29.7682 18.1953 29.7682 18.2268C29.7594 18.6128 29.6722 19.0066 29.6809 19.3926C29.6896 19.8259 30.4315 20.1253 30.833 20.2119C30.8679 20.2198 30.8592 20.2671 30.8243 20.2671C30.4315 20.2828 29.7507 20.1568 29.5674 19.7786C29.3492 19.3296 29.5936 18.6758 29.7071 18.2189ZM31.5749 24.7651C31.1472 24.9857 30.5973 24.6312 30.318 24.3476C29.9602 23.9853 29.8467 23.4417 29.8467 22.9769C29.8467 22.9533 29.8816 22.9533 29.8904 22.969C30.0038 23.4023 30.126 23.875 30.4839 24.2058C30.6672 24.3712 30.8766 24.5288 31.1297 24.5997C31.2868 24.6391 31.4352 24.6548 31.5836 24.7179C31.6011 24.7179 31.5923 24.7494 31.5749 24.7651ZM31.6622 22.2758C31.0948 22.134 30.3093 22.8115 29.8293 22.2443C29.6721 22.0553 29.5936 21.8662 29.6111 21.6299C29.6547 21.2124 29.7245 20.8185 29.6547 20.401C29.646 20.3616 29.7071 20.3458 29.7245 20.3852C29.8031 20.6767 29.8729 20.9682 29.8554 21.2675C29.8467 21.5905 29.7769 22.1262 30.2569 22.2207C30.7457 22.3152 31.2083 21.9844 31.6883 22.2128C31.7233 22.2364 31.6971 22.2916 31.6622 22.2758ZM34.6995 24.3397C34.4202 24.6233 33.8704 24.9778 33.4427 24.7572C33.4165 24.7494 33.4165 24.71 33.4427 24.7021C33.5911 24.647 33.7482 24.6233 33.8966 24.5839C34.1497 24.5209 34.3591 24.3634 34.5424 24.1901C34.9003 23.8592 35.0225 23.3866 35.136 22.9533C35.1447 22.9297 35.1796 22.9375 35.1796 22.9612C35.1709 23.4417 35.0574 23.9774 34.6995 24.3397ZM35.1883 22.2522C34.7083 22.8115 33.9227 22.1419 33.3554 22.2837C33.3118 22.2916 33.2856 22.2443 33.3292 22.2207C33.8006 21.9922 34.2719 22.3231 34.7606 22.2286C35.2407 22.134 35.1709 21.5984 35.1621 21.2754C35.1534 20.976 35.2145 20.6846 35.2931 20.3931C35.3018 20.3537 35.3629 20.3695 35.3629 20.4089C35.2931 20.8264 35.3629 21.2202 35.4065 21.6377C35.424 21.8741 35.3454 22.0631 35.1883 22.2522ZM35.4502 19.7865C35.2756 20.1646 34.5861 20.2907 34.1933 20.2749C34.1584 20.2749 34.1497 20.2277 34.1846 20.2198C34.5861 20.1331 35.328 19.8338 35.3367 19.4005C35.3454 19.0145 35.2581 18.6207 35.2494 18.2347C35.2494 18.2031 35.3018 18.1953 35.3105 18.2268C35.424 18.6758 35.6684 19.3296 35.4502 19.7865ZM36.2532 17.3996C35.712 17.5178 35.2232 17.3445 34.7519 17.116C34.429 16.9585 34.1148 16.8088 33.7569 16.73C33.3729 16.6434 32.919 16.6907 32.5088 16.73C32.0986 16.6907 31.6447 16.6434 31.2607 16.73C30.9028 16.8167 30.5886 16.9664 30.2657 17.116C29.7943 17.3445 29.3056 17.5178 28.7644 17.3996C28.747 17.3918 28.7557 17.3681 28.7732 17.376C29.6285 17.4863 30.1784 16.8718 30.9028 16.5882C31.4265 16.3834 31.9676 16.4386 32.5175 16.4543C33.0674 16.4386 33.6085 16.3834 34.1322 16.5882C34.8479 16.8718 35.4065 17.4863 36.2619 17.376C36.2619 17.3681 36.2793 17.3918 36.2532 17.3996ZM38.0773 15.895C37.894 15.9265 37.7107 15.9029 37.5362 15.9502C37.2569 16.0211 37.3442 16.2731 37.4576 16.4307C37.4751 16.4622 37.4402 16.5016 37.4053 16.478C37.222 16.3598 37.1434 16.1392 37.2743 15.9659C37.4314 15.7532 37.8591 15.7926 38.0773 15.8714C38.0773 15.8793 38.086 15.895 38.0773 15.895ZM38.3741 17.3366C38.3217 17.3445 38.2955 17.2736 38.3304 17.2421C38.7145 16.9033 38.5661 16.3283 38.409 15.9344C38.2344 15.5011 37.8329 15.1467 37.7457 14.6898C37.7457 14.6898 37.7457 14.6819 37.7544 14.6898C38.1646 15.1703 38.6097 15.7847 38.7843 16.3834C38.8803 16.6907 38.8367 17.2893 38.3741 17.3366ZM41.2282 12.0744C40.3205 12.5786 39.2469 12.8228 38.1908 12.7676C38.0948 12.9016 37.9988 13.0276 37.894 13.1536C37.2743 13.9414 36.515 14.5716 35.4676 14.8394C34.5599 15.0679 33.434 15.0364 32.7706 14.3589C32.6397 14.2171 32.5524 14.0596 32.5088 13.8863C32.4564 14.0596 32.3779 14.225 32.2469 14.3589C31.5923 15.0364 30.4577 15.0679 29.55 14.8394C28.5026 14.5795 27.7432 13.9414 27.1235 13.1536C27.0188 13.0276 26.9228 12.8937 26.8268 12.7676C25.762 12.8228 24.6884 12.5786 23.7894 12.0744C23.7719 12.0587 23.7894 12.035 23.8069 12.0429C24.732 12.4132 25.6747 12.5707 26.6784 12.5549C26.4951 12.295 26.3118 12.035 26.1111 11.783C25.8143 11.397 25.5438 11.0425 25.343 10.6013C25.3343 10.5934 25.3605 10.5856 25.3605 10.5934C25.5263 10.8219 25.6485 11.0661 25.8492 11.2788C26.0063 11.4521 26.1722 11.6254 26.3206 11.8066C26.5737 12.1059 26.8006 12.4132 27.0363 12.7283C27.5774 13.4451 28.232 14.2092 29.1746 14.5165C30.03 14.8 31.9066 15.0364 32.2382 13.9493C32.4477 13.2639 32.4302 12.5313 32.5001 11.8223C32.5786 12.5313 32.5524 13.2561 32.7619 13.9493C33.0936 15.0364 34.9701 14.8 35.8255 14.5165C36.7681 14.2092 37.414 13.4451 37.9639 12.7283C38.1995 12.421 38.4264 12.1059 38.6796 11.8066C38.8367 11.6254 38.9938 11.4521 39.1509 11.2788C39.3516 11.0661 39.4651 10.8219 39.6397 10.5934C39.6484 10.5856 39.6658 10.5934 39.6571 10.6013C39.4651 11.0425 39.1858 11.397 38.889 11.783C38.697 12.035 38.5137 12.295 38.3217 12.5549C39.3254 12.5707 40.2681 12.4132 41.1933 12.0429C41.2282 12.035 41.2544 12.0665 41.2282 12.0744ZM46.1072 9.93173C45.1122 9.75843 44.2132 9.74267 43.288 10.1523C42.3977 10.5462 41.9962 11.5939 42.2668 12.4368C42.389 12.7204 42.581 12.9882 42.7643 13.2561C42.7643 13.2639 42.7643 13.2639 42.7556 13.2639C42.5985 13.1379 42.4588 13.004 42.3454 12.8622C42.3366 12.8622 42.3279 12.8543 42.3279 12.8464C42.2843 12.7755 42.2406 12.7125 42.197 12.6337C42.1621 12.5707 42.1359 12.5156 42.1097 12.4525C41.778 11.649 41.9613 10.6407 42.7992 10.1523C43.6982 9.62451 45.1471 9.51422 46.1246 9.91598C46.1334 9.91598 46.1246 9.93961 46.1072 9.93173Z" stroke="black" stroke-width="2" mask="url(#path-1-outside-1_23_2023)"/>
</g>
<path d="M11.0989 34.6C11.0989 35.3373 10.9822 36.014 10.7489 36.63C10.5249 37.2367 10.2029 37.7687 9.78288 38.226C9.36288 38.674 8.86354 39.024 8.28488 39.276C7.71554 39.5187 7.09021 39.64 6.40888 39.64C5.72754 39.64 5.09754 39.5187 4.51888 39.276C3.94954 39.024 3.45488 38.674 3.03488 38.226C2.61488 37.7687 2.28821 37.2367 2.05488 36.63C1.83088 36.014 1.71888 35.3373 1.71888 34.6C1.71888 33.8627 1.83088 33.1907 2.05488 32.584C2.28821 31.968 2.61488 31.436 3.03488 30.988C3.45488 30.5307 3.94954 30.1807 4.51888 29.938C5.09754 29.686 5.72754 29.56 6.40888 29.56C7.09021 29.56 7.71554 29.686 8.28488 29.938C8.86354 30.1807 9.36288 30.5307 9.78288 30.988C10.2029 31.436 10.5249 31.968 10.7489 32.584C10.9822 33.1907 11.0989 33.8627 11.0989 34.6ZM10.2029 34.6C10.2029 33.7693 10.0395 33.0413 9.71288 32.416C9.39554 31.7813 8.95221 31.2867 8.38288 30.932C7.81354 30.5773 7.15554 30.4 6.40888 30.4C5.67154 30.4 5.01354 30.5773 4.43488 30.932C3.86554 31.2867 3.41754 31.7813 3.09088 32.416C2.77354 33.0413 2.61488 33.7693 2.61488 34.6C2.61488 35.4307 2.77354 36.1633 3.09088 36.798C3.41754 37.4233 3.86554 37.9133 4.43488 38.268C5.01354 38.6227 5.67154 38.8 6.40888 38.8C7.15554 38.8 7.81354 38.6227 8.38288 38.268C8.95221 37.9133 9.39554 37.4233 9.71288 36.798C10.0395 36.1633 10.2029 35.4307 10.2029 34.6ZM18.2196 32.388C18.341 32.388 18.439 32.43 18.5136 32.514C18.5976 32.598 18.6396 32.696 18.6396 32.808V36.756C18.6396 37.68 18.3783 38.3847 17.8556 38.87C17.333 39.3553 16.6283 39.598 15.7416 39.598C14.8643 39.598 14.1643 39.3553 13.6416 38.87C13.1283 38.3847 12.8716 37.68 12.8716 36.756V32.808C12.8716 32.696 12.909 32.598 12.9836 32.514C13.0676 32.43 13.1703 32.388 13.2916 32.388C13.413 32.388 13.511 32.43 13.5856 32.514C13.6696 32.598 13.7116 32.696 13.7116 32.808V36.756C13.7116 37.428 13.889 37.9413 14.2436 38.296C14.6076 38.6413 15.107 38.814 15.7416 38.814C16.3856 38.814 16.8896 38.6413 17.2536 38.296C17.6176 37.9413 17.7996 37.428 17.7996 36.756V32.808C17.7996 32.696 17.837 32.598 17.9116 32.514C17.9863 32.43 18.089 32.388 18.2196 32.388ZM20.3803 32.374H23.6423C23.7543 32.374 23.8477 32.416 23.9223 32.5C23.997 32.5747 24.0343 32.668 24.0343 32.78C24.0343 32.8827 23.997 32.9713 23.9223 33.046C23.8477 33.1207 23.7543 33.158 23.6423 33.158H20.3803C20.2683 33.158 20.1703 33.1207 20.0863 33.046C20.0117 32.962 19.9743 32.8687 19.9743 32.766C19.9743 32.654 20.0117 32.5607 20.0863 32.486C20.1703 32.4113 20.2683 32.374 20.3803 32.374ZM21.8223 30.4C21.9437 30.4 22.0417 30.442 22.1163 30.526C22.2003 30.61 22.2423 30.708 22.2423 30.82V37.848C22.2423 38.1093 22.275 38.3053 22.3403 38.436C22.415 38.5667 22.5083 38.6553 22.6203 38.702C22.7323 38.7393 22.8443 38.758 22.9563 38.758C23.031 38.758 23.0963 38.7487 23.1523 38.73C23.2177 38.702 23.2877 38.688 23.3623 38.688C23.4463 38.688 23.5163 38.7207 23.5723 38.786C23.6377 38.8513 23.6703 38.9353 23.6703 39.038C23.6703 39.1687 23.5957 39.2807 23.4463 39.374C23.297 39.458 23.1197 39.5 22.9143 39.5C22.8303 39.5 22.7043 39.4953 22.5363 39.486C22.3683 39.4673 22.1957 39.416 22.0183 39.332C21.841 39.2387 21.6917 39.08 21.5703 38.856C21.4583 38.632 21.4023 38.31 21.4023 37.89V30.82C21.4023 30.708 21.4397 30.61 21.5143 30.526C21.5983 30.442 21.701 30.4 21.8223 30.4ZM40.9646 29.672C41.0859 29.672 41.1886 29.7093 41.2726 29.784C41.3659 29.8493 41.4126 29.952 41.4126 30.092C41.4126 30.1387 41.4033 30.1993 41.3846 30.274L38.2906 39.234C38.2626 39.318 38.2113 39.3833 38.1366 39.43C38.0619 39.4767 37.9873 39.5 37.9126 39.5C37.8193 39.5 37.7353 39.4813 37.6606 39.444C37.5859 39.3973 37.5299 39.3273 37.4926 39.234L35.0146 33.102L35.1266 33.13L32.6486 39.234C32.6113 39.3273 32.5506 39.3973 32.4666 39.444C32.3919 39.4813 32.3126 39.5 32.2286 39.5C32.1539 39.5 32.0793 39.4767 32.0046 39.43C31.9393 39.3833 31.8926 39.318 31.8646 39.234L28.7706 30.274C28.7426 30.1993 28.7286 30.1433 28.7286 30.106C28.7286 29.966 28.7799 29.8587 28.8826 29.784C28.9853 29.7093 29.0879 29.672 29.1906 29.672C29.2839 29.672 29.3679 29.6953 29.4426 29.742C29.5173 29.7887 29.5686 29.854 29.5966 29.938L32.4106 38.142L32.2566 38.156L34.6926 32.08C34.7206 31.996 34.7673 31.9307 34.8326 31.884C34.9073 31.828 34.9913 31.8047 35.0846 31.814C35.1779 31.8047 35.2573 31.828 35.3226 31.884C35.3973 31.9307 35.4533 31.996 35.4906 32.08L37.8986 38.128L37.7446 38.184L40.5446 29.938C40.5726 29.854 40.6239 29.7887 40.6986 29.742C40.7733 29.6953 40.8619 29.672 40.9646 29.672ZM49.395 35.916C49.395 36.6253 49.241 37.2647 48.933 37.834C48.625 38.394 48.205 38.8373 47.673 39.164C47.141 39.4813 46.5343 39.64 45.853 39.64C45.1903 39.64 44.5883 39.4813 44.047 39.164C43.515 38.8373 43.0903 38.394 42.773 37.834C42.465 37.2647 42.311 36.6253 42.311 35.916C42.311 35.1973 42.465 34.558 42.773 33.998C43.0903 33.438 43.515 32.9947 44.047 32.668C44.5883 32.3413 45.1903 32.178 45.853 32.178C46.5343 32.178 47.141 32.3413 47.673 32.668C48.205 32.9947 48.625 33.438 48.933 33.998C49.241 34.558 49.395 35.1973 49.395 35.916ZM48.555 35.916C48.555 35.3467 48.4383 34.8427 48.205 34.404C47.9717 33.956 47.6497 33.606 47.239 33.354C46.8377 33.0927 46.3757 32.962 45.853 32.962C45.349 32.962 44.8917 33.0927 44.481 33.354C44.0703 33.606 43.7437 33.956 43.501 34.404C43.2677 34.8427 43.151 35.3467 43.151 35.916C43.151 36.4853 43.2677 36.9893 43.501 37.428C43.7437 37.8667 44.0703 38.2167 44.481 38.478C44.8917 38.73 45.349 38.856 45.853 38.856C46.3757 38.856 46.8377 38.73 47.239 38.478C47.6497 38.2167 47.9717 37.8667 48.205 37.428C48.4383 36.9893 48.555 36.4853 48.555 35.916ZM51.6002 39.5C51.4696 39.5 51.3669 39.458 51.2922 39.374C51.2176 39.29 51.1802 39.192 51.1802 39.08V32.808C51.1802 32.696 51.2176 32.598 51.2922 32.514C51.3762 32.43 51.4789 32.388 51.6002 32.388C51.7216 32.388 51.8196 32.43 51.8942 32.514C51.9782 32.598 52.0202 32.696 52.0202 32.808V34.908L51.8102 34.95C51.8382 34.6233 51.9176 34.3013 52.0482 33.984C52.1882 33.6573 52.3749 33.3587 52.6082 33.088C52.8416 32.8173 53.1169 32.598 53.4342 32.43C53.7609 32.262 54.1249 32.178 54.5262 32.178C54.6942 32.178 54.8576 32.2153 55.0162 32.29C55.1749 32.3553 55.2542 32.4673 55.2542 32.626C55.2542 32.766 55.2169 32.8733 55.1422 32.948C55.0676 33.0227 54.9789 33.06 54.8762 33.06C54.7922 33.06 54.6989 33.0367 54.5962 32.99C54.5029 32.9433 54.3769 32.92 54.2182 32.92C53.9569 32.92 53.6956 32.9993 53.4342 33.158C53.1729 33.3073 52.9349 33.5127 52.7202 33.774C52.5056 34.0353 52.3329 34.3293 52.2022 34.656C52.0809 34.9733 52.0202 35.2953 52.0202 35.622V39.08C52.0202 39.192 51.9782 39.29 51.8942 39.374C51.8102 39.458 51.7122 39.5 51.6002 39.5ZM57.0709 39.5C56.9496 39.5 56.8469 39.458 56.7629 39.374C56.6883 39.29 56.6509 39.192 56.6509 39.08V29.56C56.6509 29.448 56.6883 29.35 56.7629 29.266C56.8469 29.182 56.9496 29.14 57.0709 29.14C57.1923 29.14 57.2903 29.182 57.3649 29.266C57.4489 29.35 57.4909 29.448 57.4909 29.56V39.08C57.4909 39.192 57.4489 39.29 57.3649 39.374C57.2903 39.458 57.1923 39.5 57.0709 39.5ZM61.8309 32.318C61.9336 32.318 62.0269 32.3647 62.1109 32.458C62.1949 32.542 62.2369 32.6353 62.2369 32.738C62.2369 32.8593 62.1856 32.9667 62.0829 33.06L57.3789 37.064L57.3369 36.07L61.5369 32.458C61.6209 32.3647 61.7189 32.318 61.8309 32.318ZM61.9429 39.5C61.8216 39.5 61.7189 39.4487 61.6349 39.346L58.4429 35.958L59.0729 35.384L62.2369 38.758C62.3209 38.8513 62.3629 38.9587 62.3629 39.08C62.3629 39.2107 62.3116 39.3133 62.2089 39.388C62.1063 39.4627 62.0176 39.5 61.9429 39.5Z" fill="black"/>
<defs>
<filter id="filter0_d_23_2023" x="9.49854" y="0.5" width="46.0027" height="35.0003" filterUnits="userSpaceOnUse" color-interpolation-filters="sRGB">
<feFlood flood-opacity="0" result="BackgroundImageFix"/>
<feColorMatrix in="SourceAlpha" type="matrix" values="0 0 0 0 0 0 0 0 0 0 0 0 0 0 0 0 0 0 127 0" result="hardAlpha"/>
<feOffset dy="4"/>
<feGaussianBlur stdDeviation="2"/>
<feComposite in2="hardAlpha" operator="out"/>
<feColorMatrix type="matrix" values="0 0 0 0 0 0 0 0 0 0 0 0 0 0 0 0 0 0 0.25 0"/>
<feBlend mode="normal" in2="BackgroundImageFix" result="effect1_dropShadow_23_2023"/>
<feBlend mode="normal" in="SourceGraphic" in2="effect1_dropShadow_23_2023" result="shape"/>
</filter>
</defs>
</svg>
