<svg width="21" height="15" viewBox="0 0 21 15" fill="none" xmlns="http://www.w3.org/2000/svg">
<path d="M1.16667 15C0.836111 15 0.559222 14.88 0.336 14.64C0.112 14.4008 0 14.1042 0 13.75C0 13.3958 0.112 13.0992 0.336 12.86C0.559222 12.62 0.836111 12.5 1.16667 12.5H19.8333C20.1639 12.5 20.4408 12.62 20.664 12.86C20.888 13.0992 21 13.3958 21 13.75C21 14.1042 20.888 14.4008 20.664 14.64C20.4408 14.88 20.1639 15 19.8333 15H1.16667ZM1.16667 8.75C0.836111 8.75 0.559222 8.63 0.336 8.39C0.112 8.15083 0 7.85417 0 7.5C0 7.14583 0.112 6.84875 0.336 6.60875C0.559222 6.36958 0.836111 6.25 1.16667 6.25H19.8333C20.1639 6.25 20.4408 6.36958 20.664 6.60875C20.888 6.84875 21 7.14583 21 7.5C21 7.85417 20.888 8.15083 20.664 8.39C20.4408 8.63 20.1639 8.75 19.8333 8.75H1.16667ZM1.16667 2.5C0.836111 2.5 0.559222 2.38042 0.336 2.14125C0.112 1.90125 0 1.60417 0 1.25C0 0.895833 0.112 0.59875 0.336 0.35875C0.559222 0.119584 0.836111 0 1.16667 0H19.8333C20.1639 0 20.4408 0.119584 20.664 0.35875C20.888 0.59875 21 0.895833 21 1.25C21 1.60417 20.888 1.90125 20.664 2.14125C20.4408 2.38042 20.1639 2.5 19.8333 2.5H1.16667Z" fill="#555555"/>
</svg>
