<svg width="138" height="93" viewBox="0 0 138 93" fill="none" xmlns="http://www.w3.org/2000/svg">
<g filter="url(#filter0_d_23_1826)">
<path d="M133.341 0.373817C132.041 -0.935713 128.852 1.55981 127.821 2.27634C123.97 4.87069 118.99 6.00727 115.383 8.97224C115.359 8.97224 115.334 8.99695 115.31 8.99695C110.771 11.5666 106.306 14.5563 101.35 16.2364C99.2404 16.953 97.4004 18.2131 95.6585 19.5967C94.4564 20.5356 93.3279 21.524 92.3466 22.6605C90.1386 22.9817 88.1269 23.8712 86.2869 25.2302C84.2506 26.7127 82.337 28.3434 80.3989 29.9741C74.7318 28.8623 67.887 30.4683 64.7468 35.5582C63.7409 35.0393 62.686 34.5698 61.6311 34.2733C60.1836 34.2486 58.5644 33.6556 57.485 33.1615C55.9885 32.4697 53.5106 31.1848 52.652 29.4306C52.1858 28.714 52.0632 27.8492 52.0877 26.9597C52.0632 27.0339 52.0141 27.108 51.965 27.1821C51.8914 27.3057 51.7933 27.4045 51.6706 27.5033C51.0573 28.5658 49.2664 27.5527 48.5059 27.0586C47.132 26.1444 46.0771 24.9831 45.8072 23.2782C45.6355 22.1911 46.3224 20.6592 47.5 20.4121C48.4077 20.2391 49.4627 20.5603 49.5853 21.5981C49.5853 21.5981 49.5608 21.6228 49.5608 21.5981C48.7267 20.6839 47.2301 20.4121 46.6168 21.7463C46.1507 22.7594 46.396 23.9948 47.0339 24.8596C47.6717 25.7243 50.0269 27.9234 51.3026 27.1821C51.4498 27.0339 51.597 26.8115 51.6706 26.688C51.8178 26.4903 52.0386 26.2432 52.1122 25.9714C52.1368 25.8232 52.1613 25.6749 52.1858 25.5267C52.1858 25.502 52.2349 25.502 52.2349 25.5267C52.2349 25.6008 52.2594 25.6502 52.2594 25.7243C52.284 25.7491 52.3085 25.7738 52.284 25.7985V25.8232C52.3821 26.6385 52.4312 27.5033 52.6765 28.294C53.437 30.0236 55.5714 31.2343 57.1906 32.0002C58.4172 32.5685 61.0423 33.7545 62.686 33.2603C63.2503 32.8897 63.5937 32.2967 63.79 31.5802C63.9127 31.0613 63.8636 30.493 63.8391 29.9741C63.79 29.3317 64.2071 29.1341 64.5015 28.6399C64.7959 28.1457 64.4279 27.7504 64.0108 27.4786C64.2807 27.2562 64.5751 27.0586 64.8695 26.8609C65.0167 26.7868 65.0657 26.5891 64.9676 26.4409C64.6241 25.922 64.2807 25.4031 63.9127 24.909C64.7713 24.3901 65.7527 23.6242 65.5564 22.8335C65.4092 22.2652 64.6977 21.771 64.3052 21.3757C63.8636 20.931 63.3975 20.5109 62.9068 20.1403C63.1767 19.1767 63.5937 17.8177 62.6615 17.1753C61.533 16.4094 61.7783 14.7786 60.8951 13.815C61.1895 12.7279 62.6615 10.7512 61.4594 9.83703C60.7479 9.31816 59.8647 9.12049 59.1287 8.60162C58.3437 8.08275 57.6322 7.71213 56.6999 7.56388C54.6882 7.24267 53.4125 8.94753 51.548 8.89812C49.4627 8.8487 47.6227 9.49111 45.9544 10.7265C42.9368 12.975 40.5817 17.2248 41.2931 21.0298C41.6857 23.1794 42.9123 25.0819 43.403 27.1821C43.5747 27.9234 43.6728 28.714 44.2371 29.307C44.7032 29.8012 45.2184 30.1471 45.8072 30.4436C45.979 31.4072 46.0771 32.3955 46.1016 33.3591C44.5806 35.064 42.7406 36.3488 40.8515 37.6584C38.987 36.423 36.8772 35.6076 34.571 35.4099C32.1668 35.1876 29.7135 35.8053 27.6282 37.0407C27.9962 37.263 28.3642 37.4854 28.7322 37.7078C29.2228 38.0043 29.5663 38.2761 29.8852 38.7455C29.9343 38.7949 29.8607 38.8691 29.7871 38.8444C28.5114 38.029 27.1866 37.6831 25.7882 37.1395C25.6165 37.0654 25.4202 36.9912 25.2485 36.9418C24.0218 36.7195 22.7215 36.7442 21.4704 36.9912C20.5872 37.1889 19.7285 37.5101 18.9434 37.9549C18.2074 39.635 17.2016 41.1669 15.9504 42.4764C15.9013 42.5259 15.8277 42.4517 15.8523 42.4023C16.6373 40.5986 17.7659 38.9185 18.3546 37.016C18.4037 36.843 18.4528 36.67 18.5019 36.5218C18.5019 35.7558 18.4283 34.9899 18.3056 34.2486C18.0357 32.3708 17.6432 30.5671 17.6677 28.6646C17.7168 26.8362 18.2565 25.0325 18.9925 23.3771C19.2378 23.3771 19.4586 23.3771 19.704 23.3771C19.5077 24.0689 20.0474 24.4148 20.7098 24.8349C21.1514 25.1313 21.6421 25.0819 22.1328 24.909C22.5007 25.3537 23.1141 25.502 23.7274 25.6255C24.0954 25.6996 24.4879 25.6255 24.8805 25.502C25.5674 26.1691 26.2789 26.7868 27.3338 26.2185C28.0452 25.8479 28.8058 25.2302 29.002 24.4395C29.5908 24.3407 30.2042 24.1183 30.4985 23.6489C31.1364 22.6111 30.8665 21.1286 30.8175 19.9674C30.7929 19.1273 29.6399 18.5343 29.0511 18.139C28.3396 17.6448 27.6527 17.1506 27.0394 16.5082C26.6714 16.1376 26.4751 16.0388 25.9599 15.9893C25.4447 15.9399 24.6842 16.36 24.1935 16.4835C23.2367 16.7306 22.2064 16.8294 21.225 16.9777C19.7285 17.1753 18.2565 17.4224 16.8091 17.8425C15.8032 18.139 14.8219 18.5343 14.2576 19.4979C13.9387 20.0168 13.7915 20.7086 13.7179 21.4251C13.1046 22.7594 12.4176 24.0195 11.559 25.2796C10.4059 26.9845 9.15473 28.6152 8.0998 30.3942C6.79955 32.6179 6.13715 35.0887 6.28435 37.5348C5.91636 39.1161 5.20489 40.5492 4.6897 42.1058C3.95371 44.3296 5.47476 45.565 7.26568 46.4297C8.9094 48.3817 11.3136 49.543 13.8651 50.0618C15.7051 51.7667 17.7904 53.1504 20.3664 53.521C22.2554 53.7928 24.1199 53.1256 25.9354 52.7056C26.5978 52.5574 27.2602 52.4585 27.9226 52.4338C28.4868 49.7653 29.5663 47.171 31.7743 45.8862C30.9156 45.7873 30.0324 45.5897 29.1738 45.2438C29.1492 45.219 29.1492 45.1696 29.1738 45.1696C30.8175 45.3426 32.4857 45.1943 34.1295 45.0214C35.7486 44.8484 36.9017 44.5272 38.1774 43.4648C38.2265 43.4401 38.2755 43.4154 38.3246 43.4154C37.3433 42.8224 36.2148 42.3776 35.258 41.9823C34.0313 41.4634 32.7311 40.9692 31.578 40.2774C31.5535 40.2774 31.578 40.2527 31.578 40.2527C33.2463 40.4504 34.9636 40.9692 36.5337 41.6117C37.9076 42.1799 38.6681 42.9953 39.5267 44.1566C39.5513 44.206 39.4777 44.2554 39.4531 44.206C39.1587 43.9342 38.8398 43.7119 38.4718 43.4895C38.4718 43.5142 38.4963 43.5389 38.4963 43.5636C38.4718 44.1072 38.2265 44.5272 37.8585 44.8484C39.7966 47.3687 41.195 50.1854 42.6424 53.0268C43.1331 53.9657 43.5502 54.8799 44.6296 55.2505C45.3166 55.4976 46.028 55.72 46.764 55.893C48.3096 56.2883 49.9288 56.6589 51.5234 56.7083C53.5352 56.7824 54.4674 55.5965 55.6695 54.1881C56.2338 53.521 56.8226 52.8539 57.3623 52.1867C57.8285 51.6185 58.0738 51.149 58.1229 50.556C58.0983 50.4819 58.1229 50.4078 58.1229 50.3336C58.1229 50.0618 58.0738 49.7901 58.0002 49.4441C57.3133 46.6521 55.7431 44.1319 55.3997 41.2657C55.3997 41.1916 55.5223 41.1669 55.5469 41.241C56.013 43.3165 57.2151 45.0708 58.0492 47.0227C58.4418 47.9616 58.9324 48.9994 59.0796 50.0371C61.165 51.322 63.2993 52.6809 65.7036 53.1998C68.7212 53.8175 70.6102 51.9397 71.7633 49.3453C72.3521 48.0358 72.8673 46.7015 73.3089 45.3426C73.7014 44.1813 74.192 42.9212 74.2411 41.6858C74.2411 41.6364 74.2411 41.6117 74.2411 41.5622C74.2411 41.5128 74.2411 41.4634 74.2411 41.414C74.2411 39.3879 73.1617 37.4113 73.7505 35.3852C73.775 35.3358 73.8486 35.3358 73.8486 35.4099C73.7995 36.5712 74.2166 37.5842 74.5846 38.622C75.1979 36.4971 76.719 34.5451 77.8966 32.7909C77.9456 32.7167 78.0683 32.7909 78.0192 32.865C76.8907 35.1628 75.3696 37.3619 75.0016 39.9562C75.0016 39.9809 74.9771 40.0303 74.9771 40.0551C75.0016 40.2527 75.0262 40.4257 75.0507 40.6233C80.0064 35.3111 86.4586 31.7037 93.4751 29.8259C93.5487 29.8012 93.5732 29.9247 93.4996 29.9494C86.7775 32.7167 80.1045 36.1512 75.0752 41.587C75.0507 42.3529 74.9035 43.1189 74.6827 43.8848C73.9222 46.4545 73.0881 49.5183 71.5179 51.7173C71.2235 52.1373 70.9046 52.5079 70.5611 52.8291C70.8065 53.6445 71.6406 54.2375 72.4993 53.8422C72.5483 53.8175 72.6219 53.8916 72.5729 53.941C72.1313 54.2869 71.5915 54.534 71.0273 54.3363C70.5611 54.1881 70.1441 53.7928 69.9478 53.348C68.7948 54.2128 67.4209 54.6081 65.8508 54.2869C63.3239 53.7681 61.214 52.5079 59.006 51.2725C58.9815 51.3714 58.957 51.4702 58.9324 51.569C58.4663 52.928 56.9698 54.1634 56.0621 55.2258C55.0562 56.4118 54.1239 57.4743 52.5293 57.6966C51.1064 57.8943 49.4381 57.5978 47.9416 57.2519C48.0152 57.4743 48.0397 57.7214 47.9907 57.9684C47.9416 58.4379 47.6472 58.9073 47.2301 59.105C46.396 59.5003 45.292 59.0062 44.507 58.7097C44.4579 58.685 44.4579 58.5861 44.5315 58.5861C44.9731 58.5861 46.1261 58.7097 46.9112 58.512C47.5245 58.2649 47.4755 57.6966 47.4509 57.1037C47.3037 57.0542 47.132 57.0295 46.9848 56.9801C45.4883 56.5848 43.6974 56.2389 42.6915 54.9293C41.6611 53.5951 41.0723 51.7914 40.2627 50.3089C39.355 48.6041 38.3737 46.9486 37.1961 45.392C37.1716 45.3673 37.1716 45.3426 37.147 45.3179C36.6073 45.565 35.994 45.6885 35.4788 45.7626C34.571 45.8862 33.6879 45.9603 32.8047 45.9356C31.4063 47.1957 30.2532 48.6535 29.5908 50.4819C29.2964 51.3219 29.0756 52.162 28.9039 53.0268C30.3268 55.7447 32.5103 58.0426 35.0617 59.7474C36.1902 61.5758 37.9076 63.1818 39.0606 64.862C40.091 66.3692 41.3177 67.9505 41.9555 69.6801C42.2499 70.4707 42.3235 71.3355 42.3726 72.2003C42.348 74.1028 42.5443 76.203 43.1331 77.9326C43.6728 79.5633 45.0222 80.8481 46.396 81.7871C48.2115 83.0225 50.444 83.5413 52.5784 83.9367C54.8845 84.3814 57.3133 84.9497 59.6684 84.9991C61.8274 85.0238 64.158 84.5297 66.2188 83.8872C67.9852 83.3437 69.2609 82.1824 70.2913 80.6505C71.2971 79.1186 72.2539 77.4137 72.2294 75.5606C72.2294 74.77 72.1803 73.9052 72.0822 73.0404C72.0822 72.4227 72.0822 71.8297 72.1313 71.212C72.2049 70.0754 72.5483 68.9883 72.6465 67.8517C72.7446 66.7398 72.4011 65.5785 72.3521 64.442C72.3275 64.096 72.3521 63.7501 72.3521 63.4289C74.3883 60.4145 75.9339 57.0789 77.087 53.6198C77.7248 51.7173 78.1909 49.7406 78.5099 47.7393C78.6571 46.8498 78.7797 45.9603 78.9515 45.0708C83.9072 45.7626 88.2495 42.2294 90.8746 38.0043C89.6725 38.3255 88.4213 38.4737 87.1946 38.3749C87.121 38.3749 87.0965 38.2514 87.1701 38.2267C89.746 37.5101 92.1503 36.67 94.3583 35.3358C94.7753 34.9899 95.1679 34.644 95.5849 34.2733C97.2532 32.7167 99.0196 31.259 100.786 29.8259C104.49 28.9364 107.287 26.4656 109.716 23.5747C112.513 20.2391 115.53 17.0765 118.352 13.7656C119.431 13.6174 120.535 13.568 121.566 13.222C123.332 12.6043 124.779 11.1713 126.055 9.86173C126.791 9.12049 127.527 8.35454 128.263 7.58859C128.656 7.19326 129.588 6.55085 129.588 5.88373C129.588 5.73548 129.563 5.63665 129.539 5.53781C130.545 4.45066 131.55 3.33879 132.556 2.22693C132.802 1.90572 133.906 0.966812 133.341 0.373817ZM27.3583 43.613C26.0335 44.799 24.2426 44.1319 22.8933 43.2918C21.1514 42.2294 20.4154 41.0187 20.1701 38.9926C20.1701 38.9679 20.1946 38.9679 20.1946 38.9926C20.808 40.4504 21.5685 41.5375 22.9914 42.3282C24.3162 43.0694 25.7391 44.0825 27.2847 43.5142C27.3583 43.5142 27.3828 43.5883 27.3583 43.613ZM46.6904 61.9959C45.8563 62.4406 44.9976 62.3418 44.1144 62.0453C44.0654 62.0206 44.0899 61.9711 44.1144 61.9711C44.7523 61.9711 45.3166 61.897 45.9054 61.6499C46.396 61.4523 47.0829 60.9581 47.1075 60.3651C47.1075 60.2663 47.2301 60.1922 47.3037 60.291C47.7944 60.884 47.2792 61.6994 46.6904 61.9959ZM53.4861 71.9038C52.5784 70.9155 51.3517 69.6801 51.1064 68.3211C50.861 66.9375 50.9592 65.5785 51.1309 64.1949C51.1309 64.1455 51.18 64.1455 51.2045 64.1949C51.3272 65.7268 51.3026 67.5305 52.0877 68.8894C52.652 69.853 53.1672 70.7919 53.6088 71.8544C53.6578 71.9038 53.5352 71.9779 53.4861 71.9038ZM53.9522 72.6203C53.9277 72.6203 53.9277 72.5709 53.9522 72.5709C53.9768 72.5709 53.9768 72.6203 53.9522 72.6203ZM58.0492 57.2025C57.2887 57.5978 56.4055 57.8696 55.8167 58.5614C55.3751 59.0803 55.0071 59.6733 54.4429 60.0686C53.5842 60.6863 52.333 59.8957 51.5725 59.525C51.548 59.525 51.548 59.4756 51.597 59.4756C52.2349 59.5498 53.6333 59.9204 54.173 59.5992C54.7373 59.2533 55.0807 58.7344 55.5959 58.3391C56.3319 57.7708 57.0925 57.3013 57.9757 57.0295C58.0738 57.0048 58.1474 57.1531 58.0492 57.2025ZM60.3063 67.9011C60.2818 67.9011 60.2818 67.8764 60.3063 67.8764C62.8087 67.0116 62.2444 64.9608 61.7292 62.9595C61.533 62.2429 61.7292 61.1805 61.5575 60.3898C61.3858 60.6863 61.1159 60.9334 60.7234 61.1064C60.6498 61.1311 60.5762 61.0322 60.6498 60.9828C61.0178 60.711 61.165 60.2169 61.165 59.6733C61.1159 59.5745 61.1159 59.4756 61.165 59.4015C61.1159 58.512 60.797 57.5237 60.5762 57.0789C60.2082 56.313 60.0119 55.547 59.8892 54.707C59.8647 54.5834 60.0364 54.534 60.0855 54.6576C60.429 55.7447 60.797 56.5354 61.533 57.4249C61.8274 57.7708 61.95 58.3143 61.9255 58.7838C61.9255 59.0556 61.9009 59.3027 61.8519 59.5498C62.1953 60.2169 62.1463 61.0075 62.1463 61.7735C62.1708 62.8112 62.7596 63.676 62.8087 64.689C62.8332 66.1221 61.9746 67.9999 60.3063 67.9011ZM62.8087 74.4734C62.8087 74.4982 62.7841 74.5476 62.7841 74.5723C62.686 75.017 61.9745 75.017 61.8764 74.5723C61.8764 74.5476 61.8519 74.4982 61.8519 74.4734C61.8028 74.2511 61.9009 74.004 62.0972 73.9052C62.2199 73.8063 62.4161 73.8063 62.5388 73.9052C62.7596 74.004 62.8577 74.2511 62.8087 74.4734ZM69.3345 66.4927C69.31 66.4927 69.31 66.468 69.3345 66.468C69.359 66.468 69.359 66.4927 69.3345 66.4927ZM69.7025 65.9739C69.6289 66.0974 69.4817 65.9986 69.5062 65.875C69.727 64.8867 70.0459 63.7995 69.9478 62.7865C69.8742 61.9711 69.6534 61.1805 69.5062 60.3898C69.2118 58.9568 69.2364 57.5978 69.5308 56.1647C69.5308 56.14 69.6044 56.14 69.6044 56.1647C69.5553 57.2272 69.6044 58.3391 69.8742 59.3521C70.095 60.1922 70.4385 61.0075 70.5857 61.8476C70.831 63.3548 70.4139 64.6396 69.7025 65.9739ZM103.902 20.3874C102.405 21.8205 100.639 23.2535 98.7006 24.0195C99.9028 24.0936 101.08 24.2419 102.282 24.3407C102.332 24.3407 102.332 24.4148 102.282 24.4148C100.59 24.4642 98.9214 24.7607 97.2287 24.4642H97.2041C95.8793 24.736 94.4809 24.6125 93.0826 23.9454C93.058 23.9206 93.0826 23.8959 93.1071 23.8959C97.1305 25.0078 100.614 22.364 103.804 20.2638C103.877 20.2391 103.951 20.338 103.902 20.3874Z" fill="#555555"/>
</g>
<defs>
<filter id="filter0_d_23_1826" x="0.5" y="0" width="137" height="93" filterUnits="userSpaceOnUse" color-interpolation-filters="sRGB">
<feFlood flood-opacity="0" result="BackgroundImageFix"/>
<feColorMatrix in="SourceAlpha" type="matrix" values="0 0 0 0 0 0 0 0 0 0 0 0 0 0 0 0 0 0 127 0" result="hardAlpha"/>
<feOffset dy="4"/>
<feGaussianBlur stdDeviation="2"/>
<feComposite in2="hardAlpha" operator="out"/>
<feColorMatrix type="matrix" values="0 0 0 0 0 0 0 0 0 0 0 0 0 0 0 0 0 0 0.25 0"/>
<feBlend mode="normal" in2="BackgroundImageFix" result="effect1_dropShadow_23_1826"/>
<feBlend mode="normal" in="SourceGraphic" in2="effect1_dropShadow_23_1826" result="shape"/>
</filter>
</defs>
</svg>
