<svg width="24" height="18" viewBox="0 0 24 18" fill="none" xmlns="http://www.w3.org/2000/svg">
<path d="M8.74122 17.076H8.58927C4.33476 17.0608 0.323366 14.4321 0.0194728 11.4691V11.4235L0.0042772 7.38175C-0.0413068 6.31812 0.277783 5.42164 0.946349 4.70749C2.67854 2.89932 6.40124 2.6866 9.0603 2.6866C9.88082 2.6866 10.6406 2.70179 11.3243 2.73218L11.6434 2.74737C13.2085 2.79296 14.7887 2.26114 16.3234 1.75972C17.6301 1.33427 18.8609 0.924011 19.9549 0.924011C20.6994 0.924011 21.3072 1.10635 21.8238 1.47103C22.5836 2.00284 23.0242 2.92971 23.0698 4.06931V4.08451V8.27824C23.0242 9.87368 22.2341 11.5603 20.8514 12.9886C19.0736 14.8575 15.5028 17.076 8.74122 17.076ZM0.961542 11.4083C1.23505 13.8699 4.86657 16.1339 8.58927 16.1491H8.74122C13.7555 16.1491 17.8276 14.7968 20.198 12.3504C21.4895 11.0133 22.1885 9.43303 22.1429 8.01993L22.1277 7.71603H22.1429V4.11489C22.1125 3.27919 21.8086 2.61063 21.3072 2.26115C20.9425 2.00284 20.5019 1.88128 19.9701 1.88128C19.0128 1.88128 17.858 2.26114 16.6273 2.6714C15.0926 3.17282 13.3604 3.75023 11.6282 3.70464L11.3091 3.68944C10.6406 3.67425 9.88082 3.64386 9.0755 3.64386C5.18566 3.64386 2.75451 4.20607 1.6453 5.37606C1.14388 5.90787 0.915958 6.56124 0.961542 7.36656V7.38175V11.4083Z" fill="#555555"/>
<path d="M20.9729 2.88412C20.8665 2.80814 20.7298 2.74737 20.5626 2.71698C19.7117 2.56503 18.3594 3.00568 17.0526 3.44632C15.4724 3.96294 13.6794 4.55553 11.8257 4.50995L11.5066 4.49475C8.28532 4.40358 1.58446 4.22124 1.7516 7.53368C1.82758 9.08354 4.16756 10.8005 6.87221 11.2716C7.37364 11.3627 7.87506 11.4083 8.37648 11.4083C17.706 11.4539 20.8969 6.95629 21.292 4.58592C21.4287 3.70463 21.2312 3.06645 20.9729 2.88412ZM18.0251 6.33331C17.3413 6.56123 16.612 6.39409 16.4145 5.95344C16.2169 5.5128 16.5968 4.98098 17.2958 4.75306C17.9795 4.52514 18.7089 4.69228 18.9064 5.13293C19.1039 5.57357 18.7089 6.10539 18.0251 6.33331Z" fill="#555555"/>
</svg>
