<svg width="216" height="431" viewBox="0 0 216 431" fill="none" xmlns="http://www.w3.org/2000/svg">
<path d="M28.189 181.077H28.6893H187.611H188.112V162.195H28.189V181.077Z" fill="#555555"/>
<path d="M137.873 218.523C134.971 218.523 132.669 220.963 132.669 224.039V431H143.077V224.039C143.077 220.963 140.775 218.523 137.873 218.523Z" fill="#555555"/>
<path d="M108.15 218.523C104.947 218.523 102.345 221.281 102.345 224.676V431H114.054V224.676C113.954 221.281 111.352 218.523 108.15 218.523Z" fill="#555555"/>
<path d="M166.495 218.523C163.593 218.523 161.291 220.963 161.291 224.039V431H171.699V224.039C171.699 220.963 169.397 218.523 166.495 218.523Z" fill="#555555"/>
<path d="M39.2971 211.522C42.0993 208.87 45.8021 207.279 49.8052 207.279C56.11 207.279 61.6142 211.31 64.1161 217.038C66.6181 211.31 72.1223 207.279 78.4271 207.279C85.0322 207.279 90.7366 211.628 93.0383 217.781C95.5403 211.628 101.345 207.279 108.15 207.279C114.955 207.279 120.659 211.628 123.261 217.781C125.563 211.628 131.268 207.279 137.873 207.279C144.178 207.279 149.682 211.31 152.184 217.038C154.686 211.31 160.19 207.279 166.495 207.279C170.498 207.279 174.201 208.87 177.003 211.522V192.322H39.2971V211.522Z" fill="#555555"/>
<path d="M75.6253 131.22C70.2212 133.766 69.5206 140.979 73.4236 145.329C77.4267 149.784 84.2319 149.147 88.8354 146.389C99.4436 140.237 96.5413 125.598 86.1334 121.461C74.6245 117.005 63.9163 125.81 56.1103 133.66C49.7054 140.025 43.7008 146.496 36.1951 150.951H70.021C68.6199 149.36 67.5191 147.556 66.8186 145.435C64.6169 139.07 69.0202 131.008 75.225 130.053C75.8254 129.947 76.3258 130.902 75.6253 131.22Z" fill="#555555"/>
<path d="M78.4274 218.523C75.5252 218.523 73.2234 220.963 73.2234 224.039V431H83.6314V224.039C83.6314 220.963 81.3296 218.523 78.4274 218.523Z" fill="#555555"/>
<path d="M0.467285 0H215.933V18.8821H0.467285V0Z" fill="#555555"/>
<path d="M67.2185 81.4689C81.9298 89.637 98.0422 76.0589 97.3416 59.7227H42.7998C51.1062 66.6178 58.0114 76.271 67.2185 81.4689Z" fill="#555555"/>
<path d="M49.8053 218.523C46.9031 218.523 44.6013 220.963 44.6013 224.039V431H55.0093V224.039C55.0093 220.963 52.7075 218.523 49.8053 218.523Z" fill="#555555"/>
<path d="M149.081 81.4689C158.289 76.3771 165.194 66.6178 173.5 59.7227H118.958C118.258 75.9528 134.37 89.637 149.081 81.4689Z" fill="#555555"/>
<path d="M203.523 30.1265H12.7769L16.2795 48.4782H200.121L203.523 30.1265Z" fill="#555555"/>
<path d="M146.279 150.951H180.105C172.599 146.496 166.595 140.025 160.19 133.66C152.384 125.81 141.575 117.005 130.167 121.461C119.659 125.598 116.857 140.237 127.465 146.389C132.068 149.041 138.873 149.678 142.877 145.329C146.779 141.085 146.079 133.766 140.675 131.22C139.974 130.902 140.475 129.947 141.175 130.053C147.38 131.008 151.783 139.176 149.582 145.435C148.781 147.556 147.68 149.36 146.279 150.951Z" fill="#555555"/>
<path d="M205.125 101.624C205.625 103.64 205.725 105.867 205.125 107.564C203.323 112.55 199.72 116.793 194.416 117.005C182.907 117.642 177.503 102.791 183.808 93.6681C185.71 90.91 188.011 89.1066 190.613 87.8337C189.212 86.879 187.911 85.4999 186.71 83.8026C186.61 83.5905 186.81 83.2723 187.011 83.3784C192.315 85.7121 201.822 84.9696 204.824 78.817C207.626 72.9826 205.925 65.0266 199.42 63.0111C184.809 58.4497 174.801 74.6799 165.394 83.5905C154.386 94.0924 140.175 99.9267 125.864 93.2437C117.157 89.1066 110.852 81.1507 108.05 71.7096C105.248 81.0446 98.943 89.1066 90.2364 93.2437C75.9254 100.033 61.7145 94.0924 50.7061 83.5905C41.3989 74.6799 31.2912 58.4497 16.68 63.0111C10.175 65.0266 8.47371 72.8765 11.2759 78.817C14.1781 84.9696 23.6854 85.8182 29.0895 83.3784C29.2897 83.2723 29.5899 83.5905 29.3897 83.8026C28.2889 85.4999 26.8878 86.879 25.4867 87.8337C28.0887 89.0006 30.3905 90.91 32.292 93.6681C38.6969 102.791 33.2927 117.536 21.6838 117.005C16.3798 116.687 12.777 112.444 10.9756 107.564C10.3751 105.867 10.4752 103.533 10.9756 101.624C8.874 102.897 7.07261 104.488 5.47139 106.291C-0.933527 113.505 -1.73413 124.537 3.16963 132.705C8.37362 141.298 19.1819 144.268 27.9887 141.298C37.3959 138.009 44.5013 128.568 51.907 121.991C60.7137 114.141 71.3219 108.307 83.1309 109.686C93.8392 110.959 103.547 119.233 105.348 130.69C106.649 138.858 103.246 146.071 97.7421 151.057H118.258C112.754 146.177 109.351 138.858 110.652 130.69C112.453 119.233 122.161 110.959 132.869 109.686C144.678 108.307 155.286 114.141 164.093 121.991C171.399 128.568 178.504 138.115 188.011 141.298C196.818 144.374 207.626 141.404 212.83 132.705C217.734 124.537 216.934 113.505 210.529 106.291C209.027 104.594 207.126 102.897 205.125 101.624Z" fill="#555555"/>
</svg>
