<svg width="16" height="24" viewBox="0 0 16 24" fill="none" xmlns="http://www.w3.org/2000/svg">
<path fill-rule="evenodd" clip-rule="evenodd" d="M15.0267 8.19494C12.8199 7.22294 3.19329 7.22294 0.939736 8.19494V7.54667C1.0337 6.29704 1.54977 6.01872 2.06583 5.69493C2.77108 5.37024 3.42777 5.00029 3.70935 3.7506C4.83675 3.65737 6.38651 3.56472 7.98321 3.56472C9.57979 3.56472 11.1764 3.65731 12.3023 3.7506C12.5838 5.00029 13.2422 5.37024 13.8988 5.69493C14.4634 6.01867 14.9794 6.29699 15.0267 7.54667V8.19494ZM5.07118 13.7965L8.73387 9.81554C8.82767 9.67673 9.01523 9.63051 9.15754 9.67673C9.43906 9.72295 9.5798 10.0005 9.53298 10.2317L8.82773 12.778H10.6118C10.7056 12.778 10.7997 12.8244 10.8951 12.8706C11.0827 13.0564 11.1296 13.3339 10.9403 13.5189L6.99633 17.7783C6.8557 17.8708 6.71508 17.9633 6.52725 17.917C6.29282 17.8708 6.10494 17.6395 6.15181 17.3611L6.71507 14.5835H5.39974C5.30594 14.5835 5.16536 14.5373 5.07123 14.4448C4.88373 14.2598 4.88373 13.9815 5.07118 13.7965ZM13.2891 9.53802C13.2891 9.2597 13.4769 9.07468 13.7582 9.07468C13.9929 9.07468 14.2274 9.2597 14.2274 9.53802V9.95425C14.2274 10.2318 13.9929 10.4167 13.7582 10.4167C13.4769 10.4167 13.2891 10.2317 13.2891 9.95425V9.53802ZM13.2891 11.3898C13.2891 11.1114 13.4769 10.9264 13.7582 10.9264C13.9929 10.9264 14.2274 11.1114 14.2274 11.3898V15.4632C14.2274 15.6945 13.9929 15.9266 13.7582 15.9266C13.4769 15.9266 13.2891 15.6945 13.2891 15.4632V11.3898ZM7.98321 0.926805C5.07118 0.926805 2.15958 1.11183 2.15958 1.48179V3.33347C2.39564 3.24098 2.67717 3.14855 3.0054 3.10222C3.09948 3.00974 3.24011 2.96352 3.38084 3.00974C4.64925 2.77849 6.29276 2.63978 7.98321 2.63978C9.67355 2.63978 11.317 2.77844 12.5838 3.00974H12.6325C12.7714 2.96352 12.9137 3.00974 13.0078 3.10222C13.2891 3.1486 13.6175 3.24104 13.8521 3.33347V1.48179C13.852 1.11189 10.9403 0.926805 7.98321 0.926805ZM1.22132 4.12061V1.48179C1.22132 0.50962 4.60204 0 7.98321 0H8.03003C11.4111 0 14.792 0.50962 14.792 1.48179V4.12061V4.16699V4.2132H14.7449V4.25942V4.30569V4.35271H14.6981V4.39893H14.6512V4.4453L14.6044 4.49157H14.5575V4.53779H14.5089H14.4634V4.58401H14.4152C14.3697 4.58401 14.1805 4.63028 13.9929 4.72282C14.1336 4.76904 14.2274 4.86153 14.3697 4.90785C15.1204 5.32402 15.9176 5.74121 15.9647 7.50046C16.0118 7.68538 16.0118 7.91743 15.9647 8.14873V22.3614C15.9647 23.241 13.852 23.7506 11.0827 23.8894C10.1427 23.9819 9.06205 23.9819 7.98321 23.9819C6.9494 24.0281 5.87056 23.9819 4.88374 23.8894C2.15959 23.7506 0 23.241 0 22.3614V8.14873C0 7.91743 0 7.68532 0 7.50046C0.0937509 5.74121 0.845881 5.32402 1.64347 4.90785C1.73727 4.86147 1.87795 4.76904 1.9717 4.72282C1.78425 4.6766 1.64347 4.58401 1.54977 4.58401H1.50295V4.53779H1.45569H1.40882V4.49157H1.36199V4.4453H1.31512V4.39893H1.2683V4.35271V4.30569H1.22142V4.25942V4.2132V4.16699V4.12061H1.22132ZM2.67717 3.88947L2.63035 3.93569H2.53638L2.67717 3.88947ZM13.336 3.93569L13.2891 3.88947H13.4299L13.336 3.93569ZM0.939736 19.5376C3.19329 20.5097 12.82 20.5097 15.0267 19.5376V22.3614C15.0267 22.6389 13.2891 22.8248 11.0341 23.0097C10.0489 23.0561 9.01517 23.1023 7.98321 23.1023C6.9494 23.1023 5.91743 23.0561 4.93055 23.0097C2.67717 22.8248 0.939683 22.6389 0.939683 22.3614L0.939736 19.5376Z" fill="#555555"/>
</svg>
