<svg width="125" height="89" viewBox="0 0 125 89" fill="none" xmlns="http://www.w3.org/2000/svg">
<g filter="url(#filter0_d_23_1836)">
<path d="M119.588 28.8691C119.019 28.2483 118.14 27.8086 117.416 27.3948C116.409 26.774 115.401 26.205 114.367 25.6618C113.566 25.248 112.79 24.8341 112.015 24.3944C111.601 23.7737 111.136 23.1529 110.671 22.558C109.224 20.8251 107.389 19.687 105.295 18.8852C104.313 18.4972 103.305 18.1869 102.271 17.9541C101.367 17.7989 100.462 17.6954 99.5316 17.6954C96.2751 17.6437 92.9927 18.3162 90.0464 19.7129C90.0205 19.7129 89.9947 19.687 90.0205 19.6612C91.6488 18.3162 93.5097 17.4885 95.4739 17.0488C92.1657 13.764 87.8237 11.6689 83.0682 11.462C79.3206 11.3068 76.09 12.6 73.3504 14.6692C70.8175 14.7986 68.3364 15.3417 65.8294 15.859C63.555 16.3505 61.2807 16.7384 58.9804 17.0488C58.6703 16.9454 58.3601 16.816 58.05 16.7126C56.9645 16.2987 55.879 15.859 54.7676 15.4452C54.0957 15.2124 53.4237 15.0055 52.7259 14.7986C52.545 13.1173 51.8471 11.5655 50.7616 10.1946C50.1413 9.3928 49.3401 8.77203 48.4873 8.22887C47.4018 7.55638 46.1095 7.3236 44.9981 6.67697C43.9385 6.05622 43.5508 4.47846 42.9822 3.49559C42.4653 2.59032 41.7933 1.81438 40.9663 1.21948C38.9245 -0.306548 36.4951 0.883238 34.6859 2.12475C33.5487 2.9007 32.4374 3.57318 31.1451 4.09048C29.9821 4.55605 28.7932 4.94402 27.6818 5.51305C25.6401 6.57351 24.2961 8.59098 23.8309 10.8154C23.5725 12.031 23.7275 13.3243 23.7792 14.5658C23.8309 15.9883 23.5466 17.3851 23.7534 18.8076C23.8826 19.7388 24.5029 20.5406 25.2782 21.0061C25.9502 21.42 26.829 21.032 27.5526 21.1096C28.6123 22.7391 29.155 24.4979 29.8528 26.386C30.1888 27.2913 30.99 27.5241 31.8429 27.4724C32.5408 29.0243 33.3936 30.4986 34.3241 31.8953C34.5825 32.3091 35.0736 33.292 35.6939 33.1885C36.2108 33.1109 36.7535 32.8523 37.2704 32.5419C37.4514 33.0075 37.6323 33.473 38.0716 33.7834C38.4852 34.0938 39.0796 34.0421 39.674 33.8351C39.8291 34.1714 40.0876 34.4559 40.3977 34.6111C40.8629 34.8697 41.2764 34.9473 41.7934 35.0249C42.3878 35.1025 42.6462 35.6716 43.0856 35.9561C43.5508 35.9302 44.016 35.8785 44.4554 35.7491C46.2904 35.206 46.9365 33.4213 47.7636 31.8694C48.5648 30.3951 50.0638 28.4552 50.1155 26.7223C50.1413 25.1445 49.3143 23.7737 48.5131 22.4804C48.4873 22.4287 48.5648 22.3511 48.5906 22.4028C49.2109 23.1012 49.9346 23.9289 50.3481 24.86C51.7696 26.7999 53.8631 28.2225 55.2587 30.1882C55.3104 30.2658 55.207 30.3434 55.1295 30.2916C54.0181 29.4122 53.036 28.3518 52.0798 27.3172C51.6145 26.8257 51.1235 26.3602 50.6583 25.8429C50.71 26.1274 50.7358 26.4378 50.71 26.7223C50.5807 28.2225 49.8571 29.5674 49.1075 30.8865C49.9346 30.7055 50.7616 30.7572 51.6145 31.0676C51.6662 31.0935 51.6404 31.1711 51.5887 31.1711C50.5807 30.9383 49.5986 31.1452 48.694 31.6108C48.5648 31.8177 48.4614 32.0246 48.358 32.2315C47.531 33.7834 46.8073 35.6974 45.1532 36.4992C44.7656 36.6803 44.3262 36.8096 43.861 36.8613C43.8351 36.8872 43.8351 36.9389 43.8093 36.9648C42.0518 36.9648 40.2943 37.301 38.6661 37.9218C36.7277 38.6719 35.0994 40.1462 33.6779 41.5946C32.2823 43.0172 31.1451 44.6725 30.4731 46.5865C30.0338 47.8281 29.9304 49.173 29.9821 50.518C27.5009 51.4233 25.3558 52.7683 23.6758 55.0444C23.65 55.0961 23.6242 55.122 23.5725 55.1737C23.4949 55.3806 23.4174 55.5617 23.3398 55.7686C22.4094 58.4327 22.2802 61.821 23.8051 64.304C23.8826 64.4075 23.7017 64.5109 23.6241 64.4075C23.1072 63.5539 22.6937 62.6745 22.4094 61.7951C22.306 63.7867 21.8667 65.7266 21.1688 67.4337C21.143 67.5113 21.0138 67.4854 21.0396 67.4078C21.5048 65.08 21.815 62.8038 21.5824 60.4243C21.5307 59.8294 21.4531 59.2345 21.3498 58.6655C20.316 57.3205 19.0495 56.1048 18.0416 54.9409C15.793 52.3286 13.7513 49.6645 12.3039 46.5607C12.3039 46.5348 12.3298 46.509 12.3298 46.4831C12.0972 46.4572 11.8646 46.4831 11.6578 46.5607C10.8566 46.7935 10.1071 47.0262 9.28003 46.7676C7.93608 46.3796 6.30784 45.8106 6.15277 44.207C6.12692 44.0259 6.38537 44.0259 6.43706 44.1811C6.87643 45.4744 8.58222 46.0175 9.82279 45.9399C10.6498 45.8882 11.4252 45.3709 12.2781 45.5002C12.5882 45.552 12.8984 45.6037 13.2085 45.6813C13.6996 45.6813 14.2165 45.6554 14.6817 45.5519C15.3278 45.3968 15.6638 44.9053 15.8706 44.3363C16.3616 44.207 16.8268 44.0259 17.1628 43.6897C17.4213 43.4052 17.5505 42.9137 17.6797 42.5775C17.6797 42.5775 17.6797 42.5775 17.6797 42.5516C18.4034 42.293 19.1529 41.9567 19.4631 41.3877C19.5923 41.1549 19.6957 40.8963 19.7474 40.6118C20.4452 39.9393 20.4969 38.9305 20.4452 37.8959C20.3676 36.3699 19.8766 35.594 18.4551 34.9991C17.6539 34.6628 16.9044 34.2231 16.1549 33.7575C15.638 33.4213 14.8884 32.6971 14.1906 32.7747C13.1051 32.9299 12.795 33.6282 12.5107 34.43C10.8824 36.2147 9.15081 37.8959 7.39334 39.5513C5.84262 40.9997 4.18853 42.9396 4.55036 45.2157C4.91219 47.4142 6.28199 49.4058 7.39334 51.3716C7.96193 53.6477 8.32377 56.0014 8.53053 58.381C8.84067 62.2866 9.12498 66.218 10.9083 69.7874C11.7612 71.4945 13.131 72.8136 14.4491 74.1586C15.5863 75.3225 16.3875 77.1847 17.8865 77.909C19.2046 78.5297 20.6261 77.5986 21.6341 76.8226C21.9184 76.5899 22.1768 76.3571 22.4611 76.0984C27.3459 74.8828 31.8171 72.7101 35.9523 69.7356C38.0199 68.2355 40.3977 66.5025 41.8709 64.4075C42.9564 62.8556 43.2148 60.7864 43.9126 59.0017C46.7039 59.907 49.1592 61.7175 51.873 62.8556C54.38 63.8902 57.0162 64.1488 59.6007 63.7091C59.3164 63.2177 59.0063 62.7521 58.6186 62.3124C57.2229 60.6312 55.3621 59.4673 54.0181 57.7343C53.9665 57.6567 54.044 57.5791 54.1215 57.6309C56.1116 59.4155 58.5152 60.4243 60.0142 62.7521C60.221 63.0625 60.4019 63.3729 60.5828 63.6833C62.4178 65.2352 63.9427 67.0457 64.6922 69.4511C65.2867 71.3651 64.563 73.0464 64.5113 74.9345C64.5113 75.1932 64.5372 75.4259 64.6147 75.6846C64.5888 75.7104 64.5888 75.7363 64.6147 75.788C64.6405 75.8139 64.6664 75.8398 64.6664 75.8915C64.8731 76.4088 65.235 76.8485 65.726 77.1071C67.0958 78.1935 69.0084 78.5297 70.7917 78.7625C74.074 79.2022 77.3564 78.9436 80.6387 78.4263C83.8435 77.9348 87.0225 77.1589 90.1756 76.3312C92.7601 75.6587 95.3188 74.831 97.6966 73.6413C97.0763 71.9859 96.8437 70.1754 97.1021 68.4165C97.3089 66.994 97.7741 65.649 98.3169 64.3299C97.6707 62.0279 96.7662 59.7777 96.0425 57.5533C95.784 56.7773 95.5773 56.0014 95.3705 55.2254C94.8795 54.0098 94.5693 52.6907 94.1816 51.5268C93.122 48.4488 91.8297 45.4226 90.4082 42.4999C90.3565 42.3964 90.5116 42.3188 90.5633 42.3964C92.2174 44.8019 93.613 47.259 94.6727 50.0007C94.7502 50.2076 94.8278 50.4404 94.9053 50.6473C95.784 46.302 96.3268 41.8274 96.2234 37.4304C94.3367 36.9131 92.5017 35.9561 90.9768 35.0508C88.9092 33.8093 86.4798 32.4126 85.1616 30.3175C85.2909 31.0159 85.3426 31.7142 85.3684 32.4384C85.3684 32.4902 85.3684 32.5419 85.3684 32.5936C85.937 38.2839 80.8713 42.862 75.8315 44.595C74.0999 45.1898 72.2907 45.6037 70.4816 45.8623C69.3702 46.0175 68.1555 46.3538 67.0441 46.0692C63.7359 51.087 57.3263 54.2684 51.4595 54.9409C49.5469 55.1478 47.6344 55.0444 45.7218 54.8633C44.7397 54.7857 43.7576 54.6823 42.8272 54.3978C42.7496 57.3205 39.7516 60.088 37.6581 61.7434C35.3062 63.6057 32.4115 65.0282 29.3359 64.9765C29.2584 64.9765 29.2326 64.8472 29.3101 64.8472C32.2564 64.3558 34.7893 63.1142 37.012 61.1226C38.9504 59.4155 41.8709 56.8032 41.7934 54.0357C41.6124 53.9322 41.4057 53.8546 41.2248 53.7253C39.7774 52.8459 38.511 51.6561 36.9861 50.8801C35.2545 50.0007 33.5487 49.561 31.7137 49.0437C31.6879 49.0437 31.7137 49.0179 31.7137 49.0179C34.6859 48.8885 37.503 50.2852 39.9066 51.8371C41.4573 52.8459 42.9305 53.6477 44.8172 53.8287C46.5489 53.9839 48.3063 54.165 50.038 54.0615C56.1633 53.6994 62.5212 50.5956 66.1654 45.5778C65.8811 45.2674 65.6227 44.8536 65.4417 44.5691C64.9248 43.7155 64.4338 42.8361 63.9427 41.9567C62.9606 40.1979 61.8492 38.4908 60.9964 36.6803C60.9447 36.6027 61.0739 36.4992 61.1256 36.5768C63.064 39.0599 64.5113 41.9309 66.398 44.4656C67.4577 45.9141 69.9646 45.1123 71.4895 44.8019C72.7301 44.5691 73.9965 44.2846 75.1854 43.8707C79.2948 42.4482 82.939 39.5254 84.2571 35.5164C84.2571 35.4646 84.2571 35.387 84.2829 35.3353C84.3087 35.2836 84.3346 35.2318 84.3604 35.1801C84.4897 34.7146 84.593 34.2231 84.6706 33.7058C84.7223 32.9557 84.6447 32.2057 84.6447 31.5332C84.6447 30.6538 84.593 29.8002 84.4897 28.9467C84.4897 28.9467 84.4897 28.9467 84.4897 28.9208C83.3266 28.6104 82.2153 27.7827 81.4141 27.0585C81.3107 26.9551 81.4399 26.774 81.5692 26.8516C82.603 27.6017 83.7918 28.3518 85.11 28.0931C86.0145 27.9121 86.7899 27.55 87.5394 26.9809C89.0901 25.817 90.5891 24.5755 92.1399 23.3857C92.2174 23.334 92.3208 23.4633 92.2432 23.515C91.287 24.5238 90.279 25.4549 89.3227 26.4378C88.4957 27.2655 87.7203 28.119 86.6865 28.688C86.1438 28.9984 85.5752 29.076 85.0066 28.9984C85.9887 29.9295 86.7641 31.0935 87.8754 31.8694C89.0384 32.6971 90.279 33.4472 91.4937 34.1714C92.8635 34.9732 94.2592 35.7233 95.7582 36.1889C96.6886 36.4734 97.5932 36.6027 98.5236 36.6803C99.8676 36.6803 101.212 36.5768 102.53 36.3699C102.555 36.2923 102.607 36.1888 102.633 36.1113C103.641 33.9645 104.882 31.2745 107.078 30.1106C107.13 30.0847 107.182 30.1623 107.156 30.1882C105.347 31.9729 104.416 34.2749 103.434 36.5768C103.383 36.6803 103.357 36.7837 103.305 36.8872C103.098 38.3356 102.969 39.8099 102.917 41.2325C102.788 44.6984 103.538 48.1126 103.538 51.5785C103.512 55.3806 101.625 58.5879 100.048 61.8986C99.5574 63.5022 98.8855 65.08 98.4461 66.6836C97.7224 69.4253 97.9809 72.0376 99.1439 74.3913C100.023 75.607 101.108 76.745 101.496 78.2452C101.573 78.5815 101.728 79.0988 102.013 79.4609C103.124 79.7454 104.52 79.0212 104.132 77.5986C103.951 76.9261 103.693 76.3053 103.486 75.6329C103.047 74.1844 102.633 72.6842 102.607 71.1841C102.607 71.0289 102.814 71.003 102.866 71.1582C103.331 72.8912 103.719 74.5724 104.442 76.2019C104.856 77.133 105.218 78.0383 104.804 79.0212C104.597 79.5385 104.235 79.9006 103.822 80.1592C104.468 80.5989 105.269 80.7024 105.786 79.9264C105.915 79.7454 105.915 79.4091 105.915 79.2022C105.993 78.4263 105.993 77.6762 106.019 76.9002C106.226 76.7192 106.432 76.5381 106.613 76.3829C106.897 76.1501 107.311 75.8656 107.492 75.5294C107.647 75.219 107.699 74.9086 107.725 74.5724C108.836 73.305 109.017 71.5979 108.371 69.865C107.647 67.8734 106.872 66.0111 106.536 64.0454C106.742 63.0884 107.13 62.1572 107.492 61.2261C108.061 59.8294 108.603 58.4327 109.198 57.036C110.335 54.2943 111.601 51.5785 113.049 48.992C114.418 46.5607 116.15 44.3622 117.597 41.9826C118.838 39.991 119.329 37.6114 119.071 35.3094C120.389 33.1627 121.242 30.6538 119.588 28.8691ZM61.5908 61.5365C65.8294 61.7434 67.742 57.0101 71.6963 56.3894C71.0501 55.8979 70.6625 55.1996 70.3006 54.3719C69.5511 52.5613 69.0859 50.6732 68.2847 48.8885C68.2589 48.8109 68.3364 48.7592 68.3881 48.8368C69.241 49.949 69.7837 51.2422 70.3523 52.5355C70.7659 53.5183 71.2828 55.1996 72.1873 56.1307C73.4279 54.6823 75.5214 53.777 77.1496 53.0011C79.3465 51.9665 82.1119 51.4491 83.2233 49.0437C83.2491 48.9661 83.3783 49.0178 83.3525 49.0954C82.8873 51.1129 80.8972 51.9664 79.2172 52.7941C77.1238 53.8287 74.5651 54.8892 72.8852 56.5963C72.911 56.5963 72.9369 56.6221 72.9627 56.648C73.1436 56.7256 73.0919 57.0101 72.8852 56.9584C72.8076 56.9325 72.7301 56.9067 72.6525 56.8808C72.6009 56.9584 72.5233 57.0101 72.4716 57.0877C73.1436 58.5879 73.6605 60.2174 74.1516 61.7693C74.3583 62.4417 74.5651 63.166 74.8236 63.8384C76.5293 62.2607 78.4419 60.9933 80.587 60.088C81.6984 59.6225 82.9131 59.3638 83.9986 58.8465C85.3167 58.2258 86.0404 57.1912 86.5314 55.8462C86.5573 55.7686 86.6865 55.7945 86.6607 55.8721C86.4022 56.8808 86.0921 57.993 85.2909 58.6913C84.4638 59.4414 83.4817 59.7518 82.4737 60.1656C79.8117 61.2002 77.3047 62.7004 75.1078 64.5627C75.1595 64.6661 75.2112 64.7696 75.2629 64.8472C75.6506 65.5973 76.1675 66.2698 76.6327 66.994C76.7103 67.1233 76.5552 67.3302 76.4001 67.2268C76.1158 66.994 75.8574 66.7612 75.5989 66.4767C76.0383 68.3389 76.1934 70.2788 76.5552 72.167C76.7619 73.2533 76.9946 74.3396 77.3305 75.4001C77.7699 76.8744 78.752 76.9261 80.0701 77.0813C80.2252 77.1071 80.2252 77.3399 80.0701 77.3141C79.0105 77.2623 78.2351 77.7279 77.4081 76.8744C76.7878 76.2277 76.6327 74.9862 76.4518 74.1586C75.8574 71.5462 75.3146 68.7786 75.2888 66.0887C74.9011 65.6231 74.591 65.1058 74.3066 64.5627C73.1695 65.4421 71.9289 66.2439 70.7142 67.0198C69.7837 67.6147 68.9567 68.1062 67.8195 68.0027C67.7678 68.0027 67.742 67.8992 67.8195 67.8992C69.1376 67.8216 70.2231 66.6836 71.2569 65.9335C72.1873 65.261 73.0661 64.5627 74.0482 63.9678C73.8931 63.5798 73.738 63.1918 73.6347 62.8039C73.0919 60.9933 72.5233 59.1052 72.2132 57.2429C72.1098 57.2429 71.9806 57.1653 71.903 57.0877C68.3106 57.8119 65.6743 62.8556 61.6683 61.6141C61.5133 61.6141 61.5133 61.5106 61.5908 61.5365ZM75.1595 15.1348C72.8335 18.3938 69.9905 21.032 66.8374 23.4892C65.3125 24.679 63.7359 25.7394 62.1852 26.9033C60.3761 28.2742 58.4377 30.3175 59.549 32.7488C59.6007 32.8264 59.6007 32.904 59.5749 32.9816C59.6266 33.0851 59.6524 33.1885 59.7041 33.3178C59.7558 33.5248 59.7816 33.7575 59.8592 33.9645C59.885 34.0421 59.7816 34.0679 59.7299 34.0162C59.549 33.7575 59.2647 33.5506 59.1097 33.2661C59.0321 33.1368 58.9546 32.9816 58.8253 32.904C56.7319 32.516 54.8193 32.5936 52.9843 33.7575C51.4078 34.7404 49.8054 35.6716 48.1771 36.551C45.1274 38.1546 42.0001 39.7582 38.7695 40.9221C38.7178 40.948 38.6919 40.8704 38.7436 40.8445C42.3102 38.8788 45.9286 37.0165 49.4177 34.9215C50.8909 34.0421 52.3899 32.8005 54.0181 32.2574C55.5947 31.7142 57.0937 31.8177 58.6703 32.2057C57.5331 28.7915 61.9785 26.1533 64.3045 24.472C68.1555 21.6786 71.9806 18.7042 75.0303 15.0055C75.0562 14.9279 75.2112 15.0572 75.1595 15.1348ZM106.381 26.205C103.899 21.9373 99.0147 21.3941 94.5176 21.601C94.4401 21.601 94.4401 21.4976 94.5176 21.4976C98.6787 21.032 105.347 20.7992 106.562 26.1274C106.613 26.2567 106.458 26.3343 106.381 26.205Z" fill="#555555"/>
</g>
<defs>
<filter id="filter0_d_23_1836" x="0.5" y="0.5" width="124" height="88" filterUnits="userSpaceOnUse" color-interpolation-filters="sRGB">
<feFlood flood-opacity="0" result="BackgroundImageFix"/>
<feColorMatrix in="SourceAlpha" type="matrix" values="0 0 0 0 0 0 0 0 0 0 0 0 0 0 0 0 0 0 127 0" result="hardAlpha"/>
<feOffset dy="4"/>
<feGaussianBlur stdDeviation="2"/>
<feComposite in2="hardAlpha" operator="out"/>
<feColorMatrix type="matrix" values="0 0 0 0 0 0 0 0 0 0 0 0 0 0 0 0 0 0 0.25 0"/>
<feBlend mode="normal" in2="BackgroundImageFix" result="effect1_dropShadow_23_1836"/>
<feBlend mode="normal" in="SourceGraphic" in2="effect1_dropShadow_23_1836" result="shape"/>
</filter>
</defs>
</svg>
